<svg width="35" height="35" viewBox="0 0 35 35" fill="none" xmlns="http://www.w3.org/2000/svg">
<path d="M16.4846 4.29395C14.295 4.29395 12.1951 5.16376 10.6468 6.71205L10.323 7.03579C8.77475 8.58408 7.90493 10.684 7.90493 12.8736V14.3896C7.90493 17.1765 6.79787 19.8492 4.82728 21.8197C4.48518 22.1618 4.29297 22.6258 4.29297 23.1096C4.29297 24.117 5.10969 24.9337 6.11711 24.9337H27.2366C28.244 24.9337 29.0607 24.117 29.0607 23.1096C29.0607 22.6258 28.8685 22.1618 28.5264 21.8197C26.5558 19.8492 25.4488 17.1765 25.4488 14.3896V12.8736C25.4488 10.684 24.5789 8.58408 23.0307 7.03579L22.7069 6.71205C21.1586 5.16376 19.0587 4.29395 16.8691 4.29395H16.4846Z" stroke="#1A1A1A" stroke-width="1.71754" stroke-linecap="round" stroke-linejoin="round"/>
<path d="M19.9008 24.9338C20.1292 25.4091 20.2533 25.9366 20.2533 26.4818C20.2533 27.759 19.572 28.9392 18.4659 29.5778C17.3598 30.2164 15.9971 30.2164 14.891 29.5778C13.7849 28.9392 13.1035 27.759 13.1035 26.4818C13.1035 25.9366 13.2277 25.4091 13.456 24.9338" stroke="#1A1A1A" stroke-width="1.71754" stroke-linecap="round" stroke-linejoin="round"/>
</svg>
