<svg width="40" height="40" viewBox="0 0 40 40" fill="none" xmlns="http://www.w3.org/2000/svg">
<path d="M2.5 20.1831C2.5 13.4529 10.3332 8 20 8C29.6668 8 37.5 13.4529 37.5 20.1831C37.5 26.9088 29.6668 32 20 32C10.3332 32 2.5 26.9133 2.5 20.1831ZM14.2703 27.0115C17.5993 28.8113 22.8123 28.1771 22.8123 28.1771C24.4036 28.1771 23.2604 27.2572 23.2604 27.2572C21.6233 26.1183 22.9129 24.783 22.9129 24.783C24.303 23.3271 25.94 23.1351 25.94 23.1351C29.269 22.1124 33.0964 22.5992 33.0964 22.5992C34.2853 22.7957 33.293 21.7774 33.293 21.7774C32.5477 21.1924 32.9958 19.9285 32.9958 19.9285C34.5871 17.9457 37.1525 17.7492 37.1525 17.7492L37.0382 17.3919L36.9467 17.1373C35.456 16.6997 33.9881 16.6818 33.9881 16.6818C28.2264 16.0968 25.3456 17.7 25.3456 17.7C20.7271 19.9821 25.3456 22.1392 25.3456 22.1392C20.9511 21.4112 17.5947 22.2106 17.5947 22.2106C15.2123 22.5992 13.9731 23.546 13.9731 23.546C11.2386 25.4127 14.2703 27.0115 14.2703 27.0115ZM2.50457 20.5984L2.6006 20.7503C4.80925 24.1489 12.6561 23.1306 12.6561 23.1306C13.7536 22.9877 12.9031 22.4518 12.9031 22.4518C10.7173 20.5136 13.5021 19.0532 13.5021 19.0532C17.3478 16.847 22.515 17.6241 22.515 17.6241C23.7085 17.6464 23.0089 17.1373 23.0089 17.1373C22.1172 16.2933 22.5379 15.2706 22.5379 15.2706C23.329 13.4306 26.6077 12.8232 26.6077 12.8232C27.5268 12.4615 26.6077 12.1176 26.6077 12.1176C18.6602 10.5188 14.7367 12.7473 14.7367 12.7473C9.99477 15.15 15.0065 17.1865 15.0065 17.1865C12.1531 16.6773 9.29514 16.847 9.29514 16.847C3.14476 17.3338 2.52744 19.6383 2.52744 19.6383C2.52744 19.6383 2.5 19.9285 2.5 20.1831L2.50457 20.5984ZM16.6527 25.2296C17.2472 25.2296 17.7273 24.7652 17.7273 24.1846C17.7273 23.6085 17.2472 23.1351 16.6527 23.1351C16.0628 23.1351 15.5827 23.604 15.5827 24.1846C15.5827 24.7607 16.0628 25.2296 16.6527 25.2296ZM6.19937 20.3394C6.78926 20.3394 7.27397 19.875 7.27397 19.2944C7.27397 18.7138 6.78926 18.2449 6.19937 18.2449C5.60491 18.2449 5.12477 18.7138 5.12477 19.2944C5.12477 19.8705 5.60034 20.3394 6.19937 20.3394ZM16.4744 15.1053C17.0689 15.1053 17.549 14.6364 17.549 14.0603C17.549 13.4842 17.0689 13.0108 16.4744 13.0108C15.8799 13.0108 15.4044 13.4797 15.4044 14.0603C15.4044 14.6409 15.8799 15.1053 16.4744 15.1053ZM26.9598 20.0536C27.5496 20.0536 28.0298 19.5891 28.0298 19.0086C28.0298 18.4325 27.5496 17.9591 26.9598 17.9591C26.3699 17.9591 25.8897 18.428 25.8897 19.0086C25.8852 19.5891 26.3653 20.0536 26.9598 20.0536Z" fill="#076CAF"/>
</svg>
