<svg width="40" height="40" viewBox="0 0 40 40" fill="none" xmlns="http://www.w3.org/2000/svg">
<path d="M13.5853 20.001C14.1412 19.7689 14.6026 19.2478 14.6026 18.3861C14.6026 17.1034 13.5019 16.3252 12.1747 16.3252H8.07228C8.05311 16.3252 8.03473 16.3328 8.02118 16.3464C8.00763 16.3599 8.00001 16.3783 8.00001 16.3975V17.5634C7.99983 17.573 8.00156 17.5826 8.00511 17.5915C8.00866 17.6004 8.01395 17.6086 8.02068 17.6154C8.02741 17.6223 8.03544 17.6277 8.0443 17.6315C8.05316 17.6352 8.06267 17.6371 8.07228 17.6371H11.8912C12.5069 17.6371 12.9238 18.0137 12.9238 18.4709C12.9238 18.9281 12.5069 19.3117 11.8912 19.3117H9.62182V18.4487C9.62201 18.439 9.62023 18.4293 9.6166 18.4203C9.61296 18.4113 9.60754 18.4031 9.60067 18.3962C9.59379 18.3893 9.58559 18.3839 9.57657 18.3803C9.56755 18.3766 9.55789 18.3748 9.54816 18.375H8.07228C8.06267 18.375 8.05316 18.3769 8.0443 18.3807C8.03544 18.3844 8.02741 18.3898 8.02068 18.3967C8.01395 18.4035 8.00866 18.4117 8.00511 18.4206C8.00156 18.4295 7.99983 18.4391 8.00001 18.4487V23.6004C8.00001 23.6195 8.00763 23.6379 8.02118 23.6515C8.03473 23.665 8.05311 23.6726 8.07228 23.6726H12.1164C13.6284 23.6726 14.711 22.9681 14.711 21.5297C14.7141 21.1874 14.606 20.8533 14.403 20.5777C14.2 20.302 13.9131 20.0997 13.5853 20.001ZM11.9704 22.3955H9.62182V20.6722H11.9704C12.6014 20.6722 13.0294 21.0586 13.0294 21.5339C13.0294 22.0092 12.6014 22.3955 11.9704 22.3955Z" fill="#D7191F"/>
<path d="M30.5514 17.6371H31.1698C31.1894 17.6371 31.2081 17.6293 31.2219 17.6155C31.2357 17.6017 31.2435 17.583 31.2435 17.5634V16.3975C31.2435 16.3879 31.2416 16.3784 31.2379 16.3695C31.2341 16.3606 31.2287 16.3526 31.2218 16.3459C31.215 16.3391 31.2068 16.3339 31.1979 16.3303C31.189 16.3268 31.1794 16.325 31.1698 16.3252H30.3013C29.2965 16.3252 28.7642 16.6462 28.4599 17.3286L26.5712 21.955C26.5333 22.0825 26.4523 22.1928 26.342 22.2673C26.2318 22.3418 26.0992 22.3758 25.9667 22.3635V16.3975C25.9667 16.3879 25.9648 16.3784 25.9611 16.3695C25.9574 16.3606 25.9519 16.3526 25.9451 16.3459C25.9382 16.3391 25.9301 16.3339 25.9211 16.3303C25.9122 16.3268 25.9027 16.325 25.8931 16.3252H24.5033C24.4937 16.325 24.4842 16.3268 24.4753 16.3303C24.4663 16.3339 24.4582 16.3391 24.4513 16.3459C24.4445 16.3526 24.439 16.3606 24.4353 16.3695C24.4316 16.3784 24.4297 16.3879 24.4297 16.3975V23.5476C24.4301 23.5816 24.4438 23.6141 24.468 23.6381C24.4922 23.662 24.5249 23.6754 24.5589 23.6754H26.1168C27.1202 23.6754 27.5802 23.3544 27.8831 22.6721L29.7481 18.1027C29.8982 17.7789 30.1136 17.6371 30.5514 17.6371Z" fill="#D7191F"/>
<path d="M31.9878 23.5902L29.6072 20.5468C29.6062 20.545 29.6048 20.5436 29.6031 20.5426C29.6014 20.5416 29.5994 20.541 29.5975 20.541C29.5955 20.541 29.5935 20.5416 29.5918 20.5426C29.5901 20.5436 29.5887 20.545 29.5877 20.5468L28.9471 22.1144C28.9446 22.1188 28.9434 22.1239 28.9434 22.1289C28.9434 22.134 28.9446 22.1391 28.9471 22.1435L29.988 23.5333C30.0181 23.5787 30.0596 23.6155 30.1084 23.6399C30.1571 23.6643 30.2115 23.6754 30.2659 23.6722H31.9419C31.952 23.6739 31.9624 23.6723 31.9716 23.6679C31.9808 23.6634 31.9885 23.6562 31.9935 23.6473C31.9985 23.6383 32.0006 23.628 31.9996 23.6178C31.9986 23.6077 31.9945 23.598 31.9878 23.5902Z" fill="#D7191F"/>
<path d="M17.3149 18.3779H15.9252C15.9057 18.3779 15.8869 18.3857 15.8731 18.3995C15.8593 18.4133 15.8516 18.4321 15.8516 18.4516V23.6033C15.8516 23.6129 15.8535 23.6224 15.8572 23.6313C15.8609 23.6401 15.8664 23.6481 15.8732 23.6549C15.8801 23.6616 15.8882 23.6669 15.8971 23.6704C15.9061 23.674 15.9156 23.6757 15.9252 23.6755H17.3149C17.3342 23.6755 17.3528 23.668 17.3665 23.6545C17.3803 23.641 17.3882 23.6226 17.3886 23.6033V18.4488C17.3879 18.4298 17.3798 18.4117 17.3661 18.3985C17.3523 18.3853 17.334 18.3779 17.3149 18.3779Z" fill="#D7191F"/>
<path d="M23.0342 16.3252H21.6445C21.635 16.3252 21.6256 16.3271 21.6168 16.3307C21.6081 16.3343 21.6001 16.3397 21.5934 16.3464C21.5867 16.3531 21.5813 16.3611 21.5777 16.3698C21.5741 16.3786 21.5722 16.388 21.5722 16.3975V22.3635C21.4397 22.3758 21.3071 22.3418 21.1969 22.2673C21.0867 22.1928 21.0057 22.0825 20.9677 21.955L19.0763 17.3286C18.7733 16.6462 18.2424 16.3252 17.2363 16.3252H15.9272C15.9176 16.325 15.908 16.3268 15.8991 16.3303C15.8902 16.3339 15.882 16.3391 15.8752 16.3459C15.8683 16.3526 15.8629 16.3606 15.8591 16.3695C15.8554 16.3784 15.8535 16.3879 15.8535 16.3975V17.5634C15.8535 17.583 15.8613 17.6017 15.8751 17.6155C15.8889 17.6293 15.9076 17.6371 15.9272 17.6371H16.9847C17.4239 17.6371 17.6379 17.7761 17.788 18.1027L19.653 22.6721C19.9574 23.3544 20.416 23.6754 21.4207 23.6754H22.9772C23.0113 23.6754 23.0439 23.662 23.0681 23.6381C23.0923 23.6141 23.1061 23.5816 23.1065 23.5476V16.3975C23.1065 16.3783 23.0989 16.3599 23.0853 16.3464C23.0717 16.3328 23.0534 16.3252 23.0342 16.3252Z" fill="#D7191F"/>
</svg>
