<svg width="40" height="40" viewBox="0 0 40 40" fill="none" xmlns="http://www.w3.org/2000/svg">
<path d="M15.2714 11.2226C15.0241 11.3453 14.8038 11.5161 14.6232 11.7248C14.4425 11.9336 14.3053 12.1763 14.2194 12.4386L10.8574 22.5366C10.6815 23.0655 10.7229 23.6427 10.9724 24.1411C11.222 24.6395 11.6593 25.0184 12.1882 25.1945L23.208 28.8943C23.7367 29.0684 24.3128 29.0262 24.8105 28.7768C25.3081 28.5275 25.6868 28.0912 25.8638 27.5635L29.2244 17.4655C29.3996 16.9367 29.3582 16.36 29.1092 15.8616C28.8601 15.3632 28.4237 14.9839 27.8956 14.8065L16.8758 11.1099C16.6143 11.0214 16.3377 10.9858 16.0623 11.0051C15.7869 11.0245 15.518 11.0984 15.2714 11.2226Z" fill="white"/>
<path d="M18.2062 12.3275C20.1342 13.0423 21.5415 15.1015 21.4047 17.3467C21.3563 18.1835 21.0991 18.9949 20.6565 19.7068C20.0495 19.0271 19.2901 18.5009 18.4406 18.1713L17.9481 17.978V22.6615L18.4477 22.4677C19.2957 22.1348 20.0526 21.6055 20.6562 20.9232C21.2469 21.8702 21.5082 22.9859 21.3993 24.0967C21.2903 25.2076 20.8173 26.2513 20.0539 27.0655L20.0587 27.0618L20.0539 27.0675L12.4078 24.5106C12.0615 24.3967 11.7743 24.1503 11.6089 23.8252C11.4436 23.5002 11.4137 23.123 11.5256 22.776L14.8962 12.6711C15.0064 12.3283 15.2483 12.0432 15.5686 11.8786C15.8889 11.7141 16.2615 11.6834 16.6044 11.7935L16.6153 11.7972L18.2062 12.3275Z" fill="#0092D8"/>
<path d="M16.2332 22.9439H15.4766V17.6973H16.2332V22.9439Z" fill="white"/>
<path d="M20.2142 20.3143C19.7883 19.8065 19.2661 19.388 18.6777 19.083V21.5496C19.2657 21.2422 19.7877 20.8225 20.2142 20.3143Z" fill="#E43D30"/>
<path d="M27.6519 15.4787L20.6309 13.1357C21.5136 14.0985 22.0445 15.3318 22.1368 16.6347C22.2292 17.9376 21.8778 19.2335 21.1397 20.3111C21.8597 21.3535 22.2172 22.6038 22.157 23.8693C22.0967 25.1348 21.6222 26.3454 20.8064 27.3147L23.4422 28.1949C23.6123 28.2508 23.7918 28.2726 23.9704 28.2591C24.149 28.2457 24.3231 28.1971 24.4829 28.1163C24.6428 28.0354 24.7851 27.9239 24.9018 27.788C25.0185 27.6522 25.1072 27.4946 25.163 27.3245V27.3207L28.5336 17.2165C28.6456 16.8691 28.6157 16.4915 28.4506 16.166C28.2855 15.8405 27.9984 15.5935 27.6519 15.4787ZM25.7877 22.9291H24.8412L22.8909 20.3111L24.8733 17.6868H25.8341L23.8448 20.3111L25.7877 22.9291Z" fill="#004B9D"/>
</svg>
