<svg width="40" height="40" viewBox="0 0 40 40" fill="none" xmlns="http://www.w3.org/2000/svg">
<path d="M23.0722 22.2741C23.0279 21.9998 22.9495 21.7322 22.8387 21.4774C22.522 20.7148 21.9703 20.0732 21.2637 19.646C20.7098 19.3134 20.0751 19.1396 19.429 19.1436C18.783 19.1477 18.1505 19.3294 17.6009 19.6689C17.0895 19.9762 16.674 20.4202 16.4013 20.9509C16.3112 21.1321 16.2362 21.3205 16.1769 21.514C16.0093 22.0172 15.9448 22.5489 15.9873 23.0776C16.0298 23.6062 16.1784 24.1209 16.4242 24.5908C16.5929 24.8795 16.8519 25.1047 17.1613 25.2318C17.3147 25.2951 17.4808 25.3215 17.6462 25.3088C17.8117 25.296 17.9718 25.2446 18.1136 25.1585C18.2721 25.036 18.3906 24.8692 18.4541 24.6793C18.5177 24.4894 18.5235 24.2849 18.4708 24.0917C18.3458 23.6018 18.3585 23.0869 18.5074 22.6037C18.5626 22.4459 18.6517 22.3022 18.7684 22.1825C18.8424 22.1113 18.9274 22.0525 19.0202 22.0085C19.2151 21.9096 19.4361 21.8744 19.652 21.9078C19.8366 21.9478 20.0091 22.0309 20.1555 22.1503C20.3019 22.2696 20.418 22.4218 20.4945 22.5945C20.6439 22.9433 20.7217 23.3186 20.7234 23.698C20.7294 25.3692 20.4824 27.0317 19.9908 28.629C19.9496 28.7939 19.9038 28.9541 19.8581 29.1144C19.8123 29.2746 19.7573 29.3982 19.8581 29.5218C19.896 29.5711 19.9467 29.609 20.0046 29.6317C20.2518 29.7325 20.4624 29.5814 20.6135 29.4165C21.5461 28.4197 22.2329 27.2187 22.6189 25.9094C22.7792 25.4285 22.9077 24.9375 23.0035 24.4397C23.1522 23.7227 23.177 22.9856 23.0768 22.2603" fill="#008485"/>
<path d="M29.9817 14.6692C29.9794 14.6122 29.9656 14.5563 29.9411 14.5048C29.9166 14.4533 29.8819 14.4073 29.8391 14.3697C29.7963 14.332 29.7462 14.3034 29.6921 14.2856C29.6379 14.2679 29.5806 14.2613 29.5238 14.2663C29.2877 14.3002 29.0587 14.3729 28.8462 14.4815C24.6019 16.0931 19.8174 16.3999 15.3442 15.7543C14.5796 15.6444 13.8058 15.4933 13.0549 15.3697C12.5971 15.2964 12.098 15.1866 11.6127 15.1499C11.1759 15.0654 10.7234 15.1523 10.349 15.3926C10.1557 15.6035 10.0357 15.8712 10.0068 16.1558C9.97791 16.4404 10.0417 16.7268 10.1888 16.9722C10.5164 17.5322 10.9916 17.9914 11.5623 18.3C12.0895 18.6755 12.7149 18.8888 13.3617 18.9135C15.0695 18.8082 16.7772 18.6388 18.4759 18.419C21.3741 18.0436 24.4279 17.6864 27.1293 16.5647C28.0335 16.2082 28.8852 15.7307 29.6612 15.1454C29.7985 15.04 30 14.8661 30 14.6875" fill="#008485"/>
<path d="M17.8086 13.2137C17.831 13.6412 18.0166 14.0438 18.3271 14.3384C18.6376 14.6331 19.0494 14.7974 19.4775 14.7974C19.9055 14.7974 20.3173 14.6331 20.6278 14.3384C20.9383 14.0438 21.1239 13.6412 21.1463 13.2137C21.1476 13.076 21.1179 12.9399 21.0593 12.8153C20.9174 12.5086 20.7526 12.3575 20.7709 12.0003C20.7709 11.5104 20.1619 11.5013 19.8231 11.5013C19.4463 11.489 19.0718 11.5643 18.7289 11.7211C18.4589 11.8583 18.2312 12.0662 18.07 12.3226C17.9087 12.579 17.82 12.8742 17.8132 13.177V13.2137" fill="#E90061"/>
</svg>
