<svg width="40" height="40" viewBox="0 0 40 40" fill="none" xmlns="http://www.w3.org/2000/svg">
<path d="M19.9971 8.69531C10.353 8.69531 4 13.7554 4 20.0026C4 26.2439 10.353 31.3098 19.9971 31.3098C29.6411 31.3098 36 26.2498 36 20.0026C36 13.7554 29.6411 8.69531 19.9971 8.69531Z" fill="white"/>
<path d="M22.847 24.222C25.5974 23.7459 34.8712 21.8359 33.7252 16.5408C33.3139 14.6425 31.3627 12.5562 28.4125 11.1046C26.0558 10.0468 23.182 9.42969 19.9555 9.42969C11.0049 9.42969 4.78125 14.1606 4.78125 20.0023C4.78125 24.0692 7.802 27.5953 12.6622 29.3643C13.6966 26.6492 17.7987 25.0976 22.847 24.222Z" fill="#007DC5"/>
<path d="M20.0211 26.097C16.0071 26.6024 14.1617 27.8954 12.9805 29.4704C15.0256 30.1697 17.3823 30.5635 19.9623 30.5635C28.9188 30.5635 35.1425 25.8326 35.1425 19.9967C35.1425 19.4796 35.0954 18.9683 34.9955 18.4746C34.6958 25.333 24.4111 25.5505 20.0211 26.097Z" fill="url(#paint0_linear_622_3123)"/>
<path d="M11.3234 14.4834H8.32031L8.35557 14.5716C8.49074 14.8948 8.47899 15.4884 8.47311 16.0114C8.47311 16.1348 8.46724 22.9403 8.46724 22.9403H8.52601C8.53776 22.9403 9.89534 22.9873 11.1765 22.9873C13.8564 22.9873 15.6606 21.1714 15.6606 18.4621C15.6606 16.0467 13.9563 14.4834 11.3234 14.4834ZM9.75429 15.2356C9.92472 15.2239 10.4595 15.1828 10.8415 15.1828C13.1335 15.1828 14.2031 16.2935 14.2031 18.6795C14.2031 21.1479 13.257 22.3468 11.2999 22.3468C9.87183 22.3468 9.75429 22.2762 9.75429 21.43V15.2356Z" fill="white"/>
<path d="M23.7173 22.8818C23.6702 22.3823 23.6526 22.0473 23.6526 21.7535V18.7915H22.2245L22.2715 18.8796C22.2715 18.8796 22.4184 19.1676 22.4184 19.7906C22.4184 19.8141 22.4243 21.8475 22.3656 22.3294C22.0188 22.4176 21.5604 22.4469 21.2607 22.4469C18.9981 22.4469 17.8462 21.1481 17.8462 18.5858C17.8462 16.6288 19.1391 15.1713 20.9903 15.0361C21.9659 14.9656 22.9004 15.2301 23.4881 15.7472L23.588 15.8354V14.6365L23.5409 14.6247C22.9532 14.5131 22.2656 14.3896 21.5898 14.3896C18.3281 14.3896 16.3828 16.1057 16.3828 18.9737C16.3828 22.0356 18.7571 23.1228 20.9845 23.1228C21.9248 23.1228 22.9004 23.0523 23.6585 22.9289L23.7173 22.9171V22.8818Z" fill="white"/>
<path d="M28.8139 18.2917C29.6308 18.0742 30.4124 17.3572 30.4124 16.3053C30.4124 15.1593 29.3781 14.4775 27.6503 14.4775H25.082L25.0997 14.5539C25.0997 14.5598 25.1761 14.8948 25.1761 15.6764V23.005H25.2407C25.2525 23.005 26.2515 22.9874 27.4857 22.9874C29.6425 22.9874 30.8826 22.0471 30.8826 20.4133C30.8767 19.4024 30.0422 18.5561 28.8139 18.2917ZM26.4514 18.7089H27.1155C28.6435 18.7089 29.4192 19.3084 29.4192 20.4955C29.4192 21.7473 28.7492 22.3527 27.374 22.3527C26.7099 22.3527 26.4455 22.1117 26.4455 21.4946V18.7089H26.4514ZM26.4572 15.1475H27.2976C28.62 15.1475 29.1841 15.5471 29.1841 16.4816C29.1841 17.5453 28.4907 18.0448 27.0038 18.0448H26.4514L26.4572 15.1475Z" fill="white"/>
<defs>
<linearGradient id="paint0_linear_622_3123" x1="12.5988" y1="24.5219" x2="35.3069" y2="24.5219" gradientUnits="userSpaceOnUse">
<stop offset="0.1" stop-color="#007DC5"/>
<stop offset="0.1776" stop-color="#0080C8"/>
<stop offset="0.2861" stop-color="#0089CF"/>
<stop offset="0.4" stop-color="#0095DA"/>
<stop offset="0.75" stop-color="#00B49D"/>
<stop offset="1" stop-color="#72BF44"/>
</linearGradient>
</defs>
</svg>
