<svg width="40" height="40" viewBox="0 0 40 40" fill="none" xmlns="http://www.w3.org/2000/svg">
<path d="M23.9863 14.1348C23.2598 14.1348 20.8359 15.9161 20.8359 15.9161C20.8359 15.9161 23.2598 17.698 23.9863 17.698C24.9989 17.698 25.8429 17.0132 25.8429 15.9161C25.8429 14.819 24.9989 14.1348 23.9863 14.1348Z" fill="#38D200"/>
<path d="M15.745 29.9998C16.4715 29.9998 18.8953 28.2185 18.8953 28.2185C18.8953 28.2185 16.4736 26.4365 15.745 26.4365C14.7324 26.4365 13.8887 27.1213 13.8887 28.2185C13.8887 29.3156 14.734 29.9998 15.745 29.9998Z" fill="#0473EA"/>
<path d="M24.6194 20.1242L18.3452 15.9533L21.9708 13.4143C22.8081 12.8279 23.0683 11.6703 22.4955 10.8219C22.2211 10.4131 21.7955 10.1301 21.3125 10.035C20.8294 9.93987 20.3283 10.0406 19.9195 10.3149L19.8904 10.3346L15.5587 13.3964C15.1498 13.6853 14.8175 14.0694 14.5906 14.5156C14.3636 14.9619 14.2488 15.4567 14.2562 15.9572C14.2635 16.4578 14.3928 16.949 14.6328 17.3884C14.8728 17.8277 15.2162 18.202 15.6334 18.4787L25.4394 24.9778C26.5544 23.2607 26.3384 21.2396 24.6194 20.1242Z" fill="#0473EA"/>
<path d="M14.5943 19.5605L25.4079 26.5127C25.821 26.7789 26.1116 27.1982 26.2158 27.6785C26.32 28.1588 26.2292 28.6608 25.9634 29.0742C25.6972 29.4874 25.2779 29.778 24.7976 29.8822C24.3173 29.9863 23.8153 29.8956 23.4019 29.6298L15.7081 24.6845C14.8812 24.1527 14.2994 23.3143 14.0905 22.3536C13.8817 21.3929 14.0629 20.3886 14.5943 19.5615V19.5605Z" fill="#38D200"/>
</svg>
