<svg width="40" height="40" viewBox="0 0 40 40" fill="none" xmlns="http://www.w3.org/2000/svg">
<path d="M29 20C29 21.7795 28.4725 23.519 27.4842 24.9987C26.4958 26.4785 25.091 27.632 23.4473 28.3136C21.8036 28.9952 19.9947 29.1742 18.2492 28.8281C16.5038 28.4819 14.9001 27.6261 13.6409 26.3688C12.3817 25.1115 11.5234 23.5091 11.1746 21.7642C10.8258 20.0193 11.0021 18.2101 11.6812 16.5654C12.3602 14.9206 13.5117 13.514 14.9899 12.5235C16.4681 11.5329 18.2068 11.0027 19.9863 11C21.1693 10.9982 22.3411 11.2297 23.4346 11.6812C24.5281 12.1326 25.5219 12.7953 26.3591 13.6312C27.1963 14.4671 27.8604 15.4599 28.3136 16.5527C28.7667 17.6455 29 18.817 29 20Z" fill="white"/>
<path d="M19.9871 28.5817C21.6848 28.5831 23.3447 28.0809 24.7568 27.1387C26.169 26.1966 27.27 24.8567 27.9206 23.2887C28.5712 21.7207 28.7422 19.995 28.4118 18.3298C28.0814 16.6646 27.2646 15.1349 26.0647 13.934C24.8648 12.7331 23.3357 11.9151 21.6707 11.5834C20.0058 11.2517 18.28 11.4212 16.7114 12.0706C15.1429 12.7199 13.8022 13.8199 12.8589 15.2313C11.9156 16.6427 11.4121 18.3022 11.4121 19.9998C11.4112 21.1265 11.6324 22.2423 12.0629 23.2835C12.4934 24.3246 13.1249 25.2707 13.9212 26.0677C14.7176 26.8647 15.6632 27.497 16.704 27.9283C17.7449 28.3597 18.8605 28.5817 19.9871 28.5817Z" fill="#0083CA"/>
<mask id="mask0_622_3096" style="mask-type:luminance" maskUnits="userSpaceOnUse" x="11" y="11" width="18" height="18">
<path d="M19.9871 28.5817C21.6831 28.5817 23.341 28.0788 24.7512 27.1365C26.1613 26.1943 27.2604 24.855 27.9094 23.2882C28.5584 21.7213 28.7282 19.9971 28.3974 18.3338C28.0665 16.6704 27.2498 15.1424 26.0506 13.9432C24.8514 12.744 23.3234 11.9273 21.66 11.5964C19.9966 11.2655 18.2725 11.4354 16.7056 12.0844C15.1387 12.7334 13.7995 13.8325 12.8573 15.2426C11.915 16.6528 11.4121 18.3107 11.4121 20.0067C11.4139 22.2803 12.3179 24.4604 13.9257 26.0681C15.5334 27.6758 17.7135 28.5798 19.9871 28.5817Z" fill="white"/>
</mask>
<g mask="url(#mask0_622_3096)">
<path d="M20.0824 24.1407C23.8592 24.1407 27.0808 25.1963 28.4723 26.6837C28.9347 25.5864 29.168 24.4061 29.1578 23.2154C29.0927 20.8453 28.1055 18.5941 26.4061 16.9407C24.7068 15.2874 22.4294 14.3623 20.0584 14.3623C17.6874 14.3623 15.41 15.2874 13.7106 16.9407C12.0113 18.5941 11.024 20.8453 10.959 23.2154C10.9644 24.3947 11.2093 25.5607 11.6787 26.6426C13.0908 25.1963 16.3192 24.1407 20.0824 24.1407Z" fill="#0083CA"/>
<path d="M20.0823 24.1472C23.8454 24.1472 27.0602 25.1959 28.4517 26.6697C28.9099 25.5854 29.1431 24.4195 29.1371 23.2424C29.1371 20.8355 28.181 18.5271 26.479 16.8251C24.777 15.1232 22.4687 14.167 20.0617 14.167C17.6548 14.167 15.3464 15.1232 13.6444 16.8251C11.9425 18.5271 10.9863 20.8355 10.9863 23.2424C10.9873 24.4222 11.2324 25.5891 11.7061 26.6697C13.1318 25.1959 16.326 24.1472 20.0823 24.1472Z" fill="#0085CB"/>
<path d="M20.0817 24.1608C23.8311 24.1608 27.0459 25.1958 28.4237 26.6627C28.8877 25.5803 29.1211 24.413 29.1091 23.2354C29.0442 20.878 28.0621 18.6388 26.3718 16.9943C24.6814 15.3498 22.4161 14.4297 20.0577 14.4297C17.6994 14.4297 15.434 15.3498 13.7437 16.9943C12.0533 18.6388 11.0712 20.878 11.0063 23.2354C10.9943 24.413 11.2277 25.5803 11.6918 26.6627C13.1312 25.1958 16.3323 24.1608 20.0817 24.1608Z" fill="#0086CD"/>
<path d="M20.0815 24.1673C23.8241 24.1673 27.0251 25.1955 28.4029 26.6486C28.8619 25.5791 29.0953 24.4263 29.0883 23.2625C28.9974 20.9292 28.0065 18.7216 26.3235 17.1029C24.6405 15.4842 22.396 14.5801 20.0609 14.5801C17.7258 14.5801 15.4814 15.4842 13.7984 17.1029C12.1154 18.7216 11.1245 20.9292 11.0335 23.2625C11.0234 24.4244 11.2569 25.5756 11.719 26.6418C13.131 25.1955 16.3458 24.1673 20.0815 24.1673Z" fill="#0088CE"/>
<path d="M20.0824 24.1813C23.8113 24.1813 27.0055 25.1958 28.3832 26.6421C28.8416 25.582 29.075 24.4383 29.0687 23.2833C28.9779 20.9554 27.9892 18.753 26.31 17.1381C24.6308 15.5231 22.3916 14.6211 20.0618 14.6211C17.7321 14.6211 15.4929 15.5231 13.8137 17.1381C12.1345 18.753 11.1458 20.9554 11.055 23.2833C11.0451 24.4386 11.2786 25.5831 11.7404 26.6421C13.1319 25.1958 16.3536 24.1813 20.0824 24.1813Z" fill="#008ACF"/>
<path d="M20.0764 24.1879C23.8053 24.1879 26.9858 25.1955 28.3567 26.6281C28.8187 25.5788 29.0524 24.4432 29.0422 23.2968C29.0422 18.574 25.0186 14.6875 20.0559 14.6875C15.0932 14.6875 11.0764 18.574 11.0764 23.3036C11.067 24.4478 11.3006 25.581 11.7619 26.6281C13.1739 25.1955 16.3613 24.1879 20.0764 24.1879Z" fill="#008CD0"/>
<path d="M20.0762 24.1955C23.7914 24.1955 26.9719 25.2031 28.3359 26.6151C28.794 25.5766 29.0276 24.4531 29.0214 23.3181C29.0214 18.6296 25.0047 14.7637 20.0557 14.7637C15.1067 14.7637 11.1037 18.6365 11.1037 23.3181C11.0967 24.4532 11.3303 25.5769 11.7891 26.6151C13.1874 25.2031 16.3679 24.1955 20.0762 24.1955Z" fill="#008ED2"/>
<path d="M20.075 24.209C23.7833 24.209 26.9295 25.2029 28.3004 26.6081C28.7592 25.5771 28.9929 24.4601 28.9859 23.3316C28.9859 18.6842 24.9828 14.8457 20.075 14.8457C15.1671 14.8457 11.1641 18.6911 11.1641 23.3385C11.1611 24.4643 11.3947 25.5782 11.8495 26.6081C13.2067 25.2029 16.3804 24.209 20.075 24.209Z" fill="#008FD3"/>
<path d="M20.075 24.2156C23.7696 24.2156 26.9295 25.2027 28.3004 26.5942C28.7591 25.5752 28.9929 24.4694 28.9859 23.352C28.9859 18.7457 24.9897 14.9209 20.075 14.9209C15.1603 14.9209 11.1641 18.7457 11.1641 23.352C11.1611 24.469 11.3947 25.5739 11.8495 26.5942C13.2204 25.2027 16.3872 24.2156 20.075 24.2156Z" fill="#0091D4"/>
<path d="M20.0761 24.2291C23.7569 24.2291 26.9306 25.2025 28.2672 26.5871C28.7253 25.5752 28.9591 24.4762 28.9527 23.3655C28.9527 18.8004 24.9702 14.9961 20.0418 14.9961C15.1134 14.9961 11.1309 18.8004 11.1309 23.3655C11.1279 24.4758 11.3616 25.5741 11.8163 26.5871C13.2421 25.2025 16.3952 24.2291 20.0761 24.2291Z" fill="#0093D5"/>
<path d="M20.0749 24.2368C23.7489 24.2368 26.8951 25.2033 28.2455 26.5742C28.7001 25.5732 28.9339 24.4862 28.9309 23.3868C28.9309 18.856 24.9553 15.0723 20.0612 15.0723C15.167 15.0723 11.1914 18.8628 11.1914 23.3868C11.1884 24.4862 11.4222 25.5732 11.8769 26.5742C13.2546 25.2033 16.4009 24.2368 20.0749 24.2368Z" fill="#0095D7"/>
<path d="M20.068 24.2434C23.7351 24.2434 26.8745 25.203 28.218 26.5602C28.6759 25.57 28.9099 24.4911 28.9035 23.4002C28.9035 18.9105 24.9416 15.1748 20.0543 15.1748C15.167 15.1748 11.2188 18.9448 11.2188 23.4002C11.2161 24.4907 11.4499 25.5688 11.9042 26.5602C13.2751 25.203 16.4145 24.2434 20.068 24.2434Z" fill="#0097D8"/>
<path d="M20.0679 24.257C23.7282 24.257 26.8539 25.2029 28.1974 26.5533C28.6513 25.5715 28.8853 24.5024 28.8828 23.4207C28.8828 18.9722 24.9346 15.1953 20.061 15.1953C15.1875 15.1953 11.2461 18.9447 11.2461 23.4207C11.2437 24.5024 11.4776 25.5715 11.9316 26.5533C13.2888 25.2029 16.4213 24.257 20.0679 24.257Z" fill="#0099D9"/>
<path d="M20.0688 24.2636C23.7154 24.2636 26.8343 25.2095 28.1777 26.5393C28.6323 25.5674 28.8663 24.5071 28.8632 23.4342C28.8632 19.0267 24.9218 15.2979 20.062 15.2979C15.2021 15.2979 11.2676 19.0267 11.2676 23.4342C11.2645 24.5071 11.4985 25.5674 11.9531 26.5393C13.3103 25.2095 16.4291 24.2636 20.0688 24.2636Z" fill="#009BDA"/>
<path d="M20.0678 24.2771C23.7007 24.2771 26.8195 25.2093 28.1493 26.5322C28.603 25.5674 28.8371 24.5139 28.8347 23.4477C28.8347 19.0813 24.9071 15.373 20.0609 15.373C15.2148 15.373 11.2871 19.0814 11.2871 23.4545C11.2855 24.5185 11.5196 25.5695 11.9726 26.5322C13.3229 25.2093 16.4349 24.2771 20.0678 24.2771Z" fill="#009DDC"/>
<path d="M20.0696 24.2847C23.6957 24.2847 26.8008 25.2101 28.1306 26.5193C28.5841 25.5665 28.8183 24.5242 28.816 23.469C28.816 19.1369 24.8952 15.4492 20.0628 15.4492C15.2303 15.4492 11.3164 19.1438 11.3164 23.469C11.3171 24.5239 11.5511 25.5655 12.0019 26.5193C13.3453 25.2101 16.4504 24.2847 20.0696 24.2847Z" fill="#009FDD"/>
<path d="M20.0696 24.2914C23.6819 24.2914 26.7801 25.2099 28.1099 26.5054C28.5644 25.5627 28.7988 24.5291 28.7954 23.4825C28.7954 19.1985 24.8883 15.5244 20.0696 15.5244C15.2508 15.5244 11.3438 19.1985 11.3438 23.4825C11.3437 24.5287 11.5779 25.5616 12.0292 26.5054C13.359 25.2099 16.4572 24.2914 20.0696 24.2914Z" fill="#00A1DE"/>
<path d="M20.0627 24.3048C23.675 24.3048 26.7595 25.2096 28.0825 26.4983C28.5347 25.5646 28.7691 24.5404 28.7679 23.5029C28.7679 19.2531 24.8677 15.6064 20.0558 15.6064C15.2439 15.6064 11.3574 19.2531 11.3574 23.5029C11.3589 24.5401 11.5931 25.5637 12.0429 26.4983C13.3727 25.2096 16.464 24.3048 20.0627 24.3048Z" fill="#00A3DF"/>
<path d="M20.0626 24.3115C23.6612 24.3115 26.7389 25.2094 28.0618 26.4844C28.5153 25.5608 28.7498 24.5452 28.7473 23.5164C28.7473 19.3077 24.8608 15.6816 20.0626 15.6816C15.2644 15.6816 11.3848 19.3077 11.3848 23.5164C11.3856 24.5448 11.62 25.5597 12.0702 26.4844C13.3931 25.2094 16.4777 24.3115 20.0626 24.3115Z" fill="#00A5E1"/>
<path d="M20.0615 24.325C23.6465 24.325 26.7242 25.2092 28.0402 26.4773C28.4898 25.5622 28.7243 24.5564 28.7257 23.5367C28.7257 19.3623 24.846 15.7568 20.0615 15.7568C15.2771 15.7568 11.4043 19.3692 11.4043 23.5367C11.4057 24.5564 11.6402 25.5622 12.0897 26.4773C13.4058 25.2092 16.4835 24.325 20.0615 24.325Z" fill="#00A7E2"/>
<path d="M20.0624 24.3326C23.6405 24.3326 26.7045 25.2168 28.0206 26.4644C28.47 25.5589 28.7046 24.562 28.706 23.5512C28.706 19.4385 24.8401 15.833 20.0693 15.833C15.2986 15.833 11.4395 19.4248 11.4395 23.5512C11.4409 24.562 11.6755 25.5589 12.1249 26.4644C13.4273 25.2511 16.4912 24.3326 20.0624 24.3326Z" fill="#00A9E3"/>
<path d="M20.0614 24.3393C23.6258 24.3393 26.6829 25.2167 27.9921 26.4505C28.4416 25.5573 28.6763 24.5715 28.6776 23.5716C28.6776 19.4588 24.8253 15.9082 20.0683 15.9082C15.3112 15.9082 11.459 19.4794 11.459 23.5716C11.4603 24.5715 11.695 25.5573 12.1444 26.4505C13.4399 25.2509 16.4971 24.3393 20.0614 24.3393Z" fill="#00ABE5"/>
<path d="M20.0623 24.3528C23.6198 24.3528 26.6632 25.2164 27.9725 26.4434C28.4217 25.5575 28.6565 24.5784 28.6579 23.5851C28.6579 19.534 24.8125 15.9834 20.0692 15.9834C15.3259 15.9834 11.4805 19.534 11.4805 23.5851C11.4819 24.5784 11.7167 25.5575 12.1659 26.4434C13.4614 25.2507 16.5117 24.3528 20.0623 24.3528Z" fill="#00ADE6"/>
<path d="M20.0554 24.3595C23.6061 24.3595 26.6495 25.2163 27.9518 26.4158C28.3981 25.5386 28.6328 24.5691 28.6373 23.5849C28.6373 19.575 24.8056 16.0449 20.0691 16.0449C15.3326 16.0449 11.5078 19.5819 11.5078 23.5849C11.5125 24.5691 11.7472 25.5385 12.1933 26.4158C13.4751 25.2506 16.5185 24.3595 20.0554 24.3595Z" fill="#00AFE7"/>
<path d="M20.0554 24.3739C23.5992 24.3739 26.6289 25.217 27.9244 26.4302C28.3732 25.5663 28.6083 24.6072 28.6098 23.6336C28.6098 19.6648 24.785 16.1484 20.0622 16.1484C15.3395 16.1484 11.5215 19.6648 11.5215 23.6336C11.5262 24.6068 11.761 25.5651 12.2069 26.4302C13.4956 25.2513 16.5596 24.3739 20.0554 24.3739Z" fill="#00B2E9"/>
<path d="M20.0543 24.3805C23.5844 24.3805 26.6072 25.2167 27.9027 26.4368C28.3487 25.5791 28.5836 24.6274 28.5882 23.6608C28.5882 19.7331 24.7771 16.2373 20.068 16.2373C15.3589 16.2373 11.5547 19.7331 11.5547 23.6608C11.5592 24.6274 11.7942 25.5791 12.2401 26.4368C13.5082 25.251 16.5585 24.3805 20.0543 24.3805Z" fill="#00B4EA"/>
<path d="M20.0552 24.3872C23.5716 24.3872 26.5876 25.2166 27.8831 26.3956C28.328 25.5498 28.563 24.6094 28.5685 23.6538C28.5685 19.7604 24.7643 16.2852 20.0689 16.2852C15.3736 16.2852 11.5762 19.7604 11.5762 23.6538C11.5817 24.6094 11.8167 25.5498 12.2616 26.3956C13.5297 25.2509 16.5594 24.3872 20.0552 24.3872Z" fill="#00B6EB"/>
<path d="M20.0542 24.4008C23.5637 24.4008 26.566 25.2233 27.8546 26.3886C28.306 25.5452 28.5415 24.6033 28.5401 23.6467C28.5401 19.7945 24.7427 16.3467 20.0679 16.3467C15.3931 16.3467 11.5957 19.7739 11.5957 23.6467C11.5977 24.6028 11.8329 25.544 12.2812 26.3886C13.5424 25.2507 16.5584 24.4008 20.0542 24.4008Z" fill="#00B8ED"/>
<path d="M20.0482 24.4073C23.5509 24.4073 26.5532 25.223 27.835 26.3746C28.2798 25.5485 28.5151 24.6259 28.5205 23.6876C28.5205 19.8765 24.7299 16.4424 20.062 16.4424C15.394 16.4424 11.6172 19.8697 11.6172 23.6876C11.6225 24.6259 11.8579 25.5485 12.3026 26.3746C13.557 25.2505 16.5593 24.4073 20.0482 24.4073Z" fill="#01BBEE"/>
<path d="M20.0472 24.4218C23.543 24.4218 26.5316 25.2238 27.8134 26.3616C28.258 25.5453 28.4935 24.6316 28.4988 23.7021C28.4988 19.9321 24.722 16.5186 20.0678 16.5186C15.4135 16.5186 11.6504 19.9458 11.6504 23.7021C11.6557 24.6316 11.8912 25.5453 12.3358 26.3616C13.5765 25.2512 16.5582 24.4218 20.0472 24.4218Z" fill="#11BDF0"/>
<path d="M20.0481 24.4285C23.5302 24.4285 26.5119 25.2236 27.7869 26.3546C28.2306 25.5478 28.4662 24.6432 28.4723 23.7225C28.4723 19.9867 24.7092 16.5938 20.0687 16.5938C15.4282 16.5938 11.6719 19.9868 11.6719 23.7156C11.6772 24.6386 11.9128 25.5457 12.3573 26.3546C13.5911 25.251 16.5592 24.4285 20.0481 24.4285Z" fill="#1AC0F1"/>
<path d="M20.049 24.4351C23.5174 24.4351 26.4923 25.2234 27.7672 26.3407C28.2109 25.5438 28.4466 24.648 28.4527 23.736C28.4527 20.0414 24.6964 16.6689 20.0696 16.6689C15.4428 16.6689 11.6934 20.0414 11.6934 23.736C11.6985 24.6481 11.9343 25.5441 12.3788 26.3407C13.6126 25.2508 16.5601 24.4351 20.049 24.4351Z" fill="#1FC4F4"/>
<path d="M20.049 24.4624C23.5174 24.4624 26.4854 25.2438 27.7535 26.3542C28.1971 25.5623 28.4329 24.6709 28.4389 23.7632C28.4389 20.096 24.6895 16.7373 20.0695 16.7373C15.4496 16.7373 11.707 20.096 11.707 23.7632C11.7177 24.6703 11.9532 25.5605 12.3925 26.3542C13.6194 25.2506 16.56 24.4624 20.049 24.4624Z" fill="#32C5F4"/>
<path d="M20.048 24.4827C23.5095 24.4827 26.4776 25.2573 27.7456 26.3609C28.1859 25.5751 28.4216 24.6912 28.4311 23.7904C28.4311 20.1438 24.6885 16.8057 20.0686 16.8057C15.4486 16.8057 11.7129 20.1438 11.7129 23.7904C11.7223 24.6912 11.958 25.5751 12.3983 26.3609C13.6253 25.2504 16.5933 24.4827 20.048 24.4827Z" fill="#3FC7F4"/>
<path d="M20.0479 24.5041C23.4752 24.5041 26.4706 25.2718 27.7319 26.3685C28.175 25.5913 28.411 24.7133 28.4173 23.8186C28.4173 20.1926 24.6816 16.8818 20.0685 16.8818C15.4554 16.8818 11.7266 20.1926 11.7266 23.8186C11.7359 24.7128 11.9717 25.5901 12.412 26.3685C13.639 25.2512 16.6001 24.5041 20.0479 24.5041Z" fill="#4AC8F5"/>
<path d="M20.0489 24.5244C23.4761 24.5244 26.4579 25.2921 27.726 26.382C28.1654 25.6083 28.4012 24.7356 28.4114 23.8458C28.4114 20.2472 24.6825 16.9502 20.0763 16.9502C15.4701 16.9502 11.748 20.2472 11.748 23.839C11.7574 24.7311 11.9932 25.6061 12.4335 26.382C13.6468 25.2921 16.6079 24.5244 20.0489 24.5244Z" fill="#54CAF5"/>
<path d="M20.0488 24.5653C23.4761 24.5653 26.451 25.3262 27.7122 26.4092C28.1554 25.642 28.3916 24.7728 28.3977 23.8868C28.3977 20.3155 24.6688 17.0322 20.0694 17.0322C15.47 17.0322 11.7617 20.295 11.7617 23.8799C11.7742 24.765 12.01 25.6326 12.4472 26.4024C13.6536 25.3056 16.6079 24.5653 20.0488 24.5653Z" fill="#5CCCF5"/>
<path d="M20.0488 24.5652C23.4761 24.5652 26.4441 25.3261 27.7054 26.4022C28.1445 25.6383 28.3805 24.7745 28.3908 23.8935C28.3908 20.3428 24.6688 17.0869 20.0763 17.0869C15.4837 17.0869 11.7617 20.3428 11.7617 23.8798C11.772 24.7608 12.008 25.6246 12.4472 26.3885C13.6604 25.3261 16.6147 24.5652 20.0488 24.5652Z" fill="#64CDF6"/>
<path d="M20.0478 24.5651C23.4751 24.5651 26.4362 25.3122 27.6906 26.3815C28.1298 25.6251 28.3659 24.768 28.3761 23.8933C28.3761 20.3701 24.6609 17.1279 20.0752 17.1279C15.4896 17.1279 11.7812 20.3701 11.7812 23.8933C11.7831 24.7646 12.0072 25.6211 12.4324 26.3815C13.6663 25.3397 16.6205 24.5651 20.0478 24.5651Z" fill="#6CCFF6"/>
<path d="M20.0488 24.6138C23.4761 24.6138 26.4236 25.3609 27.6848 26.4165C28.1238 25.6675 28.36 24.817 28.3702 23.9489C28.3702 20.4462 24.6551 17.2314 20.0763 17.2314C15.4974 17.2314 11.7617 20.4531 11.7617 23.9489C11.771 24.8172 12.0073 25.6679 12.4472 26.4165C13.681 25.3609 16.6216 24.6138 20.0488 24.6138Z" fill="#73D1F6"/>
<path d="M20.0488 24.6342C23.4761 24.6342 26.4167 25.3744 27.6711 26.43C28.1098 25.6859 28.3461 24.8399 28.3565 23.9761C28.3565 20.494 24.6482 17.2998 20.0763 17.2998C15.5043 17.2998 11.7617 20.494 11.7617 23.9761C11.7721 24.8399 12.0084 25.6859 12.4472 26.43C13.6878 25.3744 16.6284 24.6342 20.0488 24.6342Z" fill="#7AD2F7"/>
<path d="M20.0477 24.6545C23.475 24.6545 26.4087 25.3948 27.6631 26.4367C28.087 25.6956 28.3113 24.8571 28.3143 24.0033C28.3143 20.5761 24.6128 17.3682 20.0477 17.3682C15.4826 17.3682 11.8223 20.5487 11.8223 24.0033C11.8252 24.8571 12.0496 25.6956 12.4735 26.4367C13.6936 25.3948 16.6341 24.6545 20.0477 24.6545Z" fill="#81D4F7"/>
<path d="M20.0476 24.6749C23.4749 24.6749 26.4018 25.4083 27.6493 26.4434C28.0877 25.7141 28.3242 24.8814 28.3347 24.0306C28.3347 20.6033 24.6333 17.4365 20.075 17.4365C15.5168 17.4365 11.8496 20.5965 11.8496 24.0237C11.86 24.8789 12.0965 25.716 12.5351 26.4502C13.7003 25.4083 16.6341 24.6749 20.0476 24.6749Z" fill="#88D6F8"/>
<path d="M20.0486 24.7021C23.4759 24.7021 26.3891 25.4287 27.6435 26.4569C28.0672 25.7257 28.2917 24.8961 28.2946 24.0509C28.2946 20.6237 24.6 17.5049 20.0692 17.5049C15.5383 17.5049 11.8438 20.6442 11.8438 24.0509C11.8467 24.8961 12.0712 25.7257 12.4949 26.4569C13.715 25.4287 16.6419 24.7021 20.0486 24.7021Z" fill="#8ED8F8"/>
<path d="M20.0476 24.7225C23.4749 24.7225 26.3812 25.4079 27.6287 26.4635C28.0642 25.7431 28.3008 24.9199 28.3141 24.0782C28.3141 20.6989 24.6264 17.5801 20.0887 17.5801C15.551 17.5801 11.8633 20.6989 11.8633 24.0782C11.8733 24.9204 12.1101 25.7444 12.5487 26.4635C13.7209 25.4422 16.6477 24.7225 20.0476 24.7225Z" fill="#94DAF8"/>
<path d="M20.0477 24.7439C23.475 24.7439 26.3744 25.4293 27.5877 26.4781C28.0249 25.7633 28.2616 24.9441 28.2731 24.1064C28.2731 20.7476 24.5854 17.6494 20.0477 17.6494C15.51 17.6494 11.8223 20.7476 11.8223 24.1064C11.8264 24.9405 12.051 25.7588 12.4735 26.4781C13.7278 25.4567 16.6479 24.7439 20.0477 24.7439Z" fill="#9BDCF9"/>
<path d="M20.0488 24.7642C23.476 24.7642 26.3686 25.4497 27.5887 26.4847C28.011 25.7728 28.2358 24.9613 28.2399 24.1336C28.2399 20.7954 24.559 17.7178 20.0145 17.7178C15.4699 17.7178 11.7891 20.8023 11.7891 24.1336C11.7932 24.9613 12.018 25.7728 12.4402 26.4847C13.7357 25.4771 16.6558 24.7642 20.0488 24.7642Z" fill="#A1DDF9"/>
<path d="M20.0488 24.7846C23.476 24.7846 26.3549 25.4701 27.5887 26.4914C28.0109 25.787 28.2358 24.982 28.2399 24.1609C28.2399 20.8501 24.5659 17.7861 20.0145 17.7861C15.4631 17.7861 11.7891 20.8501 11.7891 24.1609C11.794 24.9841 12.0188 25.7911 12.4402 26.4983C13.7494 25.4906 16.6626 24.7846 20.0488 24.7846Z" fill="#A7DFF9"/>
<path d="M20.0476 24.805C23.4749 24.805 26.3469 25.4904 27.5876 26.5049C28.0209 25.8086 28.2578 25.0081 28.273 24.1881C28.273 20.8979 24.6059 17.8545 20.0476 17.8545C15.4893 17.8545 11.8633 20.8979 11.8633 24.1881C11.8778 25.0082 12.1148 25.8089 12.5487 26.5049C13.7551 25.511 16.6615 24.8118 20.0476 24.805Z" fill="#ADE1FA"/>
<path d="M20.0475 24.8322C23.4336 24.8322 26.34 25.5176 27.5875 26.5115C28.0093 25.8196 28.2345 25.0257 28.2387 24.2153C28.2387 20.9457 24.5783 17.9297 20.0612 17.9297C15.5441 17.9297 11.8906 20.9525 11.8906 24.2084C11.8915 25.0205 12.1143 25.8169 12.535 26.5115C13.7619 25.5245 16.6682 24.8322 20.0475 24.8322Z" fill="#B3E3FA"/>
<path d="M20.0475 24.8536C23.4268 24.8536 26.3331 25.539 27.5875 26.5192C28.0069 25.8341 28.2298 25.0468 28.2318 24.2435C28.2318 21.0013 24.5783 17.999 20.068 17.999C15.5578 17.999 11.9043 21.0013 11.9043 24.2366C11.9087 25.0448 12.1339 25.8365 12.5555 26.526C13.7687 25.5458 16.6751 24.8536 20.0475 24.8536Z" fill="#B8E5FA"/>
<path d="M20.0474 24.8739C23.4267 24.8739 26.3193 25.5593 27.5874 26.5326C28.009 25.8506 28.2343 25.0656 28.2386 24.2638C28.2386 21.049 24.5851 18.0947 20.0817 18.0947C15.5783 18.0947 11.9316 21.0764 11.9316 24.2638C11.937 25.0645 12.1597 25.8487 12.576 26.5326C13.8166 25.5593 16.675 24.8739 20.0474 24.8739Z" fill="#BEE7FB"/>
<path d="M20.0484 24.8943C23.4209 24.8943 26.3135 25.5798 27.5473 26.5394C27.9635 25.863 28.1863 25.0854 28.1916 24.2911C28.1916 21.0969 24.545 18.1221 20.0484 18.1221C15.5519 18.1221 11.9121 21.0901 11.9121 24.2911C11.9142 25.0858 12.1373 25.8643 12.5564 26.5394C13.8177 25.5798 16.6829 24.8943 20.0484 24.8943Z" fill="#C4E9FB"/>
<path d="M20.0474 24.9147C23.413 24.9147 26.3056 25.6001 27.5326 26.5529C27.9509 25.8825 28.1741 25.1086 28.1769 24.3184C28.1769 21.1516 24.5371 18.2041 20.0474 18.2041C15.5577 18.2041 11.918 21.1516 11.918 24.3184C11.9244 25.1081 12.1472 25.881 12.5623 26.5529C13.8167 25.5933 16.6887 24.9215 20.0474 24.9147Z" fill="#CAEBFC"/>
<path d="M20.0474 24.9419C23.413 24.9419 26.2987 25.6274 27.5257 26.5596C27.9407 25.8952 28.1637 25.1289 28.17 24.3456C28.17 21.1993 24.5303 18.2725 20.0474 18.2725C15.5645 18.2725 11.9316 21.1993 11.9316 24.3456C11.9379 25.1289 12.1609 25.8952 12.576 26.5596C13.8166 25.6137 16.6887 24.9419 20.0474 24.9419Z" fill="#CFEDFC"/>
<path d="M20.0474 24.9632C23.4061 24.9632 26.285 25.6487 27.512 26.5672C27.9267 25.9103 28.1498 25.1506 28.1563 24.3738C28.1563 21.2481 24.5234 18.3486 20.0474 18.3486C15.5714 18.3486 11.9453 21.255 11.9453 24.3738C11.9503 25.152 12.171 25.9137 12.5828 26.5741C13.8166 25.6281 16.6955 24.9632 20.0474 24.9632Z" fill="#D5EFFC"/>
<path d="M20.0483 24.9836C23.4002 24.9836 26.2791 25.6691 27.5061 26.5807C27.9189 25.9284 28.1398 25.173 28.1435 24.401C28.1435 21.3028 24.5175 18.417 20.0483 18.417C15.5792 18.417 11.9531 21.3028 11.9531 24.401C11.9589 25.1737 12.1822 25.9291 12.5975 26.5807C13.8176 25.6417 16.7033 24.9836 20.0483 24.9836Z" fill="#DAF1FD"/>
<path d="M20.0483 25.004C23.4002 25.004 26.2722 25.6895 27.4923 26.5874C27.9066 25.9429 28.13 25.1943 28.1366 24.4282C28.1366 21.3505 24.5106 18.4854 20.0483 18.4854C15.586 18.4854 11.9668 21.3505 11.9668 24.4214C11.9701 25.1892 12.1912 25.9402 12.6043 26.5874C13.8175 25.662 16.7101 25.004 20.0483 25.004Z" fill="#E0F3FD"/>
<path d="M20.0482 25.0244C23.3933 25.0244 26.2584 25.6756 27.4854 26.6009C27.8934 25.9565 28.1141 25.2113 28.1229 24.4486C28.1229 21.4052 24.5037 18.5537 20.0482 18.5537C15.5928 18.5537 11.9805 21.4052 11.9805 24.4486C11.9849 25.2119 12.2059 25.9583 12.6179 26.6009C13.8175 25.6756 16.7101 25.0312 20.0482 25.0244Z" fill="#E6F5FD"/>
<path d="M20.0473 25.0516C23.3854 25.0516 26.2506 25.696 27.4707 26.6076C27.8825 25.9725 28.1037 25.2327 28.1082 24.4758C28.1082 21.453 24.4958 18.6221 20.0473 18.6221C15.5987 18.6221 11.9863 21.453 11.9863 24.4758C11.9938 25.2323 12.2148 25.9712 12.6238 26.6076C13.8508 25.696 16.716 25.0516 20.0473 25.0516Z" fill="#EBF7FE"/>
<path d="M20.0472 25.0729C23.3854 25.0729 26.2163 25.7104 27.457 26.6152C27.8705 25.9882 28.0943 25.2551 28.1013 24.504C28.1013 21.5017 24.4889 18.6982 20.0472 18.6982C15.6055 18.6982 12 21.5017 12 24.504C12.0052 25.2565 12.2265 25.9917 12.6375 26.6221C13.8576 25.7104 16.7228 25.0729 20.0472 25.0729Z" fill="#F1FAFE"/>
<path d="M20.0491 25.0933C23.3804 25.0933 26.2182 25.7308 27.452 26.6287C27.8596 26.0044 28.0808 25.2768 28.0895 24.5313C28.0895 21.5564 24.484 18.7666 20.0491 18.7666C15.6143 18.7666 12.0156 21.5564 12.0156 24.5313C12.0219 25.2762 12.2407 26.0038 12.6463 26.6287C13.8664 25.7308 16.7247 25.0933 20.0491 25.0933Z" fill="#F7FCFE"/>
<path d="M20.0481 25.1136C23.3726 25.1136 26.2172 25.7443 27.4373 26.6353C27.8437 26.0257 28.0651 25.3116 28.0748 24.579C28.0748 21.6247 24.4762 18.8555 20.0481 18.8555C15.6201 18.8555 12.0215 21.5973 12.0215 24.579C12.0312 25.3116 12.2525 26.0257 12.659 26.6353C13.8722 25.7443 16.7305 25.1136 20.0481 25.1136Z" fill="white"/>
</g>
<path d="M19.9871 22.1659C17.3174 22.1422 14.6647 22.5925 12.1523 23.4957C12.8263 25.0108 13.9251 26.2979 15.3157 27.2012C16.7062 28.1046 18.3289 28.5853 19.9871 28.5853C21.6453 28.5853 23.2679 28.1046 24.6584 27.2012C26.049 26.2979 27.1478 25.0108 27.8218 23.4957C25.3094 22.5925 22.6567 22.1422 19.9871 22.1659Z" fill="#0083CA"/>
</svg>
