<svg width="40" height="40" viewBox="0 0 40 40" fill="none" xmlns="http://www.w3.org/2000/svg">
<mask id="mask0_622_3093" style="mask-type:luminance" maskUnits="userSpaceOnUse" x="11" y="11" width="18" height="18">
<path d="M17.9687 27.629C16.9759 27.5313 15.7895 27.2189 14.7547 26.3221C13.8024 25.5027 13.2138 24.3734 12.9275 23.3772C12.6353 22.36 12.5124 21.1734 12.9957 21.2678C13.1447 21.2947 13.4024 21.949 13.6811 22.424C13.9699 22.9141 14.204 23.1869 14.4229 23.3536C14.5231 23.4286 14.8625 22.6749 15.3567 22.2446C15.6439 22.0054 15.9546 21.9254 16.0101 22.6337C16.0691 23.4993 15.9133 24.5309 16.1676 24.5309C16.4 24.5309 16.9355 24.3532 18.1068 24.253C18.5488 24.216 18.8014 24.2993 18.3804 24.8896C18.1699 25.1861 17.8904 25.6029 17.2252 26.0821C18.2213 27.0151 19.4153 26.9014 19.438 27.2981C19.4515 27.5271 19.006 27.6534 18.4217 27.6534C18.2777 27.6534 18.1253 27.645 17.9687 27.6282M21.3207 19.245C20.4088 19.0547 20.2219 18.2269 20.2219 18.2269C20.147 17.9347 20.1293 17.5659 20.1908 17.0951C20.3137 16.1116 20.5798 15.6518 20.8812 14.8888C21.2879 13.8657 20.3011 13.2669 20.4619 12.8922C20.685 12.3836 21.3889 13.0303 22.1779 13.0783C22.8557 13.1145 23.2633 13.0825 23.7895 13.1533C24.4901 13.245 25.3296 13.4834 25.7026 13.9213C26.0436 14.3229 25.5199 14.8105 24.8943 14.5057C24.4345 14.2817 23.8569 14.4181 24.1954 14.8973C24.6029 15.352 24.7983 15.3646 25.2168 15.4733C26.3628 15.7764 26.3863 16.8762 25.6083 17.4421C24.7284 18.0888 23.83 17.8202 23.4746 16.5537C23.2944 15.9204 22.8499 15.5996 22.3901 15.7798C21.9371 15.9583 22.2057 16.7903 22.5526 17.5625C23.1513 19.0926 21.9405 19.2535 21.4757 19.2535C21.4024 19.2535 21.3485 19.2501 21.3216 19.2467M20.6631 27.917C20.6556 27.7149 20.9511 27.6635 20.9511 27.6635C23.6144 27.1381 22.8355 25.3915 21.8942 24.5014C21.4976 24.1284 17.7927 20.9292 17.7927 20.9292C14.2596 17.8859 14.5425 15.5128 14.5425 15.5128C14.7168 12.589 17.2715 11.864 19.2081 12.0333C19.4346 12.0526 19.5618 12.1882 19.5188 12.3802C19.4784 12.5865 19.1778 12.6 19.1778 12.6C18.5615 12.6362 18.0108 12.6977 17.5923 12.9815C16.0337 14.0316 16.4901 15.816 18.5707 17.8033C18.8334 18.0518 19.1113 18.317 19.3984 18.5857C19.3984 18.5857 19.8127 18.9537 20.6471 19.7436C22.2478 21.2172 23.1227 22.0113 23.1227 22.0113C25.9434 24.36 24.9776 26.5082 23.9024 27.2526C23.0789 27.8227 22.1695 28.0896 20.9747 28.1545L20.9444 28.1562C20.8357 28.1562 20.6707 28.0896 20.664 27.917M19.5896 11.0093C14.6267 11.2333 10.7846 15.4421 11.0094 20.4071C11.2342 25.3713 15.4426 29.2147 20.4063 28.9907C25.3683 28.7667 29.2147 24.5595 28.9907 19.5945C28.7735 14.7659 24.7899 11.0008 20.003 11C19.8666 11 19.7285 11.0034 19.5904 11.0093" fill="white"/>
</mask>
<g mask="url(#mask0_622_3093)">
<path d="M10.7871 10.999H29.2164V29.2137H10.7871V10.999Z" fill="#0046FF"/>
</g>
</svg>
