<svg width="40" height="40" viewBox="0 0 40 40" fill="none" xmlns="http://www.w3.org/2000/svg">
<g clip-path="url(#clip0_622_3102)">
<path d="M23.7028 11L20.1135 12.7832L16.5293 11L20.1135 17.7491L23.7028 11Z" fill="#FDB913"/>
<path d="M24.9571 16.214L24.9013 16.1689L27.4615 15.1055V11.5566L23.0281 13.4201C23.0281 13.4201 20.6175 17.9345 20.5643 18.0373C21.5119 18.148 22.3811 18.6128 22.9938 19.3366C23.6066 20.0603 23.9167 20.9884 23.8607 21.931C23.8046 22.8735 23.3867 23.7592 22.6925 24.407C21.9982 25.0547 21.08 25.4155 20.1257 25.4155C19.1715 25.4155 18.2533 25.0547 17.559 24.407C16.8647 23.7592 16.4468 22.8735 16.3908 21.931C16.3348 20.9884 16.6449 20.0603 17.2576 19.3366C17.8704 18.6128 18.7395 18.148 19.6872 18.0373L17.2284 13.4201L12.7722 11.5566V15.118L15.3299 16.1814L15.2741 16.2266C14.1446 17.2017 13.3429 18.4947 12.976 19.9328C12.609 21.3708 12.6944 22.8854 13.2207 24.2741C13.747 25.6629 14.6891 26.8596 15.9212 27.7044C17.1533 28.5493 18.6166 29.0019 20.1156 29.0019C21.6146 29.0019 23.0779 28.5493 24.31 27.7044C25.542 26.8596 26.4842 25.6629 27.0105 24.2741C27.5367 22.8854 27.6221 21.3708 27.2552 19.9328C26.8883 18.4947 26.0865 17.2017 24.9571 16.2266V16.214Z" fill="#FDB913"/>
</g>
<defs>
<clipPath id="clip0_622_3102">
<rect width="14.7273" height="18" fill="white" transform="translate(12.75 11)"/>
</clipPath>
</defs>
</svg>
