<svg width="40" height="40" viewBox="0 0 40 40" fill="none" xmlns="http://www.w3.org/2000/svg">
<path d="M9.31836 16.709C10.314 16.6947 11.2999 16.9103 12.1982 17.3398C13.0966 17.7695 13.8831 18.4015 14.4971 19.1855L14.542 19.2354L12.8496 21.29L12.7793 21.2197C12.3308 20.7186 11.7853 20.3134 11.1758 20.0293C10.5661 19.7452 9.90467 19.5885 9.23242 19.5674C6.60015 19.5674 4.68652 21.5418 4.68652 24.2695C4.68665 26.9971 6.60024 28.9765 9.23242 28.9766C9.90467 28.9555 10.5661 28.7978 11.1758 28.5137C11.7853 28.2296 12.3309 27.8243 12.7793 27.3232L12.8496 27.2578L14.542 29.3076L14.4971 29.3633C13.8821 30.1458 13.0945 30.7755 12.1963 31.2041C11.2981 31.6327 10.3134 31.849 9.31836 31.835C7.34387 31.8806 5.4252 31.1764 3.94824 29.8652C2.4868 28.3701 1.66797 26.3623 1.66797 24.2715C1.66805 22.1808 2.48687 20.1728 3.94824 18.6777C5.42645 17.3689 7.34442 16.6659 9.31836 16.709ZM27.3623 16.9404H30.4111V19.6934H27.3623V27.4443C27.3623 28.5897 27.7942 29.0918 28.7637 29.0918C29.5539 29.0558 30.3186 28.8019 30.9736 28.3584L31.1748 28.2637L30.4316 31.0918H30.4014C29.6026 31.5756 28.6768 31.8083 27.7441 31.7598C25.7548 31.7196 24.4238 30.1869 24.4238 27.9414V19.6934H21.9121V16.9404H24.4238V13.9609L27.3623 12.3936V16.9404ZM19.249 31.5439H16.2549V16.9307H19.249V31.5439ZM36.4443 16.9307V31.5439H33.4512V16.9307H36.4443Z" fill="#004785"/>
<path d="M38.2083 14.3641C36.8682 12.454 35.0878 10.8947 33.0176 9.81819C30.9474 8.7417 28.6484 8.17969 26.3151 8.17969C23.9818 8.17969 21.6828 8.7417 19.6126 9.81819C17.5424 10.8947 15.762 12.454 14.4219 14.3641L14.2812 14.56H17.7224L17.7625 14.5199C18.8603 13.3525 20.1854 12.4222 21.6563 11.7863C23.1272 11.1504 24.7127 10.8223 26.3151 10.8223C27.9175 10.8223 29.503 11.1504 30.9739 11.7863C32.4448 12.4222 33.7699 13.3525 34.8676 14.5199L34.9078 14.56H38.3489L38.2083 14.3641Z" fill="#ED1C2E"/>
</svg>
