<svg width="40" height="40" viewBox="0 0 40 40" fill="none" xmlns="http://www.w3.org/2000/svg">
<path d="M11.1025 16.5H9.29585L6.44253 19.8211V16.5H5V23.7455H6.44253V20.4159L9.39004 23.7455H11.1966L7.98984 20.1227L11.1025 16.5Z" fill="#140064"/>
<path d="M34.9993 23.7455L32.8328 21.2393L34.9347 18.7331H33.3789L31.5469 20.9017V16.5H30.1055V23.7455H31.5469V21.5716L33.4139 23.7455H34.9993Z" fill="#140064"/>
<path d="M14.6521 18.5585C14.0457 18.5585 13.5281 18.8199 13.1027 19.1787V16.5H11.6602V21.2721C11.6602 22.7093 12.6127 23.9116 14.3992 23.9116C16.0068 23.9116 17.1382 22.8014 17.1382 21.2456C17.1382 19.7724 16.1645 18.5585 14.6521 18.5585ZM14.3992 22.6077C14.0424 22.6065 13.7001 22.4668 13.4443 22.218C13.1886 21.9692 13.0396 21.6308 13.0286 21.2742C13.0286 21.2615 13.0286 21.2488 13.0286 21.2361C13.0286 20.964 13.1093 20.698 13.2605 20.4717C13.4117 20.2455 13.6265 20.0691 13.8779 19.965C14.1293 19.8609 14.406 19.8336 14.6729 19.8867C14.9398 19.9398 15.1849 20.0708 15.3773 20.2632C15.5698 20.4557 15.7008 20.7008 15.7539 20.9677C15.807 21.2346 15.7797 21.5112 15.6756 21.7626C15.5715 22.014 15.3951 22.2289 15.1688 22.3801C14.9426 22.5313 14.6766 22.612 14.4045 22.612L14.3992 22.6077Z" fill="#140064"/>
<path d="M27.3337 18.5588C26.7186 18.5513 26.1237 18.7784 25.67 19.1938V18.7165H24.2285V23.7447H25.67V20.9263C25.67 20.6442 25.7821 20.3737 25.9815 20.1742C26.181 19.9747 26.4515 19.8627 26.7336 19.8627C27.0157 19.8627 27.2863 19.9747 27.4857 20.1742C27.6852 20.3737 27.7973 20.6442 27.7973 20.9263V23.7447H29.2483V20.5241C29.2483 20.504 29.2483 20.485 29.2483 20.4659C29.2444 19.96 29.0412 19.4761 28.6828 19.1191C28.3243 18.762 27.8396 18.5607 27.3337 18.5588Z" fill="#140064"/>
<path d="M20.589 18.5586C18.9633 18.5586 17.8203 19.6688 17.8203 21.2256C17.8203 22.6978 18.8046 23.9139 20.3339 23.9139C20.667 23.908 20.9944 23.8273 21.2921 23.6778C21.5898 23.5284 21.8501 23.3139 22.0537 23.0502V23.7445H23.3587V21.2288H23.347L23.3587 21.2002C23.3587 19.7641 22.3977 18.5586 20.589 18.5586ZM20.6197 22.5962C20.3475 22.5962 20.0815 22.5155 19.8553 22.3643C19.629 22.2132 19.4527 21.9983 19.3485 21.7469C19.2444 21.4955 19.2171 21.2188 19.2702 20.9519C19.3233 20.685 19.4544 20.4399 19.6468 20.2475C19.8392 20.0551 20.0843 19.924 20.3512 19.8709C20.6181 19.8178 20.8948 19.8451 21.1462 19.9492C21.3976 20.0534 21.6125 20.2297 21.7636 20.456C21.9148 20.6822 21.9955 20.9482 21.9955 21.2203C21.9958 21.401 21.9605 21.58 21.8916 21.747C21.8227 21.9141 21.7216 22.0659 21.594 22.1938C21.4665 22.3218 21.3149 22.4234 21.1481 22.4928C20.9813 22.5622 20.8024 22.598 20.6218 22.5983L20.6197 22.5962Z" fill="#140064"/>
</svg>
