<svg width="40" height="40" viewBox="0 0 40 40" fill="none" xmlns="http://www.w3.org/2000/svg">
<g clip-path="url(#clip0_622_3090)">
<path d="M29.6785 20.1818L29.5046 20.0762C28.9141 19.5044 28.0909 19.2561 26.9948 19.3174C26.0813 19.3723 25.356 19.7242 24.8025 20.0571C24.8025 20.0487 24.8025 20.0402 24.8025 20.0318C24.8088 19.7399 24.8302 19.4486 24.8667 19.1589C24.9043 18.8643 24.9261 18.568 24.9319 18.2711C24.9419 17.9961 24.8949 17.7219 24.7938 17.4648C24.7814 17.4347 24.7597 17.409 24.7316 17.3914C24.7036 17.3738 24.6706 17.3651 24.6372 17.3665C24.3414 17.3729 23.7673 17.5694 23.6248 17.6889L23.5487 17.8505C23.5487 18.1676 23.4726 19.0564 23.3997 19.1641L23.3606 19.2698C23.237 20.3795 23.233 21.4988 23.3486 22.6093C23.3617 22.7044 23.5509 22.8492 23.6977 22.901C23.8445 22.9528 24.3599 22.8281 24.6492 22.7213L24.7579 22.7055C24.7799 22.7025 24.801 22.6953 24.8201 22.6843C24.8391 22.6733 24.8557 22.6587 24.8689 22.6414C24.882 22.6241 24.8915 22.6043 24.8967 22.5834C24.902 22.5625 24.9028 22.5407 24.8993 22.5195L24.9047 22.2436C25.1146 21.4172 25.9617 20.4334 26.9621 20.2843C27.5287 20.1977 27.9756 20.3372 28.328 20.7071C28.3758 20.7736 28.4791 21.3676 28.1105 22.0513C27.8321 22.5575 27.2775 22.9824 26.5467 23.2497C25.8551 23.5044 25.0939 23.608 24.1544 23.5752L23.2703 22.9971C22.5265 22.4888 21.6011 21.8558 20.7605 21.5462C20.6137 21.4923 20.3484 21.2788 20.1907 21.1509L20.1037 21.0822C19.6198 20.7039 18.6988 20.1079 17.9582 19.6291L17.5591 19.3692V19.2878C17.5798 19.2656 18.0441 18.9951 18.0441 18.9951C18.6966 18.6252 18.9956 18.4434 19.0598 18.3494C19.0467 18.3641 19.1468 18.2997 19.1468 18.2997L20.7594 17.413C22.3069 16.5856 24.062 15.6471 24.9841 14.7203L25.0287 14.5787L25.0483 14.4529C25.1088 14.2824 25.1138 14.0979 25.0624 13.9245C25.0543 13.8957 25.0385 13.8694 25.0165 13.8484C24.9945 13.8274 24.9672 13.8125 24.9374 13.8051C24.2186 13.7364 23.2899 14.1549 22.445 14.9243C22.2897 15.064 22.1147 15.1814 21.9252 15.273L21.7958 15.3428C20.8649 15.8574 18.7662 17.1224 17.6635 17.8062C17.7678 16.4163 17.9548 15.0334 18.2236 13.6646L18.1931 13.5018L18.0844 13.2905L17.9985 13.1436L17.9735 13.1372C17.8918 13.0978 17.8029 13.0748 17.7119 13.0695C17.6209 13.0643 17.5297 13.0769 17.4439 13.1066L17.2264 13.1837L16.935 13.2894C16.9068 13.2948 16.8806 13.3074 16.8591 13.326C16.8377 13.3446 16.8218 13.3685 16.8132 13.3951C16.289 14.6273 15.8519 16.6564 15.754 18.2754C14.9471 17.7834 14.112 17.3363 13.2529 16.9364L13.2388 16.929L13.1812 16.9174C13.0115 16.8952 12.8027 16.7737 12.6016 16.6553L12.2036 16.4048L11.5979 16.0223C11.6044 16.0223 11.438 15.9874 11.438 15.9874C11.1759 16.0307 10.6768 16.3594 10.5257 16.5813C10.5068 16.61 10.4973 16.6435 10.4985 16.6775C10.501 16.725 10.5102 16.7719 10.5257 16.817L10.5528 16.9375L10.5811 17.0104C10.8725 17.301 11.6087 17.7861 12.3319 18.1644L13.1692 18.5956L14.4491 19.2793C14.4491 19.2846 14.6666 19.4474 14.6666 19.4474L14.8177 19.5319L14.8438 19.5478L12.5167 21.0611L11.2956 21.8505C11.0668 21.9731 10.8312 22.0832 10.5898 22.1802C10.3568 22.2573 10.1607 22.4144 10.0385 22.622L10.0059 22.6907L10.0396 22.7361L10.132 22.8048L10.2592 22.8851L10.393 22.975L10.5213 22.994C10.7388 23.0024 11.0563 22.883 11.6533 22.6294C12.197 22.3927 13.6901 21.5208 14.3262 21.1499L14.5981 20.9913C14.7068 20.9998 14.834 20.9079 14.9439 20.8265C15.1236 20.6961 15.3163 20.5836 15.5191 20.4904C15.5191 20.4904 15.6213 20.4365 15.7105 20.3847C15.7105 20.4133 15.7105 20.4566 15.7105 20.4566C15.7388 22.3483 15.8519 23.7232 16.0639 24.7831V24.8032L16.0846 24.8455C16.1933 24.9955 16.3086 25.4436 16.4108 25.8389L16.6533 26.6283C16.6533 26.6378 16.7229 26.7033 16.7229 26.7033C16.861 26.7932 17.2818 26.9506 17.5646 26.9147L17.6342 26.9062L17.6788 26.8101C17.7019 26.6909 17.7128 26.5699 17.7114 26.4486C17.7114 26.3039 17.7005 26.1443 17.6864 25.9498L17.6679 25.6645C17.5787 24.3488 17.4939 22.4402 17.4939 21.1721C17.4939 21.1372 17.4939 21.1055 17.4939 21.0664C17.7233 21.208 18.7347 21.8262 18.7347 21.8262C20.4539 22.9094 23.0507 24.5475 24.6198 24.9808C24.6589 24.9927 24.7006 24.9943 24.7405 24.9854C24.7805 24.9765 24.8173 24.9574 24.8471 24.93L25.0896 24.7789L25.1331 24.7609C25.2244 24.7197 25.2853 24.5718 25.2951 24.4111C26.6185 24.3477 28.4639 23.8521 29.4502 22.6463C29.8043 22.2096 29.9994 21.671 30.0048 21.115C30.0048 20.7145 29.8895 20.3668 29.6785 20.1766" fill="#F8B500"/>
</g>
<defs>
<clipPath id="clip0_622_3090">
<rect width="20" height="13.8462" fill="white" transform="translate(10 13.0771)"/>
</clipPath>
</defs>
</svg>
