<svg xmlns="http://www.w3.org/2000/svg" xmlns:xlink="http://www.w3.org/1999/xlink" width="52.471" height="44.424" viewBox="0 0 52.471 44.424">
  <defs>
    <linearGradient id="linear-gradient" x1="0.5" x2="0.736" y2="0.908" gradientUnits="objectBoundingBox">
      <stop offset="0" stop-color="#fff"/>
      <stop offset="1" stop-color="#fff" stop-opacity="0.584"/>
    </linearGradient>
  </defs>
  <g id="그룹_55126" data-name="그룹 55126" transform="translate(-652 -245)">
    <path id="패스_59" data-name="패스 59" d="M17.052,1.073,20.3,7.646A1.924,1.924,0,0,0,21.746,8.7L29,9.754a1.925,1.925,0,0,1,1.067,3.283l-5.249,5.117a1.925,1.925,0,0,0-.553,1.7L25.5,27.083a1.925,1.925,0,0,1-2.793,2.029L16.221,25.7a1.926,1.926,0,0,0-1.792,0L7.941,29.112a1.925,1.925,0,0,1-2.793-2.029l1.239-7.225a1.925,1.925,0,0,0-.553-1.7L.584,13.037A1.925,1.925,0,0,1,1.651,9.754L8.9,8.7a1.924,1.924,0,0,0,1.45-1.054L13.6,1.073a1.925,1.925,0,0,1,3.453,0" transform="translate(652 260.086)" fill="url(#linear-gradient)"/>
    <path id="패스_71" data-name="패스 71" d="M10.9.686l2.074,4.2a1.23,1.23,0,0,0,.927.673l4.637.673a1.23,1.23,0,0,1,.682,2.1L15.862,11.6a1.231,1.231,0,0,0-.354,1.089l.792,4.618a1.23,1.23,0,0,1-1.785,1.3l-4.147-2.18a1.231,1.231,0,0,0-1.145,0l-4.147,2.18a1.23,1.23,0,0,1-1.785-1.3l.792-4.618A1.231,1.231,0,0,0,3.728,11.6L.373,8.333a1.23,1.23,0,0,1,.682-2.1l4.637-.673a1.23,1.23,0,0,0,.927-.673L8.692.686a1.23,1.23,0,0,1,2.207,0" transform="translate(686.717 245) rotate(25)" fill="url(#linear-gradient)"/>
  </g>
</svg>
