<svg xmlns="http://www.w3.org/2000/svg" width="358" height="121" viewBox="0 0 358 121">
  <g id="그룹_55189" data-name="그룹 55189" transform="translate(-763.552 -1753.291)">
    <g id="빼기_1" data-name="빼기 1" transform="translate(763.552 1753.291)" fill="#fff">
      <path d="M 252.3005218505859 120.4999847412109 L 3.999606847763062 120.4987106323242 C 2.06992506980896 120.4987106323242 0.500015914440155 118.9283905029297 0.500015914440155 116.9982147216797 L 0.500015914440155 3.999621152877808 C 0.500015914440155 2.069893836975098 2.06992506980896 0.4999847412109375 3.999606847763062 0.4999847412109375 L 252.1853332519531 0.4999847412109375 C 252.1557159423828 0.8006460070610046 252.1407928466797 1.103641152381897 252.1407928466797 1.405802965164185 C 252.1407928466797 6.43916654586792 256.2361450195312 10.5341215133667 261.27001953125 10.5341215133667 C 266.3033752441406 10.5341215133667 270.3983459472656 6.43916654586792 270.3983459472656 1.405802965164185 C 270.3983459472656 1.103561282157898 270.3833923339844 0.8006028532981873 270.3537902832031 0.4999847412109375 L 354.0006103515625 0.4999847412109375 C 355.9302978515625 0.4999847412109375 357.5001831054688 2.069893836975098 357.5001831054688 3.999621152877808 L 357.5001831054688 116.9982147216797 C 357.5001831054688 118.9283905029297 355.9302978515625 120.4987106323242 354.0006103515625 120.4987106323242 L 270.2388610839844 120.4987106323242 C 270.3448181152344 119.9381942749023 270.3983459472656 119.3665237426758 270.3983459472656 118.7918930053711 C 270.3983459472656 113.7580337524414 266.3033752441406 109.662712097168 261.27001953125 109.662712097168 C 256.2361450195312 109.662712097168 252.1407928466797 113.7580337524414 252.1407928466797 118.7918930053711 C 252.1407928466797 119.3670043945312 252.1943969726562 119.9391326904297 252.3005218505859 120.4999847412109 Z" stroke="none"/>
      <path d="M 251.7160949707031 119.9999771118164 C 251.6660003662109 119.6003570556641 251.6407928466797 119.1968078613281 251.6407928466797 118.7918930053711 C 251.6407928466797 113.4823455810547 255.9604187011719 109.162712097168 261.27001953125 109.162712097168 C 266.5791015625 109.162712097168 270.8983459472656 113.4823455810547 270.8983459472656 118.7918930053711 C 270.8983459472656 119.1963348388672 270.8731689453125 119.5995025634766 270.8231811523438 119.9987106323242 L 354.0006103515625 119.9987106323242 C 355.6546020507812 119.9987106323242 357.0001831054688 118.6527099609375 357.0001831054688 116.9982147216797 L 357.0001831054688 3.999621152877808 C 357.0001831054688 2.345621109008789 355.6546020507812 0.9999847412109375 354.0006103515625 0.9999847412109375 L 270.8898620605469 0.9999847412109375 C 270.8955078125 1.135234832763672 270.8983459472656 1.270596861839294 270.8983459472656 1.405802965164185 C 270.8983459472656 6.714893817901611 266.5791015625 11.0341215133667 261.27001953125 11.0341215133667 C 255.9604187011719 11.0341215133667 251.6407928466797 6.714893817901611 251.6407928466797 1.405802965164185 C 251.6407928466797 1.270611524581909 251.6436309814453 1.135239601135254 251.6492767333984 0.9999847412109375 L 3.999606847763062 0.9999847412109375 C 2.345606803894043 0.9999847412109375 1.00001585483551 2.345621109008789 1.00001585483551 3.999621152877808 L 1.00001585483551 116.9982147216797 C 1.00001585483551 118.6527099609375 2.345606803894043 119.9987106323242 3.999606847763062 119.9987106323242 L 251.7160949707031 119.9999771118164 M 252.9259643554688 120.9999847412109 L 3.999606847763062 120.9987106323242 C 1.794243216514587 120.9987106323242 1.590243300597649e-05 119.2040786743164 1.590243300597649e-05 116.9982147216797 L 1.590243300597649e-05 3.999621152877808 C 1.590243300597649e-05 1.794211983680725 1.794243216514587 -1.52587890625e-05 3.999606847763062 -1.52587890625e-05 L 252.7547912597656 -1.52587890625e-05 C 252.6794738769531 0.4598029255867004 252.6407928466797 0.9323938488960266 252.6407928466797 1.405802965164185 C 252.6407928466797 6.163484573364258 256.5118408203125 10.0341215133667 261.27001953125 10.0341215133667 C 266.0277099609375 10.0341215133667 269.8983459472656 6.163484573364258 269.8983459472656 1.405802965164185 C 269.8983459472656 0.9345301985740662 269.8599853515625 0.4615756571292877 269.7843322753906 -1.52587890625e-05 L 354.0006103515625 -1.52587890625e-05 C 356.2059631347656 -1.52587890625e-05 358.0001831054688 1.794211983680725 358.0001831054688 3.999621152877808 L 358.0001831054688 116.9982147216797 C 358.0001831054688 119.2040786743164 356.2059631347656 120.9987106323242 354.0006103515625 120.9987106323242 L 269.6135559082031 120.9987106323242 C 269.8021850585938 120.2833938598633 269.8983459472656 119.5413055419922 269.8983459472656 118.7918930053711 C 269.8983459472656 114.0337600708008 266.0277099609375 110.162712097168 261.27001953125 110.162712097168 C 256.5118408203125 110.162712097168 252.6407928466797 114.0337600708008 252.6407928466797 118.7918930053711 C 252.6407928466797 119.5397567749023 252.7366027832031 120.2822570800781 252.9256134033203 120.9987106323242 L 252.9259643554688 120.9999847412109 Z" stroke="none" fill="#ff3787"/>
    </g>
    <path id="패스_302" data-name="패스 302" d="M0,0V96.076" transform="translate(1024.898 1766.052)" fill="none" stroke="#ff3787" stroke-linecap="round" stroke-width="1" stroke-dasharray="2 4"/>
  </g>
</svg>
