<svg width="210" height="45" viewBox="0 0 210 45" fill="none" xmlns="http://www.w3.org/2000/svg">
<path d="M18.3907 40.6119C8.25066 40.6119 0 32.3612 0 22.2212C0 12.0812 8.25066 3.83057 18.3907 3.83057C28.5307 3.83057 36.7813 12.0812 36.7813 22.2212C36.7813 32.3612 28.5307 40.6119 18.3907 40.6119ZM18.3907 5.28657C9.04799 5.28657 1.45601 12.8786 1.45601 22.2212C1.45601 31.5639 9.04799 39.1559 18.3907 39.1559C27.7333 39.1559 35.3253 31.5639 35.3253 22.2212C35.3253 12.8786 27.7333 5.28657 18.3907 5.28657Z" fill="#FF5A8D"/>
<path d="M19.7948 22.2213C16.3628 17.5413 10.5908 10.2267 20.7481 0C20.7481 0 7.48811 9.03067 16.9694 22.2213C20.3494 26.936 26.3468 34.528 16.0161 44.4427C16.0161 44.4427 29.3454 35.256 19.7948 22.2213Z" fill="#FF5A8D"/>
<path d="M32.2407 24.4573C31.8593 21.6146 29.7793 19.6386 26.5727 19.0146L26.3473 18.9626L26.434 18.7546C27.8207 15.6 27.4393 12.428 25.446 10.4693C22.118 7.19329 14.266 6.96796 8.73667 11.5786C5.92867 13.9186 4.90601 17.1426 4.88867 19.3613C4.88867 20.8866 5.32201 22.1346 6.08468 22.7933C8.45934 24.8213 11.8567 23.4693 13.226 22.776C12.0473 22.7066 9.63801 22.256 7.76601 19.9333C6.93401 18.8933 6.69134 17.42 7.10734 15.7733C7.714 13.3293 9.62067 11.1106 11.978 10.1053C16.7793 8.05996 21.3033 9.44663 23.2447 13.572C23.9553 15.0626 24.146 16.8306 23.8167 18.668V18.8066H23.6433C22.4993 18.876 21.3553 19.1013 20.246 19.448C16.2593 20.7133 14.734 23.036 14.9247 24.284C15.0287 24.9946 15.67 25.3933 16.658 25.3933C20.0207 25.3933 23.158 23.7293 25.2553 20.8173L25.342 20.696L25.4807 20.7653C26.5033 21.32 27.266 22.1 27.7513 23.0706C28.6527 24.908 28.618 27.0053 27.6473 28.964C26.3127 31.6506 23.5047 33.6266 19.8993 34.3546C15.15 35.3253 11.5447 34.1813 9.48199 32.76C10.782 34.06 13.2607 35.6893 17.6633 35.984C22.0833 36.2786 26.5033 34.528 29.502 31.304C31.5647 29.1026 32.57 26.5893 32.2753 24.4053M23.366 20.3146C22.742 22.0653 21.702 23.504 20.5233 24.2493C19.6393 24.804 18.7727 25.0293 18.0447 25.0293C17.2647 25.0293 16.6233 24.7693 16.2593 24.3533C15.7047 23.7293 15.774 22.88 16.45 22.0653C17.7327 20.488 20.5927 19.6386 23.2447 20.072L23.4527 20.1066L23.3833 20.3146H23.366Z" fill="#FF5A8D"/>
<path d="M9.44713 28.7907C9.6378 28.8427 9.82846 28.8947 9.98446 28.8081C10.0711 28.7561 10.1405 28.6694 10.2271 28.6521C10.3831 28.6001 10.6084 28.7387 10.7818 28.8774C10.7991 28.7387 10.7298 28.5827 10.6258 28.4441C10.3311 28.0107 9.91513 27.716 9.49913 27.56C9.1698 27.4387 8.84044 27.4041 8.52844 27.3867C8.44178 27.3867 8.37244 27.3867 8.28578 27.3867C7.40178 27.3867 6.5698 27.56 5.7898 27.872C5.56447 27.9587 5.33912 28.0627 5.14845 28.2534C5.06178 28.3401 4.95778 28.496 5.14845 28.5827C5.30445 28.652 5.44312 28.6347 5.58178 28.6174C6.25778 28.5481 6.89911 28.3747 7.60978 28.4267C8.19911 28.4614 8.78844 28.6521 9.39511 28.8081" fill="#FF5A8D"/>
<path d="M12.4796 29.0508C12.6703 28.9641 12.8783 28.8948 13.0689 28.8081C13.3289 28.6695 13.6063 28.5135 13.8489 28.3228C14.1263 28.1148 14.4209 27.9241 14.6116 27.6121C14.6116 27.6121 14.6289 27.5775 14.6463 27.5601C14.8023 27.3001 14.8543 26.9708 14.9409 26.6761C15.0276 26.3295 15.0622 25.9655 14.9756 25.6188C14.9582 25.5321 14.8889 25.4108 14.8196 25.3935C14.7329 25.3761 14.6116 25.3935 14.5422 25.4628C14.2649 25.7401 13.9876 26.0348 13.7276 26.3468C13.1382 27.0748 12.7049 27.9068 12.3409 28.7908C12.3236 28.8428 12.3062 28.8948 12.3236 28.9295C12.3236 29.0335 12.3929 29.0855 12.4969 29.0508" fill="#FF5A8D"/>
<path d="M14.5421 29.0853C14.2995 28.9293 13.7968 28.7213 13.6235 28.9813C13.4848 29.1719 13.5541 29.5533 13.4328 29.7439C13.2941 29.9693 13.1382 29.9519 12.8955 29.8479C12.6355 29.7439 12.4448 29.5359 12.2715 29.3279C12.2715 29.3279 12.2888 29.4319 12.3582 29.5706C12.7395 30.4892 14.0742 30.6799 14.6462 29.8999C14.8542 29.6226 14.9061 29.3279 14.5421 29.1026" fill="#FF5A8D"/>
<path d="M11.9089 29.5707C11.9089 29.5707 11.8222 29.4841 11.7702 29.4494C11.5449 29.3107 11.3022 29.2241 11.0422 29.1894C10.6089 29.1374 10.1755 29.2414 9.75953 29.3801C9.23953 29.5707 8.73687 29.8134 8.25154 30.0734C7.88754 30.2814 7.54086 30.5241 7.21152 30.7667C7.02086 30.9054 6.84753 31.0614 6.6742 31.2347C6.5702 31.3214 6.22353 31.5987 6.24086 31.7374C6.24086 31.7547 6.24087 31.7721 6.27554 31.7894C6.39687 31.8934 9.17019 32.1361 9.67285 31.9627C10.0195 31.8414 10.3662 31.7374 10.6955 31.5814C11.3022 31.3041 11.5795 30.5934 11.9262 30.0041C11.9782 29.9001 12.0129 29.7094 11.9609 29.6054C11.9609 29.5881 11.9435 29.5707 11.9262 29.5707" fill="#FF5A8D"/>
<path d="M11.7528 28.3227C11.8395 28.3227 11.9262 28.3053 11.9782 28.2533C11.9782 28.2533 11.9782 28.2707 11.9782 28.288C11.9435 28.808 11.5969 28.8427 11.6835 28.8427C11.8742 28.8427 11.9782 28.6867 12.0475 28.496C12.1169 28.34 12.1169 28.1493 12.0475 27.9933C12.0475 27.9933 12.0475 27.976 12.0475 27.9587C12.0475 27.9587 12.0475 27.9587 12.0475 27.9413C12.0302 27.9067 11.9955 27.872 11.9609 27.8373C11.9262 27.82 11.8915 27.8027 11.8569 27.8027C11.7009 27.7853 11.5622 27.8893 11.5449 28.0453C11.5275 28.2013 11.6315 28.34 11.7875 28.3573" fill="#FF5A8D"/>
<path d="M10.8684 28.028C10.8684 28.028 11.007 28.2014 11.0937 28.2707C11.163 28.3227 11.2324 28.3574 11.3017 28.392C11.3364 28.392 11.371 28.4267 11.4057 28.4267C11.4057 28.4267 11.4577 28.444 11.4404 28.4267C11.1977 28.2534 10.955 28.0107 10.903 27.7507C10.903 27.6814 10.903 27.612 10.903 27.56C10.9377 27.4907 11.007 27.4387 11.007 27.3694C11.007 27.2827 10.8857 27.2134 10.799 27.2307H10.7644C10.6604 27.248 10.6257 27.3347 10.6084 27.4214C10.591 27.5254 10.6083 27.6294 10.643 27.716C10.695 27.8374 10.7643 27.9414 10.8337 28.0454" fill="#FF5A8D"/>
<path d="M8.92662 26.0519C8.38929 25.8093 7.83461 25.3759 7.64394 25.0813C7.45328 24.7866 7.79995 24.7519 8.16395 24.6653C8.51062 24.5786 8.26794 24.6133 8.51061 24.5786C8.77061 24.5439 9.63729 24.8213 10.504 25.2199C11.3533 25.6013 11.9599 25.6186 12.0639 26.2946C12.1506 26.9706 12.012 27.1439 11.7693 27.2826C11.5266 27.4213 11.4053 26.9706 10.9373 26.9533C10.452 26.9359 10.4866 27.0919 10.2613 26.9013C10.0359 26.7106 9.48128 26.2773 8.94394 26.0346" fill="#FF5A8D"/>
<path d="M12.0809 30.5413C12.0809 30.5413 11.7516 32.0667 12.1503 32.6213C12.5489 33.176 13.1903 34.06 13.3289 33.0373C13.4676 32.0147 12.1849 29.7093 12.0809 30.5413Z" fill="#FF5A8D"/>
<path d="M59.0895 21.5975C60.7535 21.8055 62.0015 22.0482 62.8682 22.3255C65.4855 23.1922 66.8028 24.7175 66.8028 26.9189C66.8028 28.7735 65.8322 30.2469 63.8735 31.3215C62.8508 31.8935 61.7242 32.2402 60.5108 32.3962C59.9388 32.4655 58.7082 32.5002 56.8362 32.5002H43.7148V31.9975H46.2802C46.7135 31.9975 47.3722 31.8415 47.3722 31.1309V13.3122C47.3722 12.7229 46.9215 12.4455 46.3322 12.4455H43.7148V11.9429H54.8255C57.5295 11.9429 59.4882 12.0469 60.7015 12.2549C64.3415 12.8789 66.1788 14.4215 66.1788 16.8829C66.1788 18.1309 65.6242 19.1882 64.4975 20.0722C63.3708 20.9389 61.5682 21.4415 59.1068 21.5629L59.0895 21.5975ZM51.6362 12.9482V21.3375H52.2948C55.3975 21.3375 58.5695 21.1469 59.5575 20.7829C61.1002 20.1935 61.8802 19.0149 61.8802 17.2815C61.8802 15.6349 61.1002 14.3869 59.5575 13.5202C58.3095 12.8269 55.1548 12.4802 52.3815 12.4802H52.1388C51.9482 12.4802 51.6535 12.6709 51.6535 12.9655L51.6362 12.9482ZM51.6362 21.7709V31.5642C51.6362 31.8069 51.7922 31.9975 52.1042 31.9975H52.8148C54.3575 31.9975 56.4548 31.9629 57.1308 31.8762C58.4308 31.7202 59.4362 31.3735 60.1642 30.8535C61.4988 29.8829 62.1575 28.5482 62.1575 26.8495C62.1575 25.2722 61.5682 24.0762 60.4068 23.2615C58.9855 22.2735 55.5015 21.7709 52.2602 21.7709H51.6362Z" fill="#FF5A8D"/>
<path d="M80.8431 11.5613C83.1831 11.544 85.4884 12.272 87.7591 13.7627C91.0004 15.8773 92.6297 18.72 92.6297 22.308C92.6297 25.2893 91.3991 27.8027 88.9204 29.8827C86.5284 31.8933 83.8417 32.8813 80.8777 32.8813C79.0231 32.8813 77.1511 32.4133 75.2617 31.46C73.0257 30.3507 71.3791 28.8253 70.3044 26.9187C69.4724 25.428 69.0391 23.7987 69.0391 22.0307C69.0391 20.072 69.6631 18.2693 70.8937 16.6227C72.0897 15.0107 73.7538 13.728 75.8858 12.7227C77.5324 11.96 79.1791 11.5787 80.8604 11.5613H80.8431ZM80.9818 12.0467C78.1391 11.9947 76.1111 13.156 74.8804 15.5133C73.9964 17.212 73.5457 19.4307 73.5457 22.1693C73.5457 28.9813 75.9897 32.396 80.8604 32.396C85.7311 32.396 88.1578 28.964 88.1578 22.1173C88.1578 19.448 87.7244 17.2813 86.8751 15.6173C85.6791 13.2773 83.7031 12.0813 80.9818 12.0467Z" fill="#FF5A8D"/>
<path d="M147.698 11.5613C150.038 11.544 152.344 12.272 154.614 13.7627C157.856 15.8773 159.468 18.72 159.468 22.308C159.468 25.2893 158.237 27.8027 155.758 29.8827C153.366 31.8933 150.697 32.8813 147.716 32.8813C145.861 32.8813 143.989 32.4133 142.1 31.46C139.864 30.3507 138.217 28.8253 137.142 26.9187C136.31 25.428 135.877 23.7987 135.877 22.0307C135.877 20.072 136.501 18.2693 137.732 16.6227C138.928 15.0107 140.592 13.728 142.724 12.7227C144.37 11.96 146.017 11.5787 147.698 11.5613ZM147.837 12.0467C144.994 11.9947 142.966 13.156 141.718 15.5133C140.834 17.212 140.384 19.4307 140.384 22.1693C140.384 28.9813 142.828 32.396 147.698 32.396C152.569 32.396 154.996 28.964 154.996 22.1173C154.996 19.448 154.562 17.2813 153.713 15.6173C152.517 13.2773 150.541 12.0813 147.82 12.0467H147.837Z" fill="#FF5A8D"/>
<path d="M96.5304 13.052C96.5304 12.8093 96.2704 12.4626 95.7157 12.4626H93.0291V11.96H100.794L107.953 26.676L114.332 11.96H122.409V12.4626H119.774C119.341 12.4626 118.752 12.688 118.752 13.26V31.0613C118.752 31.7026 119.046 31.9973 119.636 31.9973H122.409V32.5H110.692V31.9973H113.274C113.864 31.9973 114.332 31.772 114.332 31.1826V13.52L106.254 32.084L97.1544 14.2133V31.1306C97.1544 31.876 97.3104 31.9973 98.0037 31.9973H101.158V32.5H92.873V31.9973H95.6291C96.3744 31.9973 96.5651 31.6853 96.5651 31.1306V13.052H96.5304Z" fill="#FF5A8D"/>
<path d="M123.759 11.9775H135.459V12.4802H132.842C132.201 12.4802 131.785 12.6882 131.785 13.2082V31.1829C131.785 31.9455 132.339 32.0149 132.755 32.0149H135.442V32.5175H123.742V32.0149H126.377C126.827 32.0149 127.399 31.9109 127.399 31.1829V13.2082C127.399 12.8269 127.07 12.4802 126.446 12.4802H123.725V11.9775H123.759Z" fill="#FF5A8D"/>
<path d="M183.247 31.9453C182.814 31.824 182.467 31.564 182.121 31.252C179.694 28.9986 179.729 25.6533 177.267 23.452C176.141 22.4293 174.147 21.632 172.657 21.7706C174.615 21.58 177.146 21.2333 178.134 20.7133C179.815 19.8466 180.647 18.5813 180.647 16.8826C180.647 15.6173 180.179 14.5426 179.226 13.6586C178.047 12.5493 176.089 11.9946 173.315 11.9946H160.385V12.4973H162.794C163.418 12.4973 163.73 12.844 163.73 13.4506V31.1826C163.73 31.8413 163.47 32.032 162.621 32.032H160.367V32.5346H171.651V32.032H168.757C168.306 32.032 168.063 31.824 168.063 31.2V22.048H168.375C175.534 22.048 174.407 32.5346 180.855 32.5346H183.941V32.032L183.213 31.98L183.247 31.9453ZM168.115 21.5453V13.104C168.115 12.7746 168.254 12.4626 168.757 12.4626H169.363C170.854 12.4626 171.062 12.48 171.599 12.532C172.813 12.6706 173.749 12.948 174.442 13.3986C175.69 14.2133 176.297 15.4266 176.297 17.056C176.297 20.0546 172.397 21.5453 168.445 21.5453H168.115Z" fill="#FF5A8D"/>
<path d="M194.515 11.6479H195.833L205.522 31.304C205.522 31.304 205.921 31.9973 206.579 31.9973H209.093V32.5H197.185V31.9973H200.149C200.703 31.9973 200.495 31.2866 200.495 31.2866L197.947 26.1386C197.947 26.1386 197.757 25.7746 197.41 25.7746H189.055C188.674 25.7746 188.553 26.0693 188.553 26.0693L186.854 29.7093C186.525 30.4026 186.369 30.8706 186.369 31.1306C186.369 31.7199 187.253 32.0146 189.038 32.0146H189.835V32.5173H182.33V32.0146H183.179C184.081 32.0146 184.757 31.7893 185.19 31.356C185.381 31.148 185.675 30.5933 186.109 29.6746L194.498 11.6826L194.515 11.6479ZM189.315 25.2719H197.185C197.566 25.2719 197.393 24.9253 197.393 24.9253C197.393 24.9253 193.562 17.0213 193.337 16.6226C193.094 16.224 192.921 16.6226 192.921 16.6226L189.09 25.012C189.09 25.012 188.969 25.2893 189.315 25.2893V25.2719Z" fill="#FF5A8D"/>
</svg>
