<svg width="276" height="36" viewBox="0 0 276 36" fill="none" xmlns="http://www.w3.org/2000/svg">
<path d="M25.5957 16.7109C28.3618 17.0452 30.4539 17.4496 31.872 17.9134C36.2395 19.3476 38.4233 21.898 38.4233 25.5646C38.4233 28.6488 36.8003 31.0914 33.5597 32.8923C31.8558 33.8467 29.9956 34.4344 27.9628 34.6716C26.9977 34.7903 24.9595 34.8442 21.8429 34.8442H0V34.0192H4.26506C4.99837 34.0192 6.09295 33.755 6.09295 32.5903V2.95599C6.09295 1.96387 5.34345 1.52712 4.36211 1.52712H0V0.702148H18.4891C22.9806 0.702148 26.2428 0.874692 28.2702 1.22517C34.3415 2.27661 37.3772 4.84319 37.3772 8.93032C37.3772 11.0116 36.4444 12.7802 34.5788 14.2306C32.7132 15.6811 29.7152 16.506 25.5957 16.7055V16.7109ZM13.1942 2.31974V16.285H14.3049C19.4597 16.285 24.7546 15.9722 26.3776 15.3522C28.9549 14.3708 30.2436 12.4243 30.2436 9.51804C30.2436 6.77891 28.9549 4.68683 26.3776 3.25256C24.2963 2.10407 19.0445 1.52172 14.4289 1.52172H14.0192C13.6902 1.52172 13.1996 1.83985 13.1996 2.31435L13.1942 2.31974ZM13.1942 17.0075V33.2913C13.1942 33.7011 13.453 34.0192 13.9814 34.0192H15.1676C17.7234 34.0192 21.2336 33.9545 22.3498 33.8197C24.5066 33.5555 26.1889 32.9839 27.3859 32.1158C29.6074 30.4928 30.7181 28.2767 30.7181 25.4567C30.7181 22.8308 29.7476 20.8466 27.8064 19.4932C25.4286 17.8379 19.6376 17.0129 14.2402 17.0129H13.1888L13.1942 17.0075Z" fill="url(#paint0_linear_81_26241)"/>
<path d="M61.8076 0.000850474C65.706 -0.0368934 69.5397 1.18169 73.3141 3.65122C78.7115 7.17218 81.4074 11.9063 81.4074 17.8591C81.4074 22.8089 79.3477 27.0093 75.2229 30.4655C71.2436 33.7978 66.7844 35.4693 61.8399 35.4693C58.7611 35.4693 55.6446 34.6767 52.4849 33.0914C48.7752 31.242 46.0253 28.7185 44.2405 25.5373C42.844 23.0516 42.1484 20.3448 42.1484 17.4115C42.1484 14.144 43.1729 11.1407 45.2273 8.40695C47.2169 5.73792 49.983 3.58111 53.5363 1.92578C56.2646 0.65866 59.0199 0.0170264 61.813 0.000850474H61.8076ZM62.0125 0.820426C57.2891 0.739546 53.903 2.66448 51.8486 6.59523C50.3658 9.41524 49.6271 13.1034 49.6271 17.6704C49.6271 29.0205 53.6873 34.6929 61.8076 34.6929C69.9279 34.6929 73.9557 28.9935 73.9557 17.5949C73.9557 13.1681 73.2494 9.56083 71.8259 6.77318C69.8309 2.87478 66.5633 0.890521 62.0125 0.820426Z" fill="url(#paint1_linear_81_26241)"/>
<path d="M173.046 0.000850474C176.944 -0.0368934 180.778 1.18169 184.552 3.65122C189.944 7.17218 192.64 11.9063 192.64 17.8591C192.64 22.8089 190.581 27.0093 186.456 30.4655C182.482 33.7978 178.023 35.4693 173.073 35.4693C169.999 35.4693 166.877 34.6767 163.723 33.0914C160.008 31.242 157.264 28.7185 155.479 25.5373C154.082 23.0516 153.387 20.3448 153.387 17.4115C153.387 14.144 154.417 11.1407 156.466 8.40695C158.455 5.73792 161.221 3.58111 164.775 1.92578C167.498 0.65866 170.258 0.0170264 173.051 0.000850474H173.046ZM173.251 0.820426C168.522 0.739546 165.136 2.66448 163.081 6.59523C161.599 9.41524 160.86 13.1034 160.86 17.6704C160.86 29.0205 164.92 34.6929 173.04 34.6929C181.161 34.6929 185.189 28.9935 185.189 17.5949C185.189 13.1681 184.477 9.56083 183.059 6.77318C181.064 2.87478 177.791 0.890521 173.251 0.820426Z" fill="url(#paint2_linear_81_26241)"/>
<path d="M87.8933 2.50847C87.8933 2.10946 87.462 1.52712 86.5238 1.52712H82.0484V0.702148H94.9622L106.862 25.1925L117.463 0.702148H130.894V1.52712H126.511C125.788 1.52712 124.801 1.91534 124.801 2.85354V32.4663C124.801 33.5285 125.303 34.0192 126.284 34.0192H130.894V34.8442H111.397V34.0192H115.7C116.687 34.0192 117.463 33.6418 117.463 32.655V3.27951L104.01 34.1702L88.8801 4.42261V32.5795C88.8801 33.8305 89.1497 34.0192 90.2928 34.0192H95.5553V34.8442H81.7734V34.0192H86.3512C87.586 34.0192 87.8933 33.4908 87.8933 32.5795V2.50847Z" fill="url(#paint3_linear_81_26241)"/>
<path d="M133.199 0.695312H152.675V1.52028H148.329C147.262 1.52028 146.582 1.86538 146.582 2.7281V32.632C146.582 33.8937 147.504 34.0124 148.2 34.0124H152.675V34.8373H133.199V34.0124H137.594C138.338 34.0124 139.298 33.8506 139.298 32.632V2.7281C139.298 2.10263 138.742 1.52028 137.723 1.52028H133.205V0.695312H133.199Z" fill="url(#paint4_linear_81_26241)"/>
<path d="M232.186 33.9222C231.458 33.7227 230.876 33.2859 230.321 32.7683C226.293 29.0047 226.331 23.4563 222.243 19.779C220.378 18.0913 217.051 16.7433 214.581 16.9805C217.844 16.6624 222.06 16.0801 223.71 15.2335C226.509 13.7993 227.905 11.6748 227.905 8.85482C227.905 6.75195 227.118 4.96181 225.543 3.47902C223.591 1.62957 220.313 0.702148 215.714 0.702148H194.184V1.52712H198.201C199.236 1.52712 199.759 2.09327 199.759 3.12314V32.6173C199.759 33.7011 199.338 34.0192 197.92 34.0192H194.184V34.8442H212.953V34.0192H208.149C207.405 34.0192 207.006 33.6687 207.006 32.6389V17.4119H207.518C219.434 17.4119 217.547 34.855 228.272 34.855H233.394V34.003L232.192 33.9222H232.186ZM207.006 16.6355V2.58394C207.006 2.02857 207.232 1.52712 208.057 1.52712H209.06C211.54 1.52712 211.875 1.57026 212.775 1.65114C214.786 1.87221 216.361 2.3467 217.509 3.08001C219.574 4.4334 220.604 6.46079 220.604 9.16757C220.604 14.1444 214.123 16.6355 207.534 16.6355H207H207.006Z" fill="url(#paint5_linear_81_26241)"/>
<path d="M250.945 0.166992H253.139L269.261 32.8748C269.261 32.8748 269.935 34.0178 271.024 34.0178H275.214V34.8428H255.404V34.0178H260.327C261.259 34.0178 260.904 32.8424 260.904 32.8424L256.676 24.2638C256.676 24.2638 256.358 23.6652 255.77 23.6652H241.87C241.244 23.6652 241.045 24.1451 241.045 24.1451L238.22 30.1949C237.68 31.3488 237.411 32.1414 237.411 32.562C237.411 33.5326 238.894 34.0232 241.854 34.0232H243.175V34.8482H230.703V34.0232H232.121C233.636 34.0232 234.747 33.6566 235.464 32.9233C235.772 32.589 236.273 31.6562 236.99 30.1194L250.95 0.172373L250.945 0.166992ZM242.285 22.8349H255.371C256.018 22.8349 255.727 22.2579 255.727 22.2579C255.727 22.2579 249.365 9.1069 248.966 8.42751C248.572 7.75351 248.27 8.41134 248.27 8.41134L241.902 22.3712C241.902 22.3712 241.692 22.8295 242.291 22.8295L242.285 22.8349Z" fill="url(#paint6_linear_81_26241)"/>
<defs>
<linearGradient id="paint0_linear_81_26241" x1="19.2116" y1="3.81871" x2="19.2116" y2="33.7388" gradientUnits="userSpaceOnUse">
<stop stop-color="#EF858C"/>
<stop offset="1" stop-color="#FF3787"/>
</linearGradient>
<linearGradient id="paint1_linear_81_26241" x1="61.7752" y1="3.82377" x2="61.7752" y2="33.7385" gradientUnits="userSpaceOnUse">
<stop stop-color="#EF858C"/>
<stop offset="1" stop-color="#FF3787"/>
</linearGradient>
<linearGradient id="paint2_linear_81_26241" x1="173.014" y1="3.82377" x2="173.014" y2="33.7385" gradientUnits="userSpaceOnUse">
<stop stop-color="#EF858C"/>
<stop offset="1" stop-color="#FF3787"/>
</linearGradient>
<linearGradient id="paint3_linear_81_26241" x1="106.334" y1="3.81871" x2="106.334" y2="33.7388" gradientUnits="userSpaceOnUse">
<stop stop-color="#EF858C"/>
<stop offset="1" stop-color="#FF3787"/>
</linearGradient>
<linearGradient id="paint4_linear_81_26241" x1="142.937" y1="3.81727" x2="142.937" y2="33.7374" gradientUnits="userSpaceOnUse">
<stop stop-color="#EF858C"/>
<stop offset="1" stop-color="#FF3787"/>
</linearGradient>
<linearGradient id="paint5_linear_81_26241" x1="213.783" y1="3.81871" x2="213.783" y2="33.7388" gradientUnits="userSpaceOnUse">
<stop stop-color="#EF858C"/>
<stop offset="1" stop-color="#FF3787"/>
</linearGradient>
<linearGradient id="paint6_linear_81_26241" x1="252.961" y1="3.81736" x2="252.961" y2="33.7375" gradientUnits="userSpaceOnUse">
<stop stop-color="#EF858C"/>
<stop offset="1" stop-color="#FF3787"/>
</linearGradient>
</defs>
</svg>
