<svg width="100" height="121" viewBox="0 0 100 121" fill="none" xmlns="http://www.w3.org/2000/svg">
<path d="M50 110.415C22.4278 110.415 0 87.9876 0 60.4154C0 32.8431 22.4278 10.4153 50 10.4153C77.5723 10.4153 100 32.8431 100 60.4154C100 87.9876 77.5723 110.415 50 110.415ZM50 14.3794C24.6124 14.3794 3.96406 35.0366 3.96406 60.4154C3.96406 85.7942 24.6212 106.46 50 106.46C75.3788 106.46 96.0359 85.803 96.0359 60.4154C96.0359 35.0278 75.3788 14.3794 50 14.3794Z" fill="url(#paint0_linear_771_16108)"/>
<path d="M53.8148 60.4123C44.486 47.6832 28.7795 27.8101 56.3958 0C56.3958 0 20.3493 24.5507 46.1245 60.4123C55.3299 73.2118 71.6354 93.8513 43.5347 120.825C43.5347 120.825 79.775 95.851 53.806 60.4123" fill="url(#paint1_linear_771_16108)"/>
<path d="M87.622 66.5072C86.5649 58.7905 80.9536 53.3994 72.2238 51.7257L71.616 51.6024L71.8627 51.0386C75.6065 42.4586 74.5758 33.8258 69.1671 28.5051C60.1202 19.5992 38.7672 19.009 23.7302 31.5354C16.0751 37.9043 13.3091 46.6517 13.2739 52.7123C13.2474 56.8349 14.4455 60.244 16.542 62.0411C22.999 67.5555 32.2221 63.8645 35.9571 61.9882C32.7418 61.8032 26.2231 60.5876 21.1139 54.2539C18.8412 51.4262 18.1893 47.4093 19.3081 42.9431C20.9641 36.3187 26.1527 30.2757 32.5392 27.5537C45.5765 21.9864 57.8828 25.7743 63.1594 36.9794C65.0709 41.0315 65.5994 45.8325 64.6921 50.8448L64.6217 51.2236L64.2429 51.25C61.1421 51.4438 58.0325 52.034 54.9934 53.003C44.1319 56.4649 39.9916 62.7722 40.5113 66.1461C40.8109 68.0664 42.5286 69.1675 45.2418 69.1675C54.3856 69.1675 62.9039 64.6397 68.6033 56.7292L68.8588 56.3769L69.2376 56.5794C72.0212 58.077 74.0826 60.1912 75.3863 62.8603C77.8264 67.8638 77.7295 73.5633 75.0956 78.8927C71.4927 86.213 63.8112 91.5601 54.0332 93.5597C41.1456 96.1936 31.3059 93.0928 25.6946 89.2081C29.227 92.7581 35.9571 97.1802 47.9286 97.9554C59.9264 98.7394 71.9508 93.9826 80.0903 85.244C85.684 79.2451 88.4236 72.4093 87.6132 66.4984M63.5381 55.2405C61.8292 60.015 59.0191 63.9174 55.8038 65.9434C53.4078 67.4498 51.0646 68.084 49.0649 68.084C46.9331 68.084 45.1889 67.3705 44.1847 66.2429C42.696 64.5604 42.881 62.2348 44.6868 60.015C48.1752 55.7162 55.9448 53.4346 63.1505 54.5886L63.7408 54.6855L63.547 55.2405H63.5381Z" fill="url(#paint2_linear_771_16108)"/>
<path d="M25.6983 78.287C26.2092 78.428 26.7554 78.5601 27.1606 78.3487C27.3985 78.2254 27.5658 77.9787 27.8389 77.9083C28.2882 77.7849 28.8519 78.1637 29.3452 78.5249C29.4069 78.1637 29.1955 77.7144 28.94 77.3445C28.1472 76.1641 26.9933 75.3448 25.8745 74.922C24.9848 74.5872 24.1039 74.4727 23.2494 74.4463C23.0292 74.4463 22.809 74.4463 22.5976 74.4463C20.2015 74.4815 17.9112 74.9308 15.8234 75.7676C15.198 76.0231 14.5901 76.305 14.1056 76.7807C13.8678 77.0097 13.6035 77.4502 14.1497 77.6704C14.5549 77.8378 14.9513 77.7937 15.3125 77.7585C17.1448 77.5471 18.9066 77.1154 20.8358 77.2564C22.4126 77.3621 24.0598 77.8554 25.6983 78.2958" fill="url(#paint3_linear_771_16108)"/>
<path d="M33.9282 78.953C34.4655 78.7416 35.0205 78.5478 35.5226 78.2747C36.245 77.8783 36.9761 77.4643 37.628 76.971C38.4032 76.3896 39.1695 75.8699 39.6893 75.0506C39.7157 75.0066 39.7421 74.9626 39.7686 74.9185C40.1826 74.1962 40.3411 73.3329 40.5614 72.5313C40.8168 71.5975 40.8785 70.6197 40.6495 69.6331C40.5966 69.4041 40.4116 69.0781 40.2266 69.0165C40.0064 68.9548 39.6452 69.0517 39.4867 69.2102C38.7203 69.9854 37.9539 70.7606 37.2844 71.6063C35.6812 73.606 34.492 75.8523 33.5406 78.2307C33.4966 78.354 33.4613 78.495 33.4701 78.6271C33.4877 78.9002 33.6463 79.0411 33.9194 78.9442" fill="url(#paint4_linear_771_16108)"/>
<path d="M39.5258 79.0646C38.8651 78.6593 37.4909 78.0867 37.0152 78.765C36.6628 79.276 36.8126 80.3066 36.4867 80.8352C36.1079 81.443 35.7115 81.4077 35.0244 81.1082C34.3372 80.7999 33.7823 80.2626 33.3242 79.6988C33.3242 79.6988 33.3859 79.9631 33.5444 80.3507C34.5927 82.8524 38.2044 83.3457 39.7812 81.2228C39.7812 81.2228 39.79 81.2051 39.7988 81.1963C40.3714 80.4211 40.5036 79.6459 39.5346 79.0469" fill="url(#paint5_linear_771_16108)"/>
<path d="M32.3899 80.4C32.3106 80.2502 32.1697 80.1533 32.0287 80.0476C31.4385 79.66 30.7514 79.4134 30.0467 79.3253C28.8663 79.1755 27.6771 79.4662 26.5671 79.8626C25.1401 80.3647 23.7923 81.0166 22.4621 81.7302C21.4843 82.3204 20.5329 82.937 19.6344 83.6241C19.1235 84.0205 18.639 84.4345 18.1721 84.875C17.9079 85.1304 16.9477 85.8528 16.9917 86.2316C16.9917 86.2932 17.027 86.3373 17.071 86.3637C17.3881 86.6456 24.9198 87.3239 26.3117 86.8482C27.2366 86.5223 28.188 86.2404 29.0865 85.8352C30.7514 85.0688 31.5002 83.1396 32.4163 81.5716C32.5749 81.2897 32.6365 80.7876 32.4868 80.4969C32.4516 80.4352 32.4251 80.4088 32.3899 80.3912" fill="url(#paint6_linear_771_16108)"/>
<path d="M31.959 76.9812C32.1968 77.0164 32.4083 76.9284 32.5668 76.7698C32.5668 76.805 32.5844 76.8227 32.5844 76.8579C32.4875 78.2585 31.5274 78.3642 31.7652 78.3554C32.2761 78.3554 32.5668 77.915 32.7694 77.4305C32.9456 77.0253 32.9368 76.4879 32.787 76.0739C32.7782 76.0298 32.7694 76.0034 32.7518 75.9682C32.743 75.9417 32.7254 75.9241 32.7166 75.8977C32.6637 75.7832 32.5844 75.6863 32.4787 75.6158C32.4787 75.6158 32.4611 75.5894 32.4523 75.5806C32.3642 75.5277 32.2673 75.4925 32.1616 75.4749C31.7476 75.422 31.3688 75.7039 31.3071 76.1179C31.2543 76.5319 31.5362 76.9107 31.959 76.9636" fill="url(#paint7_linear_771_16108)"/>
<path d="M29.5519 76.1976C29.7369 76.4266 29.9395 76.6557 30.1773 76.8406C30.3535 76.9816 30.5473 77.0961 30.7499 77.1842C30.838 77.2194 30.9261 77.2547 31.023 77.2811C31.0406 77.2811 31.1904 77.334 31.1375 77.2723C30.4945 76.7878 29.8338 76.1623 29.684 75.4576C29.6488 75.2814 29.6576 75.0965 29.7281 74.9203C29.7985 74.7353 30.0011 74.5944 30.0276 74.4006C30.0628 74.1451 29.7104 73.9865 29.455 74.0041C29.4109 74.0041 29.3757 74.0041 29.3405 74.013C29.0762 74.0658 28.9441 74.286 28.9088 74.5239C28.856 74.7969 28.9264 75.07 29.0145 75.3167C29.1291 75.625 29.3228 75.9245 29.5519 76.1976Z" fill="url(#paint8_linear_771_16108)"/>
<path d="M24.2854 70.8428C22.8231 70.2086 21.3168 69.0105 20.8058 68.1913C20.2949 67.372 21.2375 67.3192 22.1977 67.0814C23.1666 66.8435 22.4707 66.9316 23.1667 66.8435C23.8626 66.7554 26.241 67.513 28.5754 68.5877C30.9098 69.6448 32.5483 69.6888 32.8037 71.5211C33.0592 73.3534 32.654 73.8203 31.9933 74.2079C31.3326 74.6043 31.0067 73.3798 29.7118 73.327C28.4168 73.2741 28.4785 73.7146 27.8618 73.1948C27.254 72.6839 25.7389 71.4771 24.2766 70.8428" fill="url(#paint9_linear_771_16108)"/>
<path d="M32.8573 83.0172C32.8573 83.0172 31.9764 87.1574 33.0599 88.655C34.1434 90.1525 35.87 92.5838 36.2576 89.8001C36.6363 87.0165 33.1656 80.7621 32.8573 83.0172Z" fill="url(#paint10_linear_771_16108)"/>
<defs>
<linearGradient id="paint0_linear_771_16108" x1="50" y1="24.3336" x2="50" y2="127.707" gradientUnits="userSpaceOnUse">
<stop stop-color="#EF858C"/>
<stop offset="1" stop-color="#D70040"/>
</linearGradient>
<linearGradient id="paint1_linear_771_16108" x1="50.0093" y1="24.3305" x2="50.0093" y2="127.704" gradientUnits="userSpaceOnUse">
<stop stop-color="#EF858C"/>
<stop offset="1" stop-color="#D70040"/>
</linearGradient>
<linearGradient id="paint2_linear_771_16108" x1="50.5184" y1="24.3296" x2="50.5184" y2="127.703" gradientUnits="userSpaceOnUse">
<stop stop-color="#EF858C"/>
<stop offset="1" stop-color="#D70040"/>
</linearGradient>
<linearGradient id="paint3_linear_771_16108" x1="21.5933" y1="24.3493" x2="21.5933" y2="127.688" gradientUnits="userSpaceOnUse">
<stop stop-color="#EF858C"/>
<stop offset="1" stop-color="#D70040"/>
</linearGradient>
<linearGradient id="paint4_linear_771_16108" x1="37.1347" y1="24.3194" x2="37.1347" y2="127.702" gradientUnits="userSpaceOnUse">
<stop stop-color="#EF858C"/>
<stop offset="1" stop-color="#D70040"/>
</linearGradient>
<linearGradient id="paint5_linear_771_16108" x1="36.7773" y1="24.3517" x2="36.7773" y2="127.69" gradientUnits="userSpaceOnUse">
<stop stop-color="#EF858C"/>
<stop offset="1" stop-color="#D70040"/>
</linearGradient>
<linearGradient id="paint6_linear_771_16108" x1="24.7789" y1="24.3217" x2="24.7789" y2="127.713" gradientUnits="userSpaceOnUse">
<stop stop-color="#EF858C"/>
<stop offset="1" stop-color="#FF3787"/>
</linearGradient>
<linearGradient id="paint7_linear_771_16108" x1="32.1" y1="24.3475" x2="32.1" y2="127.686" gradientUnits="userSpaceOnUse">
<stop stop-color="#EF858C"/>
<stop offset="1" stop-color="#FF3787"/>
</linearGradient>
<linearGradient id="paint8_linear_771_16108" x1="30.0188" y1="24.3299" x2="30.0188" y2="127.704" gradientUnits="userSpaceOnUse">
<stop stop-color="#EF858C"/>
<stop offset="1" stop-color="#FF3787"/>
</linearGradient>
<linearGradient id="paint9_linear_771_16108" x1="26.7784" y1="24.3223" x2="26.7784" y2="127.705" gradientUnits="userSpaceOnUse">
<stop stop-color="#EF858C"/>
<stop offset="1" stop-color="#FF3787"/>
</linearGradient>
<linearGradient id="paint10_linear_771_16108" x1="34.4077" y1="24.3314" x2="34.4077" y2="127.705" gradientUnits="userSpaceOnUse">
<stop stop-color="#EF858C"/>
<stop offset="1" stop-color="#FF3787"/>
</linearGradient>
</defs>
</svg>
