<svg width="16" height="15" viewBox="0 0 16 15" fill="none" xmlns="http://www.w3.org/2000/svg">
<path d="M1.65967 14.1797H14.2378C15.4878 14.1797 16.3081 12.7734 15.6831 11.6797L9.39404 0.820312C8.72998 -0.273438 7.16748 -0.273438 6.50342 0.820312L0.214355 11.6797C-0.410645 12.7734 0.409668 14.1797 1.65967 14.1797ZM7.94873 8.35938C7.47998 8.35938 7.12842 7.96875 7.12842 7.5V5.85938C7.12842 5.39062 7.47998 5 7.94873 5C8.41748 5 8.76904 5.39062 8.76904 5.85938V7.5C8.76904 7.96875 8.41748 8.35938 7.94873 8.35938ZM8.76904 11.6797H7.12842V10H8.76904V11.6797Z" fill="#FF5C8F"/>
</svg>
