<svg width="100" height="100" viewBox="0 0 100 100" fill="none" xmlns="http://www.w3.org/2000/svg">
<path d="M100 11.1111V88.8889C100 91.9444 98.75 94.7222 96.75 96.75C94.7222 98.75 91.9444 100 88.8889 100H11.1111C4.97222 100 0 95.0278 0 88.8889V11.1111C0 8.05556 1.25 5.27778 3.25 3.25C5.27778 1.25 8.05556 0 11.1111 0H88.8889C95.0278 0 100 4.97222 100 11.1111Z" fill="#8C9EFF"/>
<path d="M99.9997 11.1111V16.6667L83.333 0H88.8886C95.0275 0 99.9997 4.97222 99.9997 11.1111Z" fill="#1DE9B6"/>
<path d="M100 16.6667V33.3333L66.667 0H83.3337L100 16.6667Z" fill="#1EE4BC"/>
<path d="M100 33.3333V50L50 0H66.6667L100 33.3333Z" fill="#1FE0C2"/>
<path d="M99.9997 50V66.6667L33.333 0H49.9997L99.9997 50Z" fill="#20DBC7"/>
<path d="M100 66.6667V83.3333L16.667 0H33.3337L100 66.6667Z" fill="#21D6CD"/>
<path d="M100 83.3333V88.8889C100 91.9445 98.75 94.7222 96.75 96.75L3.25 3.25C5.27778 1.25 8.05556 0 11.1111 0H16.6667L100 83.3333Z" fill="#22D2D3"/>
<path d="M96.75 96.75C94.7222 98.75 91.9445 100 88.8889 100H83.3333L0 16.6667V11.1111C0 8.05556 1.25 5.27778 3.25 3.25L96.75 96.75Z" fill="#24CDD9"/>
<path d="M83.3333 100H66.6667L0 33.3337V16.667L83.3333 100Z" fill="#25C9DF"/>
<path d="M66.6667 99.9997H50L0 49.9997V33.333L66.6667 99.9997Z" fill="#26C4E5"/>
<path d="M50 100H33.3333L0 66.6667V50L50 100Z" fill="#27BFEA"/>
<path d="M33.3333 100H16.6667L0 83.3337V66.667L33.3333 100Z" fill="#28BBF0"/>
<path d="M16.6667 99.9997H11.1111C4.97222 99.9997 0 95.0275 0 88.8886V83.333L16.6667 99.9997Z" fill="#29B6F6"/>
<path d="M51.1949 86.1107C47.1477 86.1107 42.0866 85.6051 38.0393 83.0746C33.9921 80.544 23.3671 72.4496 21.8477 71.4385C20.331 70.4273 17.2949 67.3912 21.8477 62.8385C26.4004 58.2857 36.5199 47.1551 38.0393 45.6357C39.5588 44.1162 42.0866 42.5996 46.6393 43.6107C47.1449 41.5857 47.1449 36.5273 44.6143 33.4912C41.5782 35.5162 37.0254 44.6218 31.9643 44.6218C27.9171 44.6218 25.3866 42.0912 24.3754 40.5746C25.8921 41.0801 27.4116 40.5746 29.9421 37.5385C32.4727 34.5023 35.5088 31.9718 43.6032 32.4801C42.0866 29.444 42.0865 27.4218 42.0865 25.3968C42.0865 23.3718 44.6171 15.2773 53.2171 15.2773C60.806 15.2773 64.3477 21.3496 64.3477 23.3718C64.3477 25.3968 64.3477 28.9385 64.3477 29.444C64.3477 29.9496 65.3588 29.9496 65.3588 30.9607C65.3588 31.9718 65.3588 35.5135 64.3477 37.5385C63.8421 38.5496 62.831 39.0551 61.8171 39.0551C60.8032 39.0551 59.2866 39.0551 59.2866 39.0551L57.7699 47.6551C57.7699 47.6551 64.3477 52.2079 64.3477 57.7746C64.3477 63.3412 64.3477 73.9662 64.3477 73.9662L74.4671 66.3773C73.9616 65.3662 72.4421 61.8246 73.9616 59.7996C75.4782 57.7746 77.5032 57.269 78.5143 57.269C79.5254 57.269 80.5393 58.2801 80.5393 59.7996C80.5393 61.319 80.5393 65.3662 80.5393 66.3773C80.5393 67.3885 80.5393 67.894 79.5282 68.9079C78.5171 69.919 68.3977 80.544 66.3727 82.0635C64.3477 83.5829 58.7838 86.1107 51.1949 86.1107ZM40.0643 75.9912L37.0282 60.8135L29.9449 66.3801L40.0643 75.9912Z" fill="white"/>
</svg>
