<?xml version="1.0" encoding="UTF-8"?>
<svg version="1.1" xmlns="http://www.w3.org/2000/svg" width="512" height="434">
<path d="M0 0 C3.13918398 2.67588372 6.06543505 5.46497838 8.90429688 8.45507812 C10.60291888 10.18123605 12.33217748 11.72910861 14.1875 13.28125 C20.73028146 18.95659722 26.73256981 25.20968812 32.83203125 31.3515625 C34.09611975 32.62067623 35.36044081 33.88955839 36.625 35.15820312 C39.69669849 38.2408257 42.76523133 41.32656678 45.83203125 44.4140625 C49.7263493 42.83520775 52.31401912 40.17304515 55.19140625 37.21484375 C55.69947815 36.70157028 56.20755005 36.18829681 56.73101807 35.6594696 C58.35286774 34.01986551 59.96788785 32.37375097 61.58203125 30.7265625 C63.69835857 28.57338212 65.81795816 26.42350218 67.94140625 24.27734375 C68.4538237 23.75920105 68.96624115 23.24105835 69.4941864 22.70721436 C72.92190032 19.2651487 76.46246284 16.02211777 80.15966797 12.87475586 C82.60132714 10.74213589 84.79490176 8.39455255 87.01953125 6.0390625 C92.70113306 0.20834258 99.00064946 -4.20419261 105.83203125 -8.5859375 C106.9921875 -9.38257813 106.9921875 -9.38257813 108.17578125 -10.1953125 C133.83585316 -27.00085255 169.3928531 -31.83465123 199.20703125 -26.3984375 C233.95267743 -18.92550455 264.59003673 -0.52195466 284.26342773 29.49975586 C292.05685745 41.88325773 297.51752845 55.17070203 300.83203125 69.4140625 C301.01749512 70.19821533 301.20295898 70.98236816 301.39404297 71.7902832 C303.14222803 80.10780773 303.23110292 88.39310443 303.20703125 96.8515625 C303.20571701 97.97898361 303.20571701 97.97898361 303.20437622 99.12918091 C303.01926854 147.33596116 278.00518743 179.41641536 245.26660156 212.10888672 C243.63230636 213.74454004 241.9982233 215.38040534 240.36433411 217.01646423 C235.96407849 221.42124349 231.5607083 225.82289632 227.15659809 230.22382116 C222.53174699 234.84612445 217.90935441 239.47088529 213.28656006 244.09524536 C205.03634777 252.34758614 196.7834305 260.59721699 188.52960369 268.84594239 C181.05949924 276.31157273 173.59203075 283.77983126 166.12646484 291.25 C157.42799108 299.95383432 148.72782887 308.65597525 140.0251987 317.35565388 C135.42870032 321.95059691 130.83287162 326.54620427 126.23880768 331.14358139 C121.92360353 335.46168089 117.60594758 339.77731394 113.28641319 344.09108162 C111.70536262 345.67081393 110.12515499 347.25139042 108.54586983 348.83288765 C106.38398694 350.99751861 104.21902219 353.15902128 102.05328369 355.3197937 C101.43498349 355.94032462 100.8166833 356.56085554 100.17964673 357.20019042 C96.44496458 360.91837274 92.58788942 364.44117668 88.59061027 367.87587273 C86.22287283 369.94687976 84.02583993 372.1609617 81.83203125 374.4140625 C78.93611167 377.34524441 76.02960554 380.17809424 72.89453125 382.8515625 C69.54273704 385.715823 66.42699004 388.77787987 63.33203125 391.9140625 C51.56197528 403.78206623 51.56197528 403.78206623 45.83203125 406.4140625 C45.105 405.66962891 45.105 405.66962891 44.36328125 404.91015625 C40.97142039 401.47263572 37.56219211 398.12027181 33.89453125 394.9765625 C30.90401409 392.40740979 28.10086441 389.72088994 25.33203125 386.9140625 C22.58347135 384.12785109 19.80343334 381.46097858 16.83203125 378.9140625 C13.12197693 375.73401594 9.70225258 372.32644448 6.30078125 368.8203125 C4.29636614 366.86664208 2.26402871 365.04336597 0.14371967 363.22087955 C-3.93635516 359.66108059 -7.7986252 355.9290079 -11.62373352 352.09873962 C-12.32926225 351.39618201 -13.03479099 350.6936244 -13.76169938 349.96977717 C-16.10431675 347.63576997 -18.44340537 345.29825986 -20.7824707 342.96069336 C-22.4700244 341.27777328 -24.15777372 339.59504935 -25.84570312 337.9125061 C-30.41653861 333.35474412 -34.98409652 328.79370946 -39.55060601 324.23161387 C-42.40859095 321.37640319 -45.26730763 318.52192592 -48.12615013 315.66757393 C-56.06063948 307.74526747 -63.99418751 299.82202099 -71.92428303 291.89531612 C-72.68380592 291.13612258 -72.68380592 291.13612258 -73.45867271 290.36159179 C-73.96614386 289.85433892 -74.47361501 289.34708605 -74.99646407 288.82446188 C-76.02457801 287.79679139 -77.0526935 286.76912246 -78.08081055 285.74145508 C-78.59077748 285.23170958 -79.1007444 284.72196408 -79.62616488 284.19677175 C-87.88021317 275.94666725 -96.14099026 267.70333582 -104.40470765 259.4629175 C-112.91403244 250.97738846 -121.41764019 242.48616452 -129.91565675 233.98931032 C-134.67695937 229.2289198 -139.44075249 224.47108624 -144.21056557 219.71922112 C-148.70126265 215.24509485 -153.18463075 210.76374854 -157.66268158 206.27696609 C-159.29863948 204.64024264 -160.93712 203.00603572 -162.57842827 201.37467766 C-190.94677589 173.16812251 -209.35300205 142.15864445 -209.48046875 101.2265625 C-209.55339803 69.10008326 -199.65400809 41.2021701 -179.16796875 16.4140625 C-178.53890625 15.64320312 -177.90984375 14.87234375 -177.26171875 14.078125 C-165.49295231 0.11608845 -149.78528036 -10.31459494 -133.16796875 -17.5859375 C-132.52778809 -17.86808105 -131.88760742 -18.15022461 -131.22802734 -18.44091797 C-88.20635324 -36.97551583 -36.26797121 -29.35515752 0 0 Z M-118.38671875 68.25390625 C-126.91535391 78.59674669 -131.03105624 91.0165554 -129.91796875 104.42578125 C-127.67192292 120.08794013 -120.48191579 129.40976235 -109.45751953 140.13964844 C-106.44347207 143.08071451 -103.56130097 146.06253682 -100.81640625 149.2578125 C-96.68785105 154.04548082 -92.22211639 158.46946677 -87.73046875 162.9140625 C-86.49006836 164.14769531 -86.49006836 164.14769531 -85.22460938 165.40625 C-83.20801916 167.41118363 -81.18911639 169.41372503 -79.16796875 171.4140625 C-74.46051798 167.4823549 -70.00385165 163.39148964 -65.68188477 159.04150391 C-65.0761412 158.43590637 -64.47039764 157.83030884 -63.84629822 157.20635986 C-61.86910729 155.22847909 -59.89546999 153.24709336 -57.921875 151.265625 C-56.54204359 149.88392611 -55.16198945 148.50244962 -53.78172302 147.1211853 C-50.16775025 143.50341337 -46.55679202 139.88264731 -42.94647217 136.26123047 C-39.25455672 132.55904473 -35.55977212 128.85972479 -31.86523438 125.16015625 C-24.63001572 117.91424619 -17.39798134 110.66516695 -10.16796875 103.4140625 C-11.51825541 100.408308 -13.02545833 98.30075546 -15.34155273 95.96582031 C-16.30912758 94.98394745 -16.30912758 94.98394745 -17.29624939 93.98223877 C-17.99512772 93.28427185 -18.69400604 92.58630493 -19.4140625 91.8671875 C-20.13980972 91.13715515 -20.86555695 90.4071228 -21.61329651 89.65496826 C-23.15329729 88.10922501 -24.69592521 86.56609537 -26.2409668 85.02539062 C-28.57423838 82.69525095 -30.89394999 80.35220342 -33.21289062 78.0078125 C-46.78547728 64.04692774 -46.78547728 64.04692774 -63.54296875 54.4765625 C-64.49945313 54.09628906 -65.4559375 53.71601562 -66.44140625 53.32421875 C-85.40502492 46.99395636 -105.0586035 54.07912794 -118.38671875 68.25390625 Z M124.20703125 82.0390625 C121.86372124 84.40929237 119.51688169 86.77594895 117.16796875 89.140625 C116.65003754 89.66685455 116.13210632 90.19308411 115.59848022 90.73526001 C112.95722205 93.39370357 110.26376319 95.92024702 107.40420532 98.34288025 C101.4809888 103.50851521 95.99437493 109.12026935 90.44921875 114.68334961 C89.21674232 115.91610856 87.98404476 117.14864647 86.75114441 118.38098145 C83.42510188 121.70673853 80.10213905 125.03555707 76.77974319 128.36495662 C73.29954301 131.85143259 69.81648714 135.33505334 66.33374023 138.81898499 C59.74816853 145.40765758 53.16514885 151.99887385 46.58305454 158.59102017 C39.08560083 166.09967366 31.58528779 173.60546823 24.08473969 181.11103046 C8.66399874 196.54220766 -6.75316893 211.97695063 -22.16796875 227.4140625 C-18.33208128 231.99238259 -14.36842502 236.36571025 -10.15014648 240.59301758 C-9.29768845 241.45292297 -9.29768845 241.45292297 -8.42800903 242.3302002 C-6.57192433 244.20073523 -4.71210572 246.06749398 -2.8515625 247.93359375 C-2.21238451 248.57559912 -1.57320652 249.21760448 -0.9146595 249.87906456 C2.46003789 253.2686756 5.83754062 256.65546037 9.2175293 260.03979492 C12.70340654 263.53118198 16.17989084 267.03176932 19.65431309 270.53455067 C22.33531048 273.23416349 25.0229843 275.92705303 27.71253777 278.61813927 C28.99762074 279.90624576 30.28020592 281.19684927 31.56021309 282.48999977 C33.34767242 284.29451523 35.14435785 286.08932688 36.94360352 287.88208008 C37.46789444 288.41558578 37.99218536 288.94909149 38.53236389 289.49876404 C41.47976282 292.41297803 43.96719418 294.00453917 47.83203125 295.4140625 C56.45581355 287.89486532 64.52516716 279.86951499 72.60986328 271.78149414 C74.07597459 270.31838037 75.54228888 268.85546997 77.00878906 267.39274597 C80.9655754 263.44474015 84.91916354 259.49354699 88.87188196 255.54146886 C91.34622794 253.0678364 93.82128577 250.59491851 96.29659653 248.12225151 C104.94488513 239.48319437 113.59060711 230.84157829 122.23388672 222.19750977 C130.2716231 214.15917215 138.31492659 206.12643516 146.36084855 198.0962916 C153.28784277 191.18239465 160.21095393 184.26462558 167.13108337 177.34385771 C171.25588981 173.21879706 175.38221276 169.09528278 179.51245499 164.97566414 C183.3960538 161.10178398 187.27477205 157.22308146 191.14988708 153.34071541 C192.56706401 151.92249755 193.98592752 150.50596259 195.40665817 149.09130478 C211.12304015 133.43772559 223.55319316 119.7097171 223.83203125 96.4140625 C222.96962998 82.02154349 215.15609316 71.20716573 204.93359375 61.63671875 C174.81221314 36.66266267 145.83551206 60.16061025 124.20703125 82.0390625 Z " fill="#4185F3" transform="translate(209.16796875,27.5859375)"/>
<path d="M0 0 C3.13989656 2.67649113 6.06666332 5.46633574 8.90625 8.45703125 C10.59458652 10.17276471 12.31112269 11.70877908 14.15625 13.25 C20.8869705 19.08836952 27.05655779 25.53409407 33.33203125 31.8515625 C34.6442971 33.16885309 35.9567952 34.48591236 37.26953125 35.80273438 C40.45971631 39.0038486 43.64673776 42.20808115 46.83203125 45.4140625 C45.24422766 49.27872583 42.77269896 51.71465405 39.83154297 54.64160156 C39.32406525 55.14937134 38.81658752 55.65714111 38.29373169 56.18029785 C36.62109256 57.85154759 34.94148908 59.51560806 33.26171875 61.1796875 C32.09828847 62.33938627 30.93529999 63.49952842 29.7727356 64.66009521 C26.71604925 67.70915602 23.65340381 70.75216213 20.58947754 73.79394531 C17.4622796 76.90066163 14.34075618 80.01306795 11.21875 83.125 C5.09538245 89.22693667 -1.03429235 95.32248848 -7.16796875 101.4140625 C-5.58016516 105.27872583 -3.10863646 107.71465405 -0.16748047 110.64160156 C0.33999725 111.14937134 0.84747498 111.65714111 1.37033081 112.18029785 C3.04296994 113.85154759 4.72257342 115.51560806 6.40234375 117.1796875 C7.56577403 118.33938627 8.72876251 119.49952842 9.8913269 120.66009521 C12.94801325 123.70915602 16.01065869 126.75216213 19.07458496 129.79394531 C22.2017829 132.90066163 25.32330632 136.01306795 28.4453125 139.125 C34.56868005 145.22693667 40.69835485 151.32248848 46.83203125 157.4140625 C45.17083239 161.73503402 41.89338972 164.62591421 38.67333984 167.81567383 C38.04216248 168.44874954 37.41098511 169.08182526 36.76068115 169.73408508 C34.67213192 171.82633927 32.57646546 173.91130245 30.48046875 175.99609375 C29.02239108 177.45297864 27.56468362 178.91023413 26.10733032 180.36784363 C23.04875833 183.42485087 19.98685551 186.47846875 16.92236328 189.52954102 C13.01026638 193.42471604 9.10471565 197.3263725 5.20145226 201.23039722 C2.18872357 204.24285269 -0.82661482 207.25268452 -3.8428154 210.26166344 C-5.28258609 211.69826878 -6.72176674 213.13546573 -8.16032791 214.57328224 C-10.18203098 216.59279508 -12.2070076 218.60896859 -14.23291016 220.62426758 C-14.8181546 221.20996521 -15.40339905 221.79566284 -16.00637817 222.39910889 C-19.64536069 226.01054602 -23.4195838 229.41132975 -27.29532433 232.76656818 C-29.81881259 234.98665466 -32.20103784 237.32742605 -34.57421875 239.70678711 C-35.05331192 240.18573425 -35.53240509 240.6646814 -36.02601624 241.15814209 C-37.5757223 242.70853305 -39.121877 244.26241176 -40.66796875 245.81640625 C-41.75490678 246.90521354 -42.8420689 247.99379716 -43.92944336 249.08216858 C-46.76580098 251.92231139 -49.59914039 254.7654461 -52.43182373 257.60925293 C-55.33291128 260.52064141 -58.23689588 263.42913717 -61.140625 266.33789062 C-66.81921693 272.0271492 -72.49461791 277.71957749 -78.16796875 283.4140625 C-81.46013854 281.97337754 -83.64361507 280.19147986 -86.18153381 277.66119385 C-86.97048035 276.87933212 -87.75942688 276.0974704 -88.57228088 275.29191589 C-89.42893845 274.43278091 -90.28559601 273.57364594 -91.16821289 272.68847656 C-92.07771698 271.7840834 -92.98722107 270.87969025 -93.92428589 269.94789124 C-96.41917819 267.46639184 -98.90762317 264.97852109 -101.39456105 262.48905277 C-103.47943351 260.40310839 -105.56728057 258.32015382 -107.65507978 256.23713946 C-112.59264784 251.31067276 -117.52486174 246.37888996 -122.45385742 241.44384766 C-127.50963424 236.38206285 -132.57444318 231.32945035 -137.64390284 226.28137231 C-142.01393317 221.92908577 -146.37799592 217.57087571 -150.73754591 213.2080915 C-153.33289471 210.61094607 -155.9303186 208.01597517 -158.5335865 205.42676544 C-188.5234965 175.58468478 -209.34470982 144.82144606 -209.48046875 101.2265625 C-209.55339803 69.10008326 -199.65400809 41.2021701 -179.16796875 16.4140625 C-178.53890625 15.64320312 -177.90984375 14.87234375 -177.26171875 14.078125 C-165.49295231 0.11608845 -149.78528036 -10.31459494 -133.16796875 -17.5859375 C-132.52778809 -17.86808105 -131.88760742 -18.15022461 -131.22802734 -18.44091797 C-88.20635324 -36.97551583 -36.26797121 -29.35515752 0 0 Z M-118.38671875 68.25390625 C-126.91535391 78.59674669 -131.03105624 91.0165554 -129.91796875 104.42578125 C-127.67192292 120.08794013 -120.48191579 129.40976235 -109.45751953 140.13964844 C-106.44347207 143.08071451 -103.56130097 146.06253682 -100.81640625 149.2578125 C-96.68785105 154.04548082 -92.22211639 158.46946677 -87.73046875 162.9140625 C-86.49006836 164.14769531 -86.49006836 164.14769531 -85.22460938 165.40625 C-83.20801916 167.41118363 -81.18911639 169.41372503 -79.16796875 171.4140625 C-74.46051798 167.4823549 -70.00385165 163.39148964 -65.68188477 159.04150391 C-65.0761412 158.43590637 -64.47039764 157.83030884 -63.84629822 157.20635986 C-61.86910729 155.22847909 -59.89546999 153.24709336 -57.921875 151.265625 C-56.54204359 149.88392611 -55.16198945 148.50244962 -53.78172302 147.1211853 C-50.16775025 143.50341337 -46.55679202 139.88264731 -42.94647217 136.26123047 C-39.25455672 132.55904473 -35.55977212 128.85972479 -31.86523438 125.16015625 C-24.63001572 117.91424619 -17.39798134 110.66516695 -10.16796875 103.4140625 C-11.51825541 100.408308 -13.02545833 98.30075546 -15.34155273 95.96582031 C-16.30912758 94.98394745 -16.30912758 94.98394745 -17.29624939 93.98223877 C-17.99512772 93.28427185 -18.69400604 92.58630493 -19.4140625 91.8671875 C-20.13980972 91.13715515 -20.86555695 90.4071228 -21.61329651 89.65496826 C-23.15329729 88.10922501 -24.69592521 86.56609537 -26.2409668 85.02539062 C-28.57423838 82.69525095 -30.89394999 80.35220342 -33.21289062 78.0078125 C-46.78547728 64.04692774 -46.78547728 64.04692774 -63.54296875 54.4765625 C-64.49945313 54.09628906 -65.4559375 53.71601562 -66.44140625 53.32421875 C-85.40502492 46.99395636 -105.0586035 54.07912794 -118.38671875 68.25390625 Z " fill="#EA4234" transform="translate(209.16796875,27.5859375)"/>
<path d="M0 0 C2.82346869 1.36077642 4.8761325 2.63206047 7.08105469 4.86987305 C7.94280304 5.73668953 7.94280304 5.73668953 8.82196045 6.62101746 C9.43243225 7.24494888 10.04290405 7.86888031 10.671875 8.51171875 C11.63374725 9.48139336 11.63374725 9.48139336 12.61505127 10.47065735 C14.66484762 12.53824026 16.70785445 14.61236224 18.75 16.6875 C20.77866262 18.74396246 22.8088256 20.79888319 24.84210205 22.8507843 C26.10502666 24.12576559 27.3652734 25.40340754 28.62225342 26.68424988 C32.34246678 30.44584645 36.20005753 33.97520515 40.2041626 37.43247986 C42.31235575 39.2726438 44.31097138 41.19689614 46.28125 43.18359375 C47.32539062 44.23256836 47.32539062 44.23256836 48.390625 45.30273438 C49.43476562 46.35944336 49.43476562 46.35944336 50.5 47.4375 C51.22703125 48.16904297 51.9540625 48.90058594 52.703125 49.65429688 C54.47109623 51.43389949 56.23620179 53.21626446 58 55 C52.33917272 61.90898917 46.00953833 68.1313708 39.69580078 74.43359375 C38.44662143 75.68412982 37.19765454 76.93487816 35.94888306 78.18582153 C32.57097569 81.56827148 29.18993227 84.94757005 25.80816507 88.32616043 C22.26032817 91.87145675 18.71494185 95.41920237 15.16915894 98.96655273 C9.21434215 104.92318649 3.2574255 110.87771418 -2.70068359 116.83105469 C-9.57579058 123.70072246 -16.4472912 130.57398176 -23.31692493 137.44912243 C-29.22780231 143.36454736 -35.14063823 149.27800929 -41.05509579 155.18985462 C-44.58192254 158.71512731 -48.10808201 162.24106031 -51.63247299 165.76876831 C-54.94788989 169.08708772 -58.26577006 172.40292486 -61.58551407 175.71691513 C-62.79889481 176.92898089 -64.01143893 178.1418849 -65.22305298 179.35571671 C-70.81383034 184.95577807 -76.3886312 190.5274075 -82.42921638 195.64952087 C-84.74738994 197.64256751 -86.86838616 199.81077498 -89 202 C-91.89591958 204.93118191 -94.80242571 207.76403174 -97.9375 210.4375 C-101.28929421 213.3017605 -104.40504121 216.36381737 -107.5 219.5 C-119.27005597 231.36800373 -119.27005597 231.36800373 -125 234 C-125.4846875 233.50371094 -125.969375 233.00742187 -126.46875 232.49609375 C-129.86061086 229.05857322 -133.26983914 225.70620931 -136.9375 222.5625 C-139.92801716 219.99334729 -142.73116684 217.30682744 -145.5 214.5 C-148.2485599 211.71378859 -151.02859791 209.04691608 -154 206.5 C-157.71005432 203.31995344 -161.12977867 199.91238198 -164.53125 196.40625 C-166.52883677 194.45923505 -168.55319456 192.6444722 -170.66723633 190.82957458 C-174.8800557 187.15398324 -178.85139372 183.28320251 -182.79296875 179.32055664 C-183.52565475 178.58801666 -184.25834076 177.85547668 -185.01322937 177.10073853 C-187.40703418 174.70624337 -189.79728869 172.30823802 -192.1875 169.91015625 C-193.85736549 168.23842345 -195.52745357 166.56691295 -197.19775391 164.89561462 C-201.57287932 160.51668864 -205.94499207 156.13476684 -210.31646729 151.75219727 C-214.7859724 147.27242491 -219.25834363 142.79551593 -223.73046875 138.31835938 C-232.48977393 129.54836032 -241.24589653 120.77519113 -250 112 C-246.39270028 107.70541725 -242.70305638 103.57944457 -238.72900391 99.61547852 C-237.99617187 98.88242744 -237.99617187 98.88242744 -237.24853516 98.13456726 C-235.66024061 96.54695997 -234.06845249 94.96290763 -232.4765625 93.37890625 C-231.36390615 92.26811831 -230.25147284 91.1571069 -229.13925171 90.04588318 C-226.2316873 87.14211066 -223.32113095 84.24135564 -220.40991211 81.34124756 C-217.43159571 78.37321737 -214.45615894 75.40230338 -211.48046875 72.43164062 C-205.65643877 66.61828917 -199.8292405 60.80812666 -194 55 C-189.4116331 58.83357784 -185.06191084 62.8050009 -180.86865234 67.06542969 C-180.30020096 67.63855392 -179.73174957 68.21167816 -179.14607239 68.8021698 C-177.9250169 70.03364288 -176.70507343 71.26621943 -175.48615646 72.49980927 C-173.55508916 74.453078 -171.61992667 76.40220156 -169.6835022 78.35015869 C-164.18279738 83.88430258 -158.68640587 89.42267587 -153.20019531 94.97119141 C-149.8334226 98.37561229 -146.45937614 101.77267679 -143.08055496 105.16513824 C-141.79797638 106.45576186 -140.51817868 107.74915532 -139.2412529 109.04537201 C-137.45853083 110.85457792 -135.66671035 112.65428669 -133.87255859 114.45214844 C-133.34983871 114.98722519 -132.82711884 115.52230194 -132.28855896 116.07359314 C-129.34636666 118.99980457 -126.86929086 120.58980738 -123 122 C-115.56425421 115.45991985 -108.47834861 108.61710553 -101.49169922 101.60522461 C-100.37715303 100.49039561 -99.26238513 99.37578822 -98.14741516 98.26138306 C-95.15205917 95.26631135 -92.15977386 92.26818942 -89.16807318 89.26946712 C-86.02955974 86.12465827 -82.8881717 82.98272344 -79.74710083 79.84046936 C-73.81324645 73.90351978 -67.88194351 67.9640281 -61.95157635 62.02359539 C-55.19409539 55.25489675 -48.43373941 48.48907267 -41.67315269 41.72347629 C-27.7789236 27.81882387 -13.88826904 13.91060529 0 0 Z " fill="#33A853" transform="translate(380,200)"/>
<path d="M0 0 C4.07142308 2.21855748 7.07594222 4.83300277 10.34106445 8.11401367 C11.10293816 8.8754493 11.10293816 8.8754493 11.88020325 9.65226746 C13.54601827 11.31946793 15.20465 12.99362389 16.86328125 14.66796875 C18.02155008 15.82997049 19.18026332 16.9915294 20.33940125 18.15266418 C23.38023307 21.20111049 26.41500912 24.25551627 29.44854736 27.31121826 C32.54863953 30.43181597 35.65444316 33.54671787 38.75976562 36.66210938 C44.84543614 42.76919125 50.92471854 48.88258316 57 55 C55.33880114 59.32097152 52.06135847 62.21185171 48.84130859 65.40161133 C48.21013123 66.03468704 47.57895386 66.66776276 46.9286499 67.32002258 C44.84010067 69.41227677 42.74443421 71.49723995 40.6484375 73.58203125 C39.19035983 75.03891614 37.73265237 76.49617163 36.27529907 77.95378113 C33.21672708 81.01078837 30.15482426 84.06440625 27.09033203 87.11547852 C23.17823513 91.01065354 19.2726844 94.91231 15.36942101 98.81633472 C12.35669232 101.82879019 9.34135393 104.83862202 6.32515335 107.84760094 C4.88538266 109.28420628 3.44620201 110.72140323 2.00764084 112.15921974 C-0.01406223 114.17873258 -2.03903885 116.19490609 -4.06494141 118.21020508 C-4.65018585 118.79590271 -5.2354303 119.38160034 -5.83840942 119.98504639 C-9.47739194 123.59648352 -13.25161505 126.99726725 -17.12735558 130.35250568 C-19.65084384 132.57259216 -22.03306909 134.91336355 -24.40625 137.29272461 C-24.88534317 137.77167175 -25.36443634 138.2506189 -25.85804749 138.74407959 C-27.40775355 140.29447055 -28.95390825 141.84834926 -30.5 143.40234375 C-31.58693803 144.49115104 -32.67410015 145.57973466 -33.76147461 146.66810608 C-36.59783223 149.50824889 -39.43117164 152.3513836 -42.26385498 155.19519043 C-45.16494253 158.10657891 -48.06892713 161.01507467 -50.97265625 163.92382812 C-56.65124818 169.6130867 -62.32664916 175.30551499 -68 181 C-71.85308766 179.42476254 -74.44743914 176.82252556 -77.31933594 173.90771484 C-77.83685928 173.39048355 -78.35438263 172.87325226 -78.8875885 172.34034729 C-80.59130289 170.63524329 -82.28782978 168.92317232 -83.984375 167.2109375 C-85.16649407 166.025087 -86.34905645 164.83967826 -87.53204346 163.6546936 C-90.64028728 160.53882362 -93.74247737 157.41699366 -96.84344482 154.29388428 C-100.01048502 151.10636381 -103.18321387 147.9245168 -106.35546875 144.7421875 C-112.57589403 138.50033024 -118.78993537 132.25216515 -125 126 C-119.98513828 119.9412999 -114.53944529 114.41037135 -108.96484375 108.8671875 C-107.99868601 107.90290026 -107.03275283 106.93838799 -106.06703186 105.97366333 C-103.54114621 103.45156675 -101.01227481 100.93248542 -98.48272705 98.4140625 C-95.91570878 95.85728513 -93.35152255 93.29767103 -90.78710938 90.73828125 C-86.27075735 86.23145514 -81.75195126 81.7271012 -77.23130798 77.22457886 C-74.81834998 74.8188978 -72.40887238 72.40977222 -70 70 C-68.91377379 68.91373068 -67.82752432 67.82748463 -66.74125671 66.74125671 C-66.14539261 66.14539261 -65.5495285 65.5495285 -64.93560791 64.93560791 C-43.29040527 43.29040527 -21.64520264 21.64520264 0 0 Z " fill="#FABB04" transform="translate(199,130)"/>
</svg>
