<svg width="42" height="42" viewBox="0 0 42 42" fill="none" xmlns="http://www.w3.org/2000/svg">
<path d="M21.4202 11.1386L19.7037 9.42208C18.1103 7.82873 15.9493 6.93359 13.6959 6.93359C11.4426 6.93359 9.28154 7.82873 7.68819 9.42208C6.09485 11.0154 5.19971 13.1765 5.19971 15.4298C5.19971 17.6831 6.09485 19.8442 7.68819 21.4376L16.2335 29.9828C16.2458 29.9953 16.2582 30.0077 16.2706 30.0202L20.5619 34.3114C20.7988 34.5484 21.1095 34.6669 21.4202 34.6669" stroke="#FF5A8D" stroke-width="1.73333" stroke-linecap="round" stroke-linejoin="round"/>
<path d="M21.4199 11.1385L23.1363 9.42208C24.7297 7.82873 26.8908 6.93359 29.1441 6.93359C31.3974 6.93359 33.5585 7.82873 35.1518 9.42208C36.7452 11.0154 37.6403 13.1765 37.6403 15.4298C37.6403 17.6831 36.7452 19.8442 35.1518 21.4376L22.2781 34.3113C22.0411 34.5483 21.7305 34.6668 21.4199 34.6668" stroke="#FF5A8D" stroke-width="1.73333" stroke-linecap="round" stroke-linejoin="round"/>
</svg>
