<svg width="80" height="80" viewBox="0 0 80 80" fill="none" xmlns="http://www.w3.org/2000/svg">
<path d="M64.6939 62.1047H62.0527C61.5129 62.1047 61.0888 61.6612 61.0888 61.1407C61.0888 58.6923 59.1031 56.7066 56.674 56.7066C54.2449 56.7066 52.2591 58.6924 52.2591 61.1215C52.2591 61.6613 51.835 62.1047 51.2952 62.1047H15.3212C10.5401 62.1047 6.66504 58.6345 6.66504 54.3739V27.7308C6.66504 23.4702 10.5594 20 15.3212 20H51.2952C51.835 20 52.2591 20.4434 52.2591 20.9639C52.2591 23.4123 54.2449 25.398 56.674 25.398C59.1031 25.398 61.0888 23.4123 61.0888 20.9832C61.0888 20.4434 61.5129 20 62.0527 20H64.6939C69.475 20 73.35 23.4702 73.35 27.7308V54.3739C73.35 58.6345 69.475 62.1047 64.6939 62.1047ZM62.9395 60.1575H64.6939C68.3954 60.1575 71.4221 57.5549 71.4221 54.3739V27.7308C71.4221 24.5498 68.4147 21.9472 64.6939 21.9472H62.9395C62.4768 25.0125 59.8357 27.3452 56.6547 27.3452C53.4737 27.3452 50.8325 24.9932 50.3699 21.9472H15.3019C11.6004 21.9472 8.57367 24.5498 8.57367 27.7308V54.3739C8.57367 57.5549 11.5811 60.1575 15.3019 60.1575H50.3699C50.8325 57.0922 53.4737 54.7595 56.6547 54.7595C59.8357 54.7595 62.4768 57.1115 62.9395 60.1575Z" fill="#FF5A8D"/>
<path d="M56.5972 34.0151C56.0574 34.0151 55.6333 33.5717 55.6333 33.0512V32.7813C55.6333 32.2415 56.0767 31.8174 56.5972 31.8174C57.1178 31.8174 57.5612 32.2608 57.5612 32.7813V33.0512C57.5612 33.591 57.1178 34.0151 56.5972 34.0151Z" fill="#FF5A8D"/>
<path d="M56.5972 45.0224C56.0574 45.0224 55.6333 44.579 55.6333 44.0585V43.5572C55.6333 43.0174 56.0767 42.5933 56.5972 42.5933C57.1178 42.5933 57.5612 43.0367 57.5612 43.5572V44.0585C57.5612 44.5983 57.1178 45.0224 56.5972 45.0224ZM56.5972 39.5087C56.0574 39.5087 55.6333 39.0653 55.6333 38.5447V38.0435C55.6333 37.5037 56.0767 37.0796 56.5972 37.0796C57.1178 37.0796 57.5612 37.523 57.5612 38.0435V38.5447C57.5612 39.0845 57.1178 39.5087 56.5972 39.5087Z" fill="#FF5A8D"/>
<path d="M56.5972 50.2866C56.0574 50.2866 55.6333 49.8432 55.6333 49.3227V49.0528C55.6333 48.513 56.0767 48.0889 56.5972 48.0889C57.1178 48.0889 57.5612 48.5323 57.5612 49.0528V49.3227C57.5612 49.8625 57.1178 50.2866 56.5972 50.2866Z" fill="#FF5A8D"/>
<path d="M14.3784 44.2716C13.8386 43.9439 13.4337 43.5198 13.1253 42.9414C12.8168 42.3823 12.6626 41.7462 12.6626 41.0521C12.6626 40.3581 12.8168 39.7219 13.1253 39.1628C13.4337 38.6037 13.8386 38.1603 14.3784 37.8326C14.9182 37.5048 15.5158 37.3506 16.1713 37.3506C16.7496 37.3506 17.2702 37.4662 17.7329 37.6976C18.1956 37.9289 18.5812 38.2374 18.8703 38.6423C19.1595 39.0471 19.3523 39.4905 19.4487 39.9918H17.9642C17.8871 39.6447 17.6751 39.3556 17.3666 39.1243C17.0389 38.8929 16.6533 38.7772 16.2099 38.7772C15.8243 38.7772 15.458 38.8736 15.1495 39.0664C14.841 39.2592 14.5905 39.5291 14.3977 39.8761C14.2242 40.2231 14.1277 40.6087 14.1277 41.0328C14.1277 41.457 14.2242 41.8425 14.3977 42.1896C14.5712 42.5366 14.8218 42.8064 15.1495 42.9992C15.458 43.192 15.8243 43.2885 16.2099 43.2885C16.5183 43.2885 16.7882 43.2306 17.0581 43.0957C17.328 42.9607 17.5401 42.8065 17.7136 42.5944C17.8871 42.4016 18.0028 42.1895 18.0221 41.9775H19.5065C19.4294 42.4594 19.2559 42.9029 18.9474 43.327C18.639 43.7511 18.2534 44.0789 17.7714 44.3488C17.2895 44.5994 16.7496 44.7344 16.1713 44.7344C15.5158 44.7344 14.8989 44.5801 14.3784 44.2524V44.2716Z" fill="#FF5A8D"/>
<path d="M21.1072 44.2716C20.5674 43.9439 20.1433 43.5198 19.8348 42.9414C19.5263 42.3823 19.3721 41.7462 19.3721 41.0521C19.3721 40.3581 19.5263 39.7219 19.8348 39.1628C20.1433 38.6037 20.5674 38.1603 21.1072 37.8326C21.647 37.5048 22.2446 37.3506 22.9193 37.3506C23.5941 37.3506 24.1917 37.5048 24.7315 37.8326C25.2713 38.1603 25.6955 38.5844 26.0039 39.1628C26.3124 39.7219 26.4667 40.3581 26.4667 41.0521C26.4667 41.7462 26.3124 42.3823 26.0039 42.9414C25.6955 43.5005 25.2713 43.9439 24.7315 44.2716C24.1917 44.5994 23.5941 44.7536 22.9193 44.7536C22.2446 44.7536 21.647 44.5994 21.1072 44.2716ZM23.9797 43.0378C24.2882 42.845 24.5388 42.5751 24.7315 42.2281C24.9051 41.8811 25.0015 41.4955 25.0015 41.0521C25.0015 40.6087 24.9051 40.2231 24.7315 39.8761C24.558 39.5291 24.3074 39.2592 23.9797 39.0664C23.6712 38.8736 23.3049 38.7772 22.9193 38.7772C22.5338 38.7772 22.1675 38.8736 21.859 39.0664C21.5506 39.2592 21.3 39.5291 21.1072 39.8761C20.9337 40.2231 20.8373 40.6087 20.8373 41.0521C20.8373 41.4955 20.9337 41.8811 21.1072 42.2281C21.2807 42.5751 21.5313 42.845 21.859 43.0378C22.1675 43.2306 22.5338 43.327 22.9193 43.327C23.3049 43.327 23.6712 43.2306 23.9797 43.0378Z" fill="#FF5A8D"/>
<path d="M26.5654 37.5239H28.0306V41.4568C28.0306 42.0159 28.1656 42.4785 28.4355 42.8256C28.7054 43.1726 29.0909 43.3461 29.5536 43.3461C30.0163 43.3461 30.4019 43.1726 30.6718 42.8256C30.9417 42.4785 31.0766 42.0352 31.0766 41.4568V37.5239H32.5418V41.4568C32.5418 42.1123 32.4262 42.6906 32.1755 43.1919C31.9249 43.6931 31.5779 44.0787 31.1152 44.3486C30.6718 44.6185 30.132 44.7534 29.5536 44.7534C28.9752 44.7534 28.4354 44.6185 27.992 44.3486C27.5486 44.0787 27.1824 43.6931 26.9317 43.1919C26.6811 42.6906 26.5654 42.1123 26.5654 41.4568V37.5239Z" fill="#FF5A8D"/>
<path d="M32.9426 37.5239H35.4488C36.0079 37.5239 36.4899 37.6396 36.8947 37.8517C37.2996 38.0638 37.6081 38.3722 37.8201 38.7578C38.0322 39.1434 38.1479 39.5867 38.1479 40.1073C38.1479 40.6278 38.0322 41.0905 37.8201 41.4761C37.6081 41.8617 37.2996 42.1701 36.8947 42.3822C36.4899 42.5943 36.0079 42.7099 35.4488 42.7099H34.3885V44.5799H32.9233V37.5432L32.9426 37.5239ZM35.391 41.3025C35.7959 41.3025 36.1236 41.2062 36.3549 40.9941C36.5863 40.7821 36.702 40.4928 36.702 40.1073C36.702 39.7217 36.5863 39.4325 36.3549 39.2205C36.1236 39.0277 35.8151 38.912 35.391 38.912H34.4078V41.3025H35.391Z" fill="#FF5A8D"/>
<path d="M39.6911 44.2716C39.1513 43.9439 38.7272 43.5198 38.4187 42.9414C38.1103 42.3823 37.9561 41.7462 37.9561 41.0521C37.9561 40.3581 38.1103 39.7219 38.4187 39.1628C38.7272 38.6037 39.1513 38.1603 39.6911 37.8326C40.2309 37.5048 40.8286 37.3506 41.5033 37.3506C42.1781 37.3506 42.7757 37.5048 43.3155 37.8326C43.8553 38.1603 44.2795 38.5844 44.5879 39.1628C44.8964 39.7219 45.0506 40.3581 45.0506 41.0521C45.0506 41.7462 44.8964 42.3823 44.5879 42.9414C44.2795 43.5005 43.8553 43.9439 43.3155 44.2716C42.7757 44.5994 42.1781 44.7536 41.5033 44.7536C40.8286 44.7536 40.2309 44.5994 39.6911 44.2716ZM42.5636 43.0378C42.8721 42.845 43.1227 42.5751 43.3155 42.2281C43.489 41.8811 43.5854 41.4955 43.5854 41.0521C43.5854 40.6087 43.489 40.2231 43.3155 39.8761C43.142 39.5291 42.8914 39.2592 42.5636 39.0664C42.2552 38.8736 41.8889 38.7772 41.5033 38.7772C41.1178 38.7772 40.7515 38.8736 40.443 39.0664C40.1346 39.2592 39.8839 39.5291 39.6911 39.8761C39.5176 40.2231 39.4213 40.6087 39.4213 41.0521C39.4213 41.4955 39.5176 41.8811 39.6911 42.2281C39.8646 42.5751 40.1153 42.845 40.443 43.0378C40.7515 43.2306 41.1178 43.327 41.5033 43.327C41.8889 43.327 42.2552 43.2306 42.5636 43.0378Z" fill="#FF5A8D"/>
<path d="M45.2251 37.5259H46.4397L49.7171 41.7672V37.4487H51.1822V44.4855H49.9676L46.6903 40.2442V44.5626H45.2251V37.5259Z" fill="#FF5A8D"/>
</svg>
