<svg width="35" height="22" viewBox="0 0 35 22" fill="none" xmlns="http://www.w3.org/2000/svg">
<path d="M30.1 21.84H28.73C28.45 21.84 28.23 21.61 28.23 21.34C28.23 20.07 27.2 19.04 25.94 19.04C24.68 19.04 23.65 20.07 23.65 21.33C23.65 21.61 23.43 21.84 23.15 21.84H4.49002C2.01002 21.84 0 20.04 0 17.83V4.01001C0 1.80001 2.02002 0 4.49002 0H23.15C23.43 0 23.65 0.23 23.65 0.5C23.65 1.77 24.68 2.79999 25.94 2.79999C27.2 2.79999 28.23 1.77001 28.23 0.51001C28.23 0.23001 28.45 0 28.73 0H30.1C32.58 0 34.59 1.80001 34.59 4.01001V17.83C34.59 20.04 32.58 21.84 30.1 21.84ZM29.19 20.83H30.1C32.02 20.83 33.59 19.48 33.59 17.83V4.01001C33.59 2.36001 32.03 1.01001 30.1 1.01001H29.19C28.95 2.60001 27.58 3.81 25.93 3.81C24.28 3.81 22.91 2.59001 22.67 1.01001H4.48001C2.56001 1.01001 0.990021 2.36001 0.990021 4.01001V17.83C0.990021 19.48 2.55001 20.83 4.48001 20.83H22.67C22.91 19.24 24.28 18.03 25.93 18.03C27.58 18.03 28.95 19.25 29.19 20.83Z" fill="black"/>
<path d="M25.9004 7.26999C25.6204 7.26999 25.4004 7.03999 25.4004 6.76999V6.63C25.4004 6.35 25.6304 6.13 25.9004 6.13C26.1704 6.13 26.4004 6.36 26.4004 6.63V6.76999C26.4004 7.04999 26.1704 7.26999 25.9004 7.26999Z" fill="black"/>
<path d="M25.9004 12.98C25.6204 12.98 25.4004 12.75 25.4004 12.48V12.22C25.4004 11.94 25.6304 11.72 25.9004 11.72C26.1704 11.72 26.4004 11.95 26.4004 12.22V12.48C26.4004 12.76 26.1704 12.98 25.9004 12.98ZM25.9004 10.12C25.6204 10.12 25.4004 9.89 25.4004 9.62V9.36002C25.4004 9.08002 25.6304 8.86002 25.9004 8.86002C26.1704 8.86002 26.4004 9.09002 26.4004 9.36002V9.62C26.4004 9.9 26.1704 10.12 25.9004 10.12Z" fill="black"/>
<path d="M25.9004 15.71C25.6204 15.71 25.4004 15.48 25.4004 15.21V15.07C25.4004 14.79 25.6304 14.57 25.9004 14.57C26.1704 14.57 26.4004 14.8 26.4004 15.07V15.21C26.4004 15.49 26.1704 15.71 25.9004 15.71Z" fill="black"/>
<path d="M3.99936 12.59C3.71936 12.42 3.50937 12.2 3.34937 11.9C3.18937 11.61 3.10938 11.28 3.10938 10.92C3.10938 10.56 3.18937 10.23 3.34937 9.94C3.50937 9.65 3.71936 9.42 3.99936 9.25C4.27936 9.08 4.58935 9 4.92935 9C5.22935 9 5.49938 9.05999 5.73938 9.17999C5.97938 9.29999 6.17938 9.46001 6.32938 9.67001C6.47938 9.88001 6.57936 10.11 6.62936 10.37H5.85938C5.81938 10.19 5.70938 10.04 5.54938 9.92001C5.37938 9.80001 5.17937 9.73999 4.94937 9.73999C4.74937 9.73999 4.55935 9.79001 4.39935 9.89001C4.23935 9.99001 4.10937 10.13 4.00937 10.31C3.91937 10.49 3.86935 10.69 3.86935 10.91C3.86935 11.13 3.91937 11.33 4.00937 11.51C4.09937 11.69 4.22935 11.83 4.39935 11.93C4.55935 12.03 4.74937 12.08 4.94937 12.08C5.10937 12.08 5.24937 12.05 5.38937 11.98C5.52937 11.91 5.63937 11.83 5.72937 11.72C5.81937 11.62 5.87937 11.51 5.88937 11.4H6.65936C6.61936 11.65 6.52935 11.88 6.36935 12.1C6.20935 12.32 6.00937 12.49 5.75937 12.63C5.50937 12.76 5.22935 12.83 4.92935 12.83C4.58935 12.83 4.26936 12.75 3.99936 12.58V12.59Z" fill="black"/>
<path d="M7.48987 12.59C7.20987 12.42 6.98986 12.2 6.82986 11.9C6.66986 11.61 6.58984 11.28 6.58984 10.92C6.58984 10.56 6.66986 10.23 6.82986 9.94C6.98986 9.65 7.20987 9.42 7.48987 9.25C7.76987 9.08 8.07984 9 8.42984 9C8.77984 9 9.08984 9.08 9.36984 9.25C9.64984 9.42 9.86985 9.64 10.0298 9.94C10.1898 10.23 10.2699 10.56 10.2699 10.92C10.2699 11.28 10.1898 11.61 10.0298 11.9C9.86985 12.19 9.64984 12.42 9.36984 12.59C9.08984 12.76 8.77984 12.84 8.42984 12.84C8.07984 12.84 7.76987 12.76 7.48987 12.59ZM8.97986 11.95C9.13986 11.85 9.26984 11.71 9.36984 11.53C9.45984 11.35 9.50986 11.15 9.50986 10.92C9.50986 10.69 9.45984 10.49 9.36984 10.31C9.27984 10.13 9.14986 9.99001 8.97986 9.89001C8.81986 9.79001 8.62984 9.73999 8.42984 9.73999C8.22984 9.73999 8.03985 9.79001 7.87985 9.89001C7.71985 9.99001 7.58987 10.13 7.48987 10.31C7.39987 10.49 7.34985 10.69 7.34985 10.92C7.34985 11.15 7.39987 11.35 7.48987 11.53C7.57987 11.71 7.70985 11.85 7.87985 11.95C8.03985 12.05 8.22984 12.1 8.42984 12.1C8.62984 12.1 8.81986 12.05 8.97986 11.95Z" fill="black"/>
<path d="M10.3203 9.09H11.0803V11.13C11.0803 11.42 11.1503 11.66 11.2903 11.84C11.4303 12.02 11.6303 12.11 11.8703 12.11C12.1103 12.11 12.3103 12.02 12.4503 11.84C12.5903 11.66 12.6603 11.43 12.6603 11.13V9.09H13.4203V11.13C13.4203 11.47 13.3603 11.77 13.2303 12.03C13.1003 12.29 12.9203 12.49 12.6803 12.63C12.4503 12.77 12.1703 12.84 11.8703 12.84C11.5703 12.84 11.2903 12.77 11.0603 12.63C10.8303 12.49 10.6403 12.29 10.5103 12.03C10.3803 11.77 10.3203 11.47 10.3203 11.13V9.09Z" fill="black"/>
<path d="M13.6292 9.09H14.9291C15.2191 9.09 15.4691 9.15001 15.6791 9.26001C15.8891 9.37001 16.0491 9.53001 16.1591 9.73001C16.2691 9.93001 16.3292 10.16 16.3292 10.43C16.3292 10.7 16.2691 10.94 16.1591 11.14C16.0491 11.34 15.8891 11.5 15.6791 11.61C15.4691 11.72 15.2191 11.78 14.9291 11.78H14.3792V12.75H13.6191V9.10001L13.6292 9.09ZM14.8991 11.05C15.1091 11.05 15.2791 11 15.3991 10.89C15.5191 10.78 15.5792 10.63 15.5792 10.43C15.5792 10.23 15.5191 10.08 15.3991 9.97C15.2791 9.87 15.1191 9.81 14.8991 9.81H14.3892V11.05H14.8991Z" fill="black"/>
<path d="M17.1285 12.59C16.8485 12.42 16.6285 12.2 16.4685 11.9C16.3085 11.61 16.2285 11.28 16.2285 10.92C16.2285 10.56 16.3085 10.23 16.4685 9.94C16.6285 9.65 16.8485 9.42 17.1285 9.25C17.4085 9.08 17.7185 9 18.0685 9C18.4185 9 18.7285 9.08 19.0085 9.25C19.2885 9.42 19.5085 9.64 19.6685 9.94C19.8285 10.23 19.9085 10.56 19.9085 10.92C19.9085 11.28 19.8285 11.61 19.6685 11.9C19.5085 12.19 19.2885 12.42 19.0085 12.59C18.7285 12.76 18.4185 12.84 18.0685 12.84C17.7185 12.84 17.4085 12.76 17.1285 12.59ZM18.6185 11.95C18.7785 11.85 18.9085 11.71 19.0085 11.53C19.0985 11.35 19.1485 11.15 19.1485 10.92C19.1485 10.69 19.0985 10.49 19.0085 10.31C18.9185 10.13 18.7885 9.99001 18.6185 9.89001C18.4585 9.79001 18.2685 9.73999 18.0685 9.73999C17.8685 9.73999 17.6785 9.79001 17.5185 9.89001C17.3585 9.99001 17.2285 10.13 17.1285 10.31C17.0385 10.49 16.9885 10.69 16.9885 10.92C16.9885 11.15 17.0385 11.35 17.1285 11.53C17.2185 11.71 17.3485 11.85 17.5185 11.95C17.6785 12.05 17.8685 12.1 18.0685 12.1C18.2685 12.1 18.4585 12.05 18.6185 11.95Z" fill="black"/>
<path d="M20 9.09H20.63L22.33 11.29V9.04999H23.09V12.7H22.46L20.76 10.5V12.74H20V9.09Z" fill="black"/>
</svg>
