<svg width="36" height="24" viewBox="0 0 36 24" fill="none" xmlns="http://www.w3.org/2000/svg">
<path d="M13.6 20.53H3.14C1.41 20.53 0 19.22 0 17.6V2.92999C0 1.30999 1.41 0 3.14 0H13.6C15.33 0 16.74 1.30999 16.74 2.92999V17.6C16.74 19.22 15.33 20.53 13.6 20.53ZM3.14 0.980011C1.95 0.980011 0.979996 1.84999 0.979996 2.92999V17.6C0.979996 18.67 1.95 19.55 3.14 19.55H13.6C14.79 19.55 15.76 18.68 15.76 17.6V2.92999C15.76 1.85999 14.79 0.980011 13.6 0.980011H3.14Z" fill="black"/>
<path d="M31.1302 8.61002H25.8002V5.98001H10.6602V20.25H12.6102C12.6102 21.63 13.7302 22.76 15.1202 22.76C16.5102 22.76 17.6302 21.64 17.6302 20.25H27.7001C27.7001 21.63 28.8202 22.76 30.2001 22.76C31.5801 22.76 32.7102 21.64 32.7102 20.25H35.2702V13.59L31.1402 8.61002H31.1302Z" fill="white"/>
<path d="M25.7903 20.83H17.6103C17.2903 20.83 17.0303 20.57 17.0303 20.25C17.0303 19.93 17.2903 19.67 17.6103 19.67H25.2103V6.54999H11.2203V19.67H12.6003C12.9203 19.67 13.1803 19.93 13.1803 20.25C13.1803 20.57 12.9203 20.83 12.6003 20.83H10.6503C10.3303 20.83 10.0703 20.57 10.0703 20.25V5.98001C10.0703 5.66001 10.3303 5.39999 10.6503 5.39999H25.7903C26.1103 5.39999 26.3703 5.66001 26.3703 5.98001V20.25C26.3703 20.57 26.1103 20.83 25.7903 20.83Z" fill="black"/>
<path d="M35.2605 20.83H32.7005C32.3805 20.83 32.1205 20.57 32.1205 20.25C32.1205 19.93 32.3805 19.67 32.7005 19.67H34.6905V13.79L30.8705 9.17999H26.3805V19.67H27.7005C28.0205 19.67 28.2805 19.93 28.2805 20.25C28.2805 20.57 28.0205 20.83 27.7005 20.83H25.8105C25.4905 20.83 25.2305 20.57 25.2305 20.25V8.61002C25.2305 8.29002 25.4905 8.03 25.8105 8.03H31.1405C31.3105 8.03 31.4705 8.10999 31.5805 8.23999L35.7105 13.22C35.8005 13.32 35.8405 13.45 35.8405 13.59V20.25C35.8405 20.57 35.5805 20.83 35.2605 20.83Z" fill="black"/>
<path d="M30.1894 23.33C28.4894 23.33 27.1094 21.95 27.1094 20.25C27.1094 18.55 28.4894 17.17 30.1894 17.17C31.8894 17.17 33.2694 18.55 33.2694 20.25C33.2694 21.95 31.8894 23.33 30.1894 23.33ZM30.1894 18.32C29.1294 18.32 28.2594 19.19 28.2594 20.25C28.2594 21.31 29.1294 22.18 30.1894 22.18C31.2494 22.18 32.1194 21.31 32.1194 20.25C32.1194 19.19 31.2494 18.32 30.1894 18.32Z" fill="black"/>
<path d="M35.2604 15.15H28.9804C28.6604 15.15 28.4004 14.89 28.4004 14.57V8.70001C28.4004 8.38001 28.6604 8.12 28.9804 8.12C29.3004 8.12 29.5604 8.38001 29.5604 8.70001V13.99H35.2704C35.5904 13.99 35.8504 14.25 35.8504 14.57C35.8504 14.89 35.5904 15.15 35.2704 15.15H35.2604Z" fill="black"/>
<path d="M15.1113 23.33C13.4113 23.33 12.0312 21.95 12.0312 20.25C12.0312 18.55 13.4113 17.17 15.1113 17.17C16.8113 17.17 18.1913 18.55 18.1913 20.25C18.1913 21.95 16.8113 23.33 15.1113 23.33ZM15.1113 18.32C14.0513 18.32 13.1813 19.19 13.1813 20.25C13.1813 21.31 14.0513 22.18 15.1113 22.18C16.1713 22.18 17.0413 21.31 17.0413 20.25C17.0413 19.19 16.1713 18.32 15.1113 18.32Z" fill="black"/>
<path d="M7.24149 14.82H4.51149C4.24149 14.82 4.02148 14.6 4.02148 14.33C4.02148 14.06 4.24149 13.84 4.51149 13.84H7.24149C7.51149 13.84 7.73148 14.06 7.73148 14.33C7.73148 14.6 7.51149 14.82 7.24149 14.82Z" fill="black"/>
<path d="M10.2807 12.1H4.46071C4.19071 12.1 3.9707 11.88 3.9707 11.61C3.9707 11.34 4.19071 11.12 4.46071 11.12H10.2807C10.5507 11.12 10.7707 11.34 10.7707 11.61C10.7707 11.88 10.5507 12.1 10.2807 12.1Z" fill="black"/>
<path d="M10.2807 9.37997H4.46071C4.19071 9.37997 3.9707 9.15998 3.9707 8.88998C3.9707 8.61998 4.19071 8.39996 4.46071 8.39996H10.2807C10.5507 8.39996 10.7707 8.61998 10.7707 8.88998C10.7707 9.15998 10.5507 9.37997 10.2807 9.37997Z" fill="black"/>
<path d="M10.2807 6.65997H4.46071C4.19071 6.65997 3.9707 6.43998 3.9707 6.16998C3.9707 5.89998 4.19071 5.67996 4.46071 5.67996H10.2807C10.5507 5.67996 10.7707 5.89998 10.7707 6.16998C10.7707 6.43998 10.5507 6.65997 10.2807 6.65997Z" fill="black"/>
<path d="M12.2807 3.93997H4.46071C4.19071 3.93997 3.9707 3.71998 3.9707 3.44998C3.9707 3.17998 4.19071 2.95996 4.46071 2.95996H12.2807C12.5507 2.95996 12.7707 3.17998 12.7707 3.44998C12.7707 3.71998 12.5507 3.93997 12.2807 3.93997Z" fill="black"/>
</svg>
