<svg width="72" height="72" viewBox="0 0 72 72" fill="none" xmlns="http://www.w3.org/2000/svg">
<path d="M10.5 17.9992C10.5 16.4081 11.1321 14.8822 12.2571 13.7571C13.3822 12.6321 14.9081 12 16.4992 12H55.4943C57.0854 12 58.6113 12.6321 59.7364 13.7571C60.8615 14.8822 61.4936 16.4081 61.4936 17.9992V44.9958C61.4936 46.5869 60.8615 48.1129 59.7364 49.2379C58.6113 50.363 57.0854 50.9951 55.4943 50.9951H26.9979L13.4996 61.4937V50.9951H16.4992C14.9081 50.9951 13.3822 50.363 12.2571 49.2379C11.1321 48.1129 10.5 46.5869 10.5 44.9958V17.9992Z" stroke="#D4D4D4" stroke-width="4.19947" stroke-linecap="round" stroke-linejoin="round"/>
<path d="M35.9963 22.1953L40.0458 30.3843L49.0747 31.7041L42.5355 38.0633L44.0653 47.0622L35.9963 42.8027L27.9273 47.0622L29.4571 38.0633L22.918 31.7041L31.9468 30.3843L35.9963 22.1953Z" stroke="#D4D4D4" stroke-width="4.19947" stroke-linecap="round" stroke-linejoin="round"/>
</svg>
