<svg width="48" height="49" viewBox="0 0 48 49" fill="none" xmlns="http://www.w3.org/2000/svg">
<rect width="47.0833" height="48.3333" rx="5" fill="#D9D9D9"/>
<path d="M23.8835 32.9037C28.9159 32.9037 32.9955 28.8241 32.9955 23.7917C32.9955 18.7593 28.9159 14.6797 23.8835 14.6797C18.8511 14.6797 14.7715 18.7593 14.7715 23.7917C14.7715 28.8241 18.8511 32.9037 23.8835 32.9037Z" fill="white"/>
<path d="M23.8865 36.2693C18.9803 36.2693 14.7372 33.4339 12.7041 29.3125V31.5502C15.1597 35.0899 19.2519 37.4086 23.8865 37.4086C28.5212 37.4086 32.6133 35.0902 35.0689 31.5502V29.3125C33.0362 33.4339 28.7927 36.2693 23.8865 36.2693Z" fill="white"/>
<path d="M33.1009 15.4128V13.7994C30.6773 11.5648 27.4403 10.1992 23.8837 10.1992C20.746 10.1992 17.8571 11.2622 15.5556 13.0472C15.5556 13.0727 15.5563 13.0978 15.5563 13.1232C15.5563 13.6547 15.5067 14.1696 15.4141 14.6596C17.6374 12.5986 20.6128 11.3382 23.8834 11.3382C27.5358 11.3382 30.8211 12.9094 33.1006 15.4128H33.1009Z" fill="white"/>
<path d="M14.6301 14.6572C14.7224 14.1671 14.7723 13.6526 14.7723 13.1208C14.7723 13.0953 14.772 13.0699 14.7717 13.0448C14.7431 9.82034 12.9035 7.21875 10.6378 7.21875C8.37211 7.21875 6.50293 9.86115 6.50293 13.1208C6.50293 15.447 7.44599 17.4587 8.81601 18.42C9.15632 18.6589 9.35787 19.0491 9.35787 19.4651V38.0971C9.35787 38.8038 9.9308 39.3767 10.6375 39.3767C11.3441 39.3767 11.9171 38.8038 11.9171 38.0971V19.4651C11.9171 19.0491 12.1186 18.6589 12.4589 18.42C13.516 17.6782 14.3184 16.3113 14.6298 14.6568L14.6301 14.6572Z" fill="white"/>
<path d="M39.9463 7.21906H39.7381C39.5014 7.21906 39.3096 7.44227 39.3096 7.71759V14.8961C39.3096 15.1714 39.1178 15.3946 38.8811 15.3946H38.8566C38.6199 15.3946 38.4281 15.1714 38.4281 14.8961V7.71759C38.4281 7.44227 38.2363 7.21906 37.9996 7.21906C37.7629 7.21906 37.571 7.44227 37.571 7.71759V14.8961C37.571 15.1714 37.3792 15.3946 37.1425 15.3946H37.118C36.8813 15.3946 36.6895 15.1714 36.6895 14.8961V7.71759C36.6895 7.44227 36.4977 7.21906 36.261 7.21906C36.0243 7.21906 35.8325 7.44227 35.8325 7.71759V14.8961C35.8325 15.1714 35.6406 15.3946 35.4039 15.3946H35.3794C35.3738 15.3946 35.3681 15.394 35.3625 15.3937C35.1336 15.3833 34.9509 15.1648 34.9509 14.8961V7.71759C34.9509 7.44227 34.7591 7.21906 34.5224 7.21906H34.3143C34.0776 7.21906 33.8857 7.44227 33.8857 7.71759V17.405C33.8857 17.5601 33.9473 17.7064 34.0534 17.8006C34.2904 18.0113 34.663 18.3032 35.1547 18.549C35.5851 18.7641 35.851 19.2102 35.851 19.6911V38.0974C35.851 38.8041 36.4239 39.377 37.1306 39.377C37.8373 39.377 38.4102 38.8041 38.4102 38.0974V19.6927C38.4102 19.2058 38.6792 18.7543 39.1143 18.5358C39.6107 18.2866 39.9827 17.9959 40.2043 17.8019C40.312 17.7074 40.3754 17.5601 40.3754 17.4032V7.71728C40.3754 7.44196 40.1836 7.21875 39.9469 7.21875L39.9463 7.21906Z" fill="white"/>
</svg>
