<svg width="50" height="50" viewBox="0 0 50 50" fill="none" xmlns="http://www.w3.org/2000/svg">
<path fill-rule="evenodd" clip-rule="evenodd" d="M18.3424 10.8031L16.9752 14.3751H9.375C8.33944 14.3751 7.5 15.2145 7.5 16.2501V37.5001C7.5 38.5356 8.33944 39.3751 9.375 39.3751H40.625C41.6606 39.3751 42.5 38.5356 42.5 37.5001V16.2501C42.5 15.2145 41.6606 14.3751 40.625 14.3751H33.5497L32.1824 10.8031C31.9973 10.3194 31.533 10 31.0151 10H19.5098C18.9919 10 18.5276 10.3194 18.3424 10.8031ZM29.5701 18.3344C26.7421 16.7016 23.2579 16.7016 20.4299 18.3344C17.6019 19.9671 15.8598 22.9846 15.8598 26.2501C15.8598 29.5155 17.6019 32.5329 20.4299 34.1657C23.2579 35.7984 26.7421 35.7984 29.5701 34.1657C32.3981 32.5329 34.1403 29.5155 34.1403 26.2501C34.1403 22.9846 32.3981 19.9671 29.5701 18.3344ZM21.9924 21.0407C23.8535 19.9662 26.1465 19.9662 28.0076 21.0407C29.8688 22.1152 31.0153 24.101 31.0153 26.2501C31.0153 28.3991 29.8688 30.3849 28.0076 31.4594C26.1465 32.5339 23.8535 32.5339 21.9924 31.4594C20.1313 30.3849 18.9848 28.3991 18.9848 26.2501C18.9848 24.101 20.1313 22.1152 21.9924 21.0407Z" fill="white"/>
</svg>
