<svg width="26" height="21" viewBox="0 0 26 21" fill="none" xmlns="http://www.w3.org/2000/svg">
<path d="M24.4579 3.9811C24.0564 3.7402 23.5104 3.74028 22.9001 4.06148L20.3946 5.36247V4.09364C20.3946 2.31093 18.9491 0.865479 17.1664 0.865479H4.09339C2.31069 0.865479 0.865234 2.31093 0.865234 4.09364V16.3158C0.865234 18.0985 2.31069 19.5439 4.09339 19.5439H17.1664C18.9491 19.5439 20.3946 18.0985 20.3946 16.3158V15.0469L22.9001 16.3479C23.5104 16.6691 24.0564 16.6688 24.4579 16.4279C24.8594 16.187 25.1003 15.6893 25.1003 15.0148V5.42678C25.1003 4.73618 24.8594 4.25416 24.4579 4.01326V3.9811Z" stroke="white" stroke-width="1.73077" stroke-linecap="round" stroke-linejoin="round"/>
<path d="M11.9799 9.12075H11.3696V8.51065C11.3696 7.83611 10.8235 7.29004 10.149 7.29004C9.47444 7.29004 8.92837 7.83611 8.92837 8.51065V9.12075H8.31807C7.64353 9.12075 7.09766 9.66682 7.09766 10.3414C7.09766 11.0159 7.64353 11.562 8.31807 11.562H8.92837V12.1725C8.92837 12.847 9.47444 13.3931 10.149 13.3931C10.8235 13.3931 11.3696 12.847 11.3696 12.1725V11.562H11.9799C12.6544 11.562 13.2005 11.0159 13.2005 10.3414C13.2005 9.66682 12.6544 9.12075 11.9799 9.12075Z" fill="white"/>
</svg>
