<svg width="18" height="22" viewBox="0 0 18 22" fill="none" xmlns="http://www.w3.org/2000/svg">
<path d="M8.71541 19.2468C3.91002 19.2468 0 15.3367 0 10.5313C0 5.72595 3.91002 1.81592 8.71541 1.81592C13.5208 1.81592 17.4308 5.72595 17.4308 10.5313C17.4308 15.3367 13.5208 19.2468 8.71541 19.2468ZM8.71541 2.50592C4.28788 2.50592 0.690008 6.10381 0.690008 10.5313C0.690008 14.9589 4.28788 18.5567 8.71541 18.5567C13.1429 18.5567 16.7408 14.9589 16.7408 10.5313C16.7408 6.10381 13.1429 2.50592 8.71541 2.50592Z" fill="black"/>
<path d="M9.38195 10.5308C7.75551 8.31292 5.02014 4.84646 9.83374 0C9.83374 0 3.54978 4.27967 8.04302 10.5308C9.64482 12.7651 12.487 16.363 7.59123 21.0616C7.59123 21.0616 13.9081 16.708 9.38195 10.5308Z" fill="black"/>
<path d="M15.2786 11.5905C15.0979 10.2433 14.1122 9.30688 12.5925 9.01117L12.4858 8.98652L12.5268 8.88795C13.184 7.39294 13.0033 5.88971 12.0586 4.96149C10.4815 3.40898 6.76037 3.3022 4.13999 5.48721C2.80927 6.59615 2.32462 8.12401 2.31641 9.17545C2.31641 9.89831 2.52177 10.4897 2.8832 10.8019C4.00856 11.763 5.61857 11.1223 6.2675 10.7937C5.70893 10.7608 4.56714 10.5472 3.67999 9.44653C3.2857 8.95366 3.1707 8.25544 3.36784 7.47508C3.65534 6.31686 4.55892 5.26542 5.67607 4.78899C7.95144 3.8197 10.0954 4.47685 11.0154 6.43186C11.3522 7.13829 11.4425 7.97616 11.2865 8.84688V8.91259H11.2043C10.6622 8.94545 10.12 9.05224 9.59432 9.21653C7.70502 9.81617 6.98215 10.9169 7.07251 11.5083C7.12179 11.8451 7.42572 12.034 7.89394 12.034C9.48752 12.034 10.9743 11.2455 11.9683 9.86546L12.0093 9.80796L12.0751 9.84081C12.5597 10.1037 12.9211 10.4733 13.1511 10.9333C13.5783 11.804 13.5618 12.798 13.1018 13.7262C12.4693 14.9994 11.1386 15.9359 9.43003 16.2809C7.1793 16.7409 5.47071 16.1987 4.4932 15.5251C5.10928 16.1412 6.28393 16.9134 8.37037 17.053C10.465 17.1926 12.5597 16.363 13.9808 14.8351C14.9583 13.7919 15.4347 12.6008 15.2951 11.5658M11.0729 9.62724C10.7772 10.4569 10.2843 11.1387 9.72575 11.4919C9.30682 11.7548 8.89609 11.8615 8.55109 11.8615C8.18144 11.8615 7.87751 11.7383 7.70501 11.5412C7.44215 11.2455 7.47501 10.843 7.79537 10.4569C8.40323 9.70938 9.7586 9.30688 11.0154 9.51224L11.114 9.52867L11.0811 9.62724H11.0729Z" fill="black"/>
<path d="M4.4748 13.6445C4.56516 13.6691 4.65551 13.6938 4.72944 13.6527C4.77051 13.6281 4.80337 13.587 4.84444 13.5788C4.91837 13.5541 5.02515 13.6198 5.10729 13.6856C5.11551 13.6198 5.08265 13.5459 5.03337 13.4802C4.89372 13.2748 4.69658 13.1352 4.49944 13.0613C4.34337 13.0038 4.18728 12.9873 4.03943 12.9791C3.99835 12.9791 3.9655 12.9791 3.92443 12.9791C3.50549 12.9791 3.11122 13.0613 2.74157 13.2091C2.63478 13.2502 2.52799 13.2995 2.43763 13.3898C2.39656 13.4309 2.34727 13.5048 2.43763 13.5459C2.51156 13.5788 2.57728 13.5706 2.64299 13.5623C2.96335 13.5295 3.26728 13.4473 3.60407 13.472C3.88335 13.4884 4.16264 13.5788 4.45014 13.6527" fill="black"/>
<path d="M5.91718 13.7672C6.00754 13.7261 6.10611 13.6933 6.19647 13.6522C6.31968 13.5865 6.45111 13.5126 6.56611 13.4222C6.69754 13.3236 6.83719 13.2333 6.92754 13.0854C6.92754 13.0854 6.93576 13.069 6.94398 13.0608C7.01791 12.9375 7.04255 12.7815 7.08362 12.6418C7.12469 12.4775 7.14111 12.305 7.10004 12.1408C7.09182 12.0997 7.05897 12.0422 7.02611 12.034C6.98504 12.0258 6.92754 12.034 6.89468 12.0668C6.76325 12.1983 6.63182 12.3379 6.5086 12.4858C6.22932 12.8308 6.02397 13.2251 5.85147 13.644C5.84325 13.6686 5.83503 13.6933 5.84324 13.7097C5.84324 13.759 5.87611 13.7836 5.92539 13.7672" fill="black"/>
<path d="M6.89053 13.7833C6.77553 13.7093 6.53731 13.6108 6.45517 13.734C6.38946 13.8243 6.42231 14.0051 6.36481 14.0954C6.2991 14.2022 6.22517 14.194 6.11017 14.1447C5.98695 14.0954 5.8966 13.9968 5.81445 13.8983C5.81445 13.8983 5.82267 13.9476 5.85553 14.0133C6.03624 14.4486 6.66875 14.539 6.93983 14.1694C7.0384 14.0379 7.06303 13.8983 6.89053 13.7915" fill="black"/>
<path d="M5.64538 14.0135C5.64538 14.0135 5.6043 13.9724 5.57966 13.956C5.47287 13.8902 5.35787 13.8492 5.23466 13.8328C5.0293 13.8081 4.82394 13.8574 4.62679 13.9231C4.38036 14.0135 4.14215 14.1285 3.91215 14.2517C3.73965 14.3503 3.57536 14.4653 3.41928 14.5803C3.32893 14.646 3.24678 14.7199 3.16464 14.802C3.11535 14.8431 2.95107 14.9745 2.95928 15.0403C2.95928 15.0485 2.95929 15.0567 2.97571 15.0649C3.03321 15.1142 4.3475 15.2292 4.58572 15.147C4.75001 15.0895 4.91429 15.0403 5.07036 14.9663C5.35786 14.8349 5.4893 14.4981 5.65359 14.2188C5.67823 14.1695 5.69466 14.0792 5.67002 14.0299C5.67002 14.0217 5.6618 14.0135 5.65359 14.0135" fill="black"/>
<path d="M5.56626 13.4224C5.60733 13.4224 5.6484 13.4142 5.67305 13.3895C5.67305 13.3895 5.67305 13.3977 5.67305 13.4059C5.65662 13.6524 5.49233 13.6688 5.53341 13.6688C5.62376 13.6688 5.67305 13.5949 5.70591 13.5045C5.73877 13.4306 5.73877 13.3402 5.70591 13.2663C5.70591 13.2663 5.70591 13.2581 5.70591 13.2499C5.70591 13.2499 5.70591 13.2499 5.70591 13.2417C5.6977 13.2252 5.68127 13.2088 5.66484 13.1924C5.64841 13.1842 5.63198 13.1759 5.61555 13.1759C5.54162 13.1677 5.4759 13.217 5.46769 13.2909C5.45948 13.3649 5.50876 13.4306 5.58269 13.4388" fill="black"/>
<path d="M5.14987 13.2829C5.14987 13.2829 5.21559 13.3651 5.25666 13.3979C5.28952 13.4226 5.32237 13.439 5.35523 13.4554C5.37166 13.4554 5.38809 13.4719 5.40451 13.4719C5.40451 13.4719 5.42916 13.4801 5.42095 13.4719C5.30595 13.3897 5.19095 13.2747 5.1663 13.1515C5.1663 13.1186 5.1663 13.0858 5.1663 13.0611C5.18273 13.0283 5.21559 13.0036 5.21559 12.9708C5.21559 12.9297 5.15809 12.8969 5.11702 12.9051H5.10059C5.0513 12.9133 5.03488 12.9544 5.02666 12.9954C5.01845 13.0447 5.02665 13.094 5.04308 13.1351C5.06772 13.1926 5.10058 13.2419 5.13344 13.2912" fill="black"/>
<path d="M4.22725 12.3457C3.97261 12.2307 3.70975 12.0254 3.61939 11.8857C3.52903 11.7461 3.69332 11.7296 3.86582 11.6886C4.03011 11.6475 3.9151 11.6639 4.03011 11.6475C4.15332 11.6311 4.56405 11.7625 4.97476 11.9514C5.37727 12.1321 5.66476 12.1404 5.71405 12.4607C5.75512 12.7811 5.68941 12.8632 5.57441 12.9289C5.45941 12.9947 5.40191 12.7811 5.18012 12.7729C4.95012 12.7647 4.96654 12.8386 4.85975 12.7482C4.75296 12.6579 4.49011 12.4525 4.23546 12.3375" fill="black"/>
<path d="M5.72658 14.4736C5.72658 14.4736 5.57051 15.1964 5.75944 15.4593C5.94837 15.7221 6.2523 16.1411 6.31801 15.6564C6.38373 15.1718 5.77586 14.0793 5.72658 14.4736Z" fill="black"/>
</svg>
