<svg width="22" height="25" viewBox="0 0 22 25" fill="none" xmlns="http://www.w3.org/2000/svg">
<path d="M15.0033 3.89746H18.4872C18.6061 3.89746 18.737 3.90939 18.8559 3.93317C18.9748 3.95695 19.0819 3.99244 19.2008 4.04C19.3078 4.08756 19.4147 4.14718 19.5098 4.20663C19.6049 4.26608 19.7002 4.34925 19.7834 4.43248C19.8666 4.51572 19.9379 4.59893 20.0092 4.70595C20.0687 4.80107 20.1282 4.9081 20.1757 5.01512C20.2233 5.12213 20.2589 5.24109 20.2827 5.35999C20.3065 5.4789 20.3184 5.59788 20.3184 5.72868V22.2804C20.3184 22.4112 20.3065 22.5302 20.2827 22.6491C20.2589 22.768 20.2233 22.8748 20.1757 22.9937C20.1282 23.1007 20.0687 23.2078 20.0092 23.3029C19.9379 23.398 19.8666 23.4931 19.7834 23.5764C19.7002 23.6596 19.6168 23.7312 19.5098 23.8025C19.4147 23.8619 19.3078 23.9213 19.2008 23.9688C19.0937 24.0164 18.9748 24.0522 18.8559 24.076C18.737 24.0997 18.618 24.1117 18.4872 24.1117H2.69645C2.56565 24.1117 2.44668 24.1116 2.32777 24.076C2.20886 24.0522 2.1018 24.0164 1.98289 23.9688C1.87587 23.9213 1.76885 23.8619 1.67372 23.8025C1.5786 23.7312 1.48349 23.6596 1.40026 23.5764C1.31702 23.4931 1.24575 23.4099 1.1744 23.3029C1.10306 23.2078 1.05548 23.1007 1.00792 22.9937C0.960354 22.8867 0.924723 22.768 0.900941 22.6491C0.87716 22.5302 0.865234 22.4112 0.865234 22.2804V5.72868C0.865234 5.59788 0.87716 5.4789 0.900941 5.35999C0.924723 5.24109 0.960354 5.13402 1.00792 5.01512C1.05548 4.9081 1.11495 4.80107 1.1744 4.70595C1.23386 4.61082 1.31702 4.51572 1.40026 4.43248C1.48349 4.34925 1.5667 4.27798 1.67372 4.20663C1.76885 4.13529 1.87587 4.08756 1.98289 4.04C2.08991 3.99244 2.20886 3.95695 2.32777 3.93317C2.44668 3.90939 2.56565 3.89746 2.69645 3.89746H6.18035" stroke="white" stroke-width="1.73077" stroke-linecap="round" stroke-linejoin="round"/>
<path d="M14.5497 4.15923V4.19493C14.5497 3.41015 13.9076 2.76782 13.1228 2.76782H12.457C12.457 2.76782 12.457 2.73239 12.457 2.7205C12.457 1.6979 11.6245 0.865479 10.6019 0.865479C9.57935 0.865479 8.74707 1.6979 8.74707 2.7205C8.74707 2.73239 8.74707 2.75593 8.74707 2.76782H8.08112C7.29634 2.76782 6.6543 3.41015 6.6543 4.19493V4.15923C6.6543 4.24246 6.65432 4.02837 6.6781 4.09972C6.66621 4.14728 6.6543 4.1947 6.6543 4.25416V5.20547C6.6543 5.52652 6.91587 5.7762 7.22503 5.7762H13.9909C14.3001 5.7762 14.5616 5.51463 14.5616 5.20547V4.25416C14.5616 4.25416 14.5616 4.14728 14.5378 4.09972C14.5497 4.02837 14.5616 4.23057 14.5616 4.15923H14.5497Z" stroke="white" stroke-width="1.73077" stroke-linecap="round" stroke-linejoin="round"/>
<path d="M9.18945 17.417H11.9004" stroke="white" stroke-width="1.78361" stroke-linecap="round" stroke-linejoin="round"/>
<path d="M11.6147 10.7698H11.1628V10.3178C11.1628 9.81836 10.7585 9.41406 10.2591 9.41406C9.75971 9.41406 9.35556 9.81836 9.35556 10.3178V10.7698H8.90371C8.4043 10.7698 8 11.1741 8 11.6735C8 12.1729 8.4043 12.5769 8.90371 12.5769H9.35556V13.0289C9.35556 13.5283 9.75971 13.9326 10.2591 13.9326C10.7585 13.9326 11.1628 13.5283 11.1628 13.0289V12.5769H11.6147C12.1141 12.5769 12.5184 12.1729 12.5184 11.6735C12.5184 11.1741 12.1141 10.7698 11.6147 10.7698Z" fill="white"/>
</svg>
