<svg width="16" height="23" viewBox="0 0 16 23" fill="none" xmlns="http://www.w3.org/2000/svg">
<path d="M14.5759 19.7351V16.9525C14.5759 14.075 12.7921 11.6135 10.2832 10.6028" stroke="white" stroke-width="1.73077" stroke-linecap="round" stroke-linejoin="round"/>
<path d="M7.71595 0.865479C4.8384 0.865479 2.50781 3.19621 2.50781 6.07376C2.50781 8.02384 3.57795 9.7121 5.15942 10.6039C5.92042 11.032 6.78847 11.2818 7.71595 11.2818C8.64342 11.2818 9.51147 11.032 10.2725 10.6039C11.8539 9.7121 12.9241 8.01195 12.9241 6.07376C12.9241 3.19621 10.5935 0.865479 7.71595 0.865479Z" stroke="white" stroke-width="1.73077" stroke-linecap="round" stroke-linejoin="round"/>
<path d="M5.15776 10.6033C2.63693 11.614 0.865234 14.0755 0.865234 16.953V19.7355C0.865234 20.5679 1.54303 21.2454 2.37538 21.2454H13.0651C13.8975 21.2454 14.5753 20.5679 14.5753 19.7355" stroke="white" stroke-width="1.73077" stroke-linecap="round" stroke-linejoin="round"/>
</svg>
