<svg width="79" height="11" viewBox="0 0 79 11" fill="none" xmlns="http://www.w3.org/2000/svg">
<path d="M7.28612 4.75666C8.07469 4.85524 8.66612 4.97024 9.07684 5.10167C10.3172 5.51238 10.9415 6.23524 10.9415 7.27847C10.9415 8.1574 10.4815 8.85562 9.55327 9.36491C9.06863 9.63598 8.53469 9.80027 7.95969 9.8742C7.68861 9.90706 7.1054 9.92349 6.21825 9.92349H0V9.68527H1.21572C1.42108 9.68527 1.73321 9.61134 1.73321 9.27455V0.830208C1.73321 0.550921 1.51965 0.419491 1.24036 0.419491H0V0.181274H5.26538C6.54682 0.181274 7.47504 0.230561 8.05005 0.329133C9.77506 0.624849 10.6458 1.35592 10.6458 2.52236C10.6458 3.11379 10.3829 3.61487 9.84899 4.0338C9.31506 4.44452 8.46076 4.68273 7.29433 4.74023L7.28612 4.75666ZM3.75395 0.657706V4.63345H4.0661C5.53646 4.63345 7.03969 4.54309 7.50791 4.37059C8.23899 4.0913 8.60863 3.53273 8.60863 2.71129C8.60863 1.93093 8.23899 1.3395 7.50791 0.92878C6.91648 0.600206 5.42147 0.435919 4.10717 0.435919H3.99216C3.9018 0.435919 3.76216 0.526277 3.76216 0.665921L3.75395 0.657706ZM3.75395 4.83881V9.47991C3.75395 9.59491 3.82788 9.68527 3.97574 9.68527H4.31253C5.04361 9.68527 6.03753 9.66884 6.35789 9.62777C6.97397 9.55384 7.4504 9.38955 7.7954 9.14312C8.42791 8.68312 8.74006 8.05061 8.74006 7.24561C8.74006 6.4981 8.46076 5.93131 7.9104 5.54524C7.23683 5.07702 5.58575 4.83881 4.04966 4.83881H3.75395Z" fill="black"/>
<path d="M17.594 0.000143261C18.7029 -0.00807108 19.7954 0.33693 20.8715 1.04336C22.4076 2.04551 23.1797 3.39267 23.1797 5.09303C23.1797 6.5059 22.5965 7.69698 21.4219 8.6827C20.2883 9.63557 19.0151 10.1038 17.6104 10.1038C16.7315 10.1038 15.8443 9.882 14.949 9.43021C13.8893 8.90449 13.1089 8.18163 12.5997 7.27805C12.2054 6.57162 12 5.79947 12 4.96161C12 4.03338 12.2957 3.17909 12.8789 2.39873C13.4457 1.6348 14.2343 1.02694 15.2447 0.550504C16.025 0.189073 16.8054 0.0083576 17.6022 0.000143261H17.594ZM17.6597 0.230144C16.3125 0.205501 15.3515 0.755863 14.7682 1.87301C14.3493 2.67802 14.1357 3.72946 14.1357 5.02732C14.1357 8.25556 15.294 9.87378 17.6022 9.87378C19.9104 9.87378 21.0604 8.24734 21.0604 5.00268C21.0604 3.73767 20.8551 2.71088 20.4526 1.9223C19.8858 0.813362 18.9493 0.246573 17.6597 0.230144Z" fill="black"/>
<path d="M49.278 0.000143261C50.3869 -0.00807108 51.4794 0.33693 52.5555 1.04336C54.0916 2.04551 54.8555 3.39267 54.8555 5.09303C54.8555 6.5059 54.2723 7.69698 53.0976 8.6827C51.9641 9.63557 50.699 10.1038 49.2862 10.1038C48.4072 10.1038 47.5201 9.882 46.6247 9.43021C45.5651 8.90449 44.7847 8.18163 44.2754 7.27805C43.8811 6.57162 43.6758 5.79947 43.6758 4.96161C43.6758 4.03338 43.9715 3.17909 44.5547 2.39873C45.1215 1.6348 45.9101 1.02694 46.9204 0.550504C47.7008 0.189073 48.4812 0.0083576 49.278 0.000143261ZM49.3437 0.230144C47.9965 0.205501 47.0354 0.755863 46.444 1.87301C46.0251 2.67802 45.8115 3.72946 45.8115 5.02732C45.8115 8.25556 46.9697 9.87378 49.278 9.87378C51.5862 9.87378 52.7362 8.24734 52.7362 5.00268C52.7362 3.73767 52.5308 2.71088 52.1283 1.9223C51.5615 0.813362 50.6251 0.246573 49.3355 0.230144H49.3437Z" fill="black"/>
<path d="M25.0281 0.706712C25.0281 0.591711 24.9049 0.427424 24.6421 0.427424H23.3689V0.189209H27.0489L30.4414 7.16319L33.4643 0.189209H37.2922V0.427424H36.0436C35.8382 0.427424 35.5589 0.534211 35.5589 0.805285V9.24141C35.5589 9.54534 35.6986 9.68499 35.9779 9.68499H37.2922V9.92321H31.7393V9.68499H32.9632C33.2425 9.68499 33.4643 9.5782 33.4643 9.29891V0.9285L29.6364 9.72606L25.3239 1.25707V9.27427C25.3239 9.62749 25.3978 9.68499 25.7264 9.68499H27.2214V9.92321H23.2949V9.68499H24.601C24.9542 9.68499 25.0446 9.53713 25.0446 9.27427V0.706712H25.0281Z" fill="black"/>
<path d="M37.9305 0.197388H43.4752V0.435603H42.2348C41.9309 0.435603 41.7337 0.534175 41.7337 0.780605V9.29888C41.7337 9.66031 41.9966 9.69317 42.1937 9.69317H43.467V9.93138H37.9223V9.69317H39.1709C39.3844 9.69317 39.6555 9.64388 39.6555 9.29888V0.780605C39.6555 0.59989 39.4994 0.435603 39.2037 0.435603H37.9141V0.197388H37.9305Z" fill="black"/>
<path d="M66.1222 9.66003C65.9169 9.60253 65.7526 9.47931 65.5883 9.33146C64.4383 8.26359 64.4547 6.67822 63.2883 5.635C62.7543 5.15036 61.8097 4.7725 61.1033 4.83821C62.0315 4.74785 63.2308 4.58357 63.699 4.33714C64.4958 3.92642 64.8901 3.32677 64.8901 2.52176C64.8901 1.92212 64.6683 1.41283 64.2165 0.993898C63.6579 0.46818 62.7297 0.205322 61.4154 0.205322H55.2875V0.443537H56.4293C56.725 0.443537 56.8729 0.607825 56.8729 0.895327V9.2986C56.8729 9.61074 56.7497 9.7011 56.3472 9.7011H55.2793V9.93932H60.6268V9.7011H59.255C59.0415 9.7011 58.9265 9.60253 58.9265 9.30681V4.96964H59.0743C62.4669 4.96964 61.9329 9.93932 64.9887 9.93932H66.4508V9.7011L66.1058 9.67646L66.1222 9.66003ZM58.9511 4.73143V0.73104C58.9511 0.574967 59.0168 0.427108 59.255 0.427108H59.5425C60.249 0.427108 60.3476 0.435323 60.6022 0.459966C61.1772 0.525681 61.6208 0.657111 61.9494 0.870684C62.5408 1.25676 62.8283 1.83176 62.8283 2.60391C62.8283 4.02499 60.9801 4.73143 59.1072 4.73143H58.9511Z" fill="black"/>
<path d="M71.4622 0.041748H72.0865L76.6783 9.35682C76.6783 9.35682 76.8672 9.68539 77.1794 9.68539H78.3704V9.9236H72.7272V9.68539H74.1319C74.3947 9.68539 74.2961 9.3486 74.2961 9.3486L73.0886 6.90894C73.0886 6.90894 72.9983 6.73644 72.834 6.73644H68.8747C68.694 6.73644 68.6365 6.87608 68.6365 6.87608L67.8314 8.60109C67.6754 8.92967 67.6014 9.15145 67.6014 9.27467C67.6014 9.55396 68.0204 9.6936 68.8665 9.6936H69.2443V9.93182H65.6875V9.6936H66.09C66.5172 9.6936 66.8375 9.58682 67.0429 9.38146C67.1332 9.28289 67.2729 9.02003 67.4782 8.58467L71.454 0.0581771L71.4622 0.041748ZM68.9979 6.49822H72.7272C72.9079 6.49822 72.8258 6.33394 72.8258 6.33394C72.8258 6.33394 71.0104 2.5882 70.9036 2.39927C70.7886 2.21034 70.7065 2.39927 70.7065 2.39927L68.8911 6.37501C68.8911 6.37501 68.8336 6.50644 68.9979 6.50644V6.49822Z" fill="black"/>
</svg>
