<svg width="23" height="29" viewBox="0 0 23 29" fill="none" xmlns="http://www.w3.org/2000/svg">
<path d="M19.7066 21.0515H19.08V20.4249C19.08 19.7315 18.52 19.1582 17.8133 19.1582C17.1066 19.1582 16.5466 19.7182 16.5466 20.4249V21.0515H15.92C15.2266 21.0515 14.6533 21.6115 14.6533 22.3182C14.6533 23.0249 15.2133 23.5848 15.92 23.5848H16.5466V24.2115C16.5466 24.9048 17.1066 25.4782 17.8133 25.4782C18.52 25.4782 19.08 24.9182 19.08 24.2115V23.5848H19.7066C20.3999 23.5848 20.9733 23.0249 20.9733 22.3182C20.9733 21.6115 20.4133 21.0515 19.7066 21.0515Z" fill="#F05A8C"/>
<path d="M14.7864 25.5848C13.9331 26.2114 13.0665 26.8114 12.2131 27.4114C11.6665 27.7848 11.1865 27.7848 10.6931 27.4381C6.0265 24.1848 0.533203 20.4248 0.533203 14.2382V5.29154C0.533203 4.95821 0.893201 4.69155 1.19987 4.69155C5.37318 4.65155 7.85315 3.23822 10.9198 0.718236C11.2131 0.478237 11.6398 0.464904 11.9331 0.718236C14.9731 3.26489 17.5198 4.66488 21.6531 4.70488C21.9731 4.70488 22.3331 4.97155 22.3331 5.30488V14.3982C22.3331 16.4781 21.5997 18.3981 20.4664 20.1048" stroke="#676767" stroke-width="1.06666" stroke-linecap="round" stroke-linejoin="round"/>
<path d="M11.4131 7.3584V20.1983" stroke="#676767" stroke-width="1.06666" stroke-linecap="round" stroke-linejoin="round"/>
</svg>
