<svg width="29" height="26" viewBox="0 0 29 26" fill="none" xmlns="http://www.w3.org/2000/svg">
<path d="M18.8383 20.2693L14.225 24.6293L5.85167 16.656C4.63834 15.496 3.59834 14.3227 2.53168 13.0427C1.46502 11.7627 0.798354 10.376 0.571689 8.76269C0.225024 5.30938 2.25168 2.18939 5.385 1.01606C8.51831 -0.157262 12.2383 0.9494 14.2383 3.85605C16.3183 0.816067 20.0649 -0.237262 23.3316 1.1094C26.5982 2.45606 28.4515 5.78937 27.8115 9.28269C27.5582 10.6427 26.8916 11.7627 26.1049 12.8827C25.7316 13.3093 25.3582 13.736 24.9982 14.1493" stroke="#676767" stroke-width="1.06666" stroke-linecap="round" stroke-linejoin="round"/>
<path d="M24.0914 16.1228H23.4647V15.4962C23.4647 14.8028 22.9047 14.2295 22.1981 14.2295C21.4914 14.2295 20.9314 14.7895 20.9314 15.4962V16.1228H20.3047C19.6114 16.1228 19.0381 16.6828 19.0381 17.3895C19.0381 18.0961 19.5981 18.6561 20.3047 18.6561H20.9314V19.2828C20.9314 19.9761 21.4914 20.5495 22.1981 20.5495C22.9047 20.5495 23.4647 19.9895 23.4647 19.2828V18.6561H24.0914C24.7847 18.6561 25.3581 18.0961 25.3581 17.3895C25.3581 16.6828 24.798 16.1228 24.0914 16.1228Z" fill="#F05A8C"/>
</svg>
