<svg width="23" height="30" viewBox="0 0 23 30" fill="none" xmlns="http://www.w3.org/2000/svg">
<path d="M15.3731 29.453C19.3731 23.3997 16.1598 18.8398 12.3864 13.7998C9.3198 9.70649 6.1998 5.62651 8.03979 0.533203C4.65315 2.03986 3.01318 5.19984 3.10651 8.65316C3.17318 10.8665 1.98653 12.6265 0.533203 14.2398C3.81319 16.1198 2.30653 18.4398 2.90652 21.0531C3.10652 21.9331 4.34649 22.3731 5.21315 22.2797L9.29312 21.8931C10.5331 21.7731 11.4665 22.5597 11.8131 23.7064C12.3865 25.5731 11.9331 27.5731 10.6264 28.9864" stroke="#676767" stroke-width="1.06666" stroke-linecap="round" stroke-linejoin="round"/>
<path d="M18.7467 10.5865V11.3465C18.7467 12.1865 18.0667 12.8799 17.2134 12.8799C16.36 12.8799 15.68 12.1999 15.68 11.3465V10.5865H14.92C14.08 10.5865 13.3867 9.90654 13.3867 9.05321C13.3867 8.19988 14.0667 7.51988 14.92 7.51988H15.68V6.75989C15.68 5.91989 16.36 5.22656 17.2134 5.22656C18.0667 5.22656 18.7467 5.90656 18.7467 6.75989V7.51988H19.5067C20.3467 7.51988 21.04 8.19988 21.04 9.05321C21.04 9.90654 20.36 10.5865 19.5067 10.5865H18.7467Z" fill="#F05A8C"/>
<path d="M21.3862 4.54635V4.90635C21.3862 5.30635 21.0662 5.62635 20.6662 5.62635C20.2662 5.62635 19.9462 5.30635 19.9462 4.90635V4.54635H19.5862C19.1862 4.54635 18.8662 4.22636 18.8662 3.82636C18.8662 3.42636 19.1862 3.10636 19.5862 3.10636H19.9462V2.74636C19.9462 2.34636 20.2662 2.02637 20.6662 2.02637C21.0662 2.02637 21.3862 2.34636 21.3862 2.74636V3.10636H21.7462C22.1462 3.10636 22.4662 3.42636 22.4662 3.82636C22.4662 4.22636 22.1462 4.54635 21.7462 4.54635H21.3862Z" fill="#F05A8C"/>
</svg>
