<svg width="28" height="30" viewBox="0 0 28 30" fill="none" xmlns="http://www.w3.org/2000/svg">
<path d="M8.66699 12.2531H22.1203C24.6269 12.2531 26.6536 10.3198 26.6536 7.93312C26.6536 5.54647 24.6269 3.61315 22.1203 3.61315H16.0936C16.0936 3.61315 13.6803 3.75981 13.6803 2.01315V0.493164" stroke="#676767" stroke-width="0.986661" stroke-linecap="round" stroke-linejoin="round"/>
<path d="M8.66699 12.2529H21.5869C24.3869 12.2529 26.6402 14.4129 26.6402 17.0796C26.6402 17.4129 26.6002 17.7329 26.5336 18.0396" stroke="#676767" stroke-width="0.986661" stroke-linecap="round" stroke-linejoin="round"/>
<path d="M8.66699 21.9062H19.5603C19.5603 21.9062 21.8536 21.9862 21.8536 24.8529V29.1595" stroke="#676767" stroke-width="0.986661" stroke-linecap="round" stroke-linejoin="round"/>
<path d="M18.9465 17.3994H5.49327C2.98662 17.3994 0.959961 19.3327 0.959961 21.7194C0.959961 24.106 2.98662 26.0394 5.49327 26.0394H11.5199C11.5199 26.0394 13.9332 25.8927 13.9332 27.6394V29.1593" stroke="#676767" stroke-width="0.986661" stroke-linecap="round" stroke-linejoin="round"/>
<path d="M18.9469 17.4H6.02694C3.22696 17.4 0.973633 15.24 0.973633 12.5733C0.973633 12.2533 1.0003 11.9467 1.06697 11.6533" stroke="#676767" stroke-width="0.986661" stroke-linecap="round" stroke-linejoin="round"/>
<path d="M18.9464 7.74646H8.05309C8.05309 7.74646 5.75977 7.66646 5.75977 4.79981V0.493164" stroke="#676767" stroke-width="0.986661" stroke-linecap="round" stroke-linejoin="round"/>
<path d="M5.05331 7.21266H4.42664V6.586C4.42664 5.89267 3.86665 5.31934 3.15999 5.31934C2.45332 5.31934 1.89332 5.87933 1.89332 6.586V7.21266H1.26667C0.573336 7.21266 0 7.77266 0 8.47932C0 9.18598 0.560003 9.74598 1.26667 9.74598H1.89332V10.3726C1.89332 11.066 2.45332 11.6393 3.15999 11.6393C3.86665 11.6393 4.42664 11.0793 4.42664 10.3726V9.74598H5.05331C5.74664 9.74598 6.31997 9.18598 6.31997 8.47932C6.31997 7.77266 5.75997 7.21266 5.05331 7.21266Z" fill="#F05A8C"/>
<path d="M25.8131 19.1326H25.1864V18.5059C25.1864 17.8126 24.6264 17.2393 23.9198 17.2393C23.2131 17.2393 22.6531 17.7993 22.6531 18.5059V19.1326H22.0264C21.3331 19.1326 20.7598 19.6926 20.7598 20.3992C20.7598 21.1059 21.3198 21.6659 22.0264 21.6659H22.6531V22.2926C22.6531 22.9859 23.2131 23.5592 23.9198 23.5592C24.6264 23.5592 25.1864 22.9992 25.1864 22.2926V21.6659H25.8131C26.5064 21.6659 27.0797 21.1059 27.0797 20.3992C27.0797 19.6926 26.5197 19.1326 25.8131 19.1326Z" fill="#F05A8C"/>
</svg>
