<svg width="24" height="32" viewBox="0 0 24 32" fill="none" xmlns="http://www.w3.org/2000/svg">
<path d="M3.44824 22.9834C3.75491 24.1567 4.10155 25.2767 4.67488 26.3434C5.24821 27.41 5.87488 28.3434 6.72821 29.1434C9.03487 31.2767 12.3415 31.8233 15.1948 30.5167" stroke="#676767" stroke-width="1.06666" stroke-linecap="round" stroke-linejoin="round"/>
<path d="M1.94181 19.3295C1.78182 18.8495 1.52849 18.4229 1.11516 18.4762C0.95516 18.5029 0.741805 18.6629 0.675138 18.8495C0.101808 20.4762 1.34181 23.3695 3.02181 24.2762L3.44848 22.9695" stroke="#676767" stroke-width="1.06666" stroke-linecap="round" stroke-linejoin="round"/>
<path d="M22.5681 15.9565C23.1548 12.3831 22.7815 8.35649 20.8881 5.23651C19.5415 3.00985 17.4215 1.4632 14.8882 0.863201C13.0082 0.423204 11.1015 0.423204 9.20818 0.863201C5.22154 1.7832 2.67491 4.86318 1.72824 8.78316C0.941583 12.0498 1.22158 14.6098 1.76824 17.8764" stroke="#676767" stroke-width="1.06666" stroke-linecap="round" stroke-linejoin="round"/>
<path d="M16.9683 4.66309C15.8883 6.14308 14.475 7.23641 12.7683 7.90307C11.0616 8.56973 9.47497 8.8364 7.79497 9.46306C4.80832 10.5831 3.40835 13.023 2.56836 16.0364" stroke="#676767" stroke-width="1.06666" stroke-linecap="round" stroke-linejoin="round"/>
<path d="M21.3545 15.7698C20.4479 12.1565 17.2345 9.67651 13.5012 9.43651C13.2746 9.42318 13.1146 9.27651 13.0879 9.08984" stroke="#676767" stroke-width="1.06666" stroke-linecap="round" stroke-linejoin="round"/>
<path d="M19.8621 26.1033V26.7033C19.8621 27.3699 19.3287 27.9166 18.6487 27.9166C17.9688 27.9166 17.4354 27.3832 17.4354 26.7033V26.1033H16.8354C16.1687 26.1033 15.6221 25.5699 15.6221 24.8899C15.6221 24.2099 16.1554 23.6766 16.8354 23.6766H17.4354V23.0766C17.4354 22.4099 17.9688 21.8633 18.6487 21.8633C19.3287 21.8633 19.8621 22.3966 19.8621 23.0766V23.6766H20.462C21.1287 23.6766 21.6754 24.2099 21.6754 24.8899C21.6754 25.5699 21.142 26.1033 20.462 26.1033H19.8621Z" fill="#F05A8C"/>
<path d="M21.9687 21.3164V21.5964C21.9687 21.9164 21.7154 22.1697 21.3954 22.1697C21.0754 22.1697 20.8221 21.9164 20.8221 21.5964V21.3164H20.5421C20.2221 21.3164 19.9688 21.0631 19.9688 20.7431C19.9688 20.4231 20.2221 20.1697 20.5421 20.1697H20.8221V19.8897C20.8221 19.5697 21.0754 19.3164 21.3954 19.3164C21.7154 19.3164 21.9687 19.5697 21.9687 19.8897V20.1697H22.2487C22.5687 20.1697 22.8221 20.4231 22.8221 20.7431C22.8221 21.0631 22.5687 21.3164 22.2487 21.3164H21.9687Z" fill="#F05A8C"/>
</svg>
