<svg width="29" height="31" viewBox="0 0 29 31" fill="none" xmlns="http://www.w3.org/2000/svg">
<path d="M25.1561 30.4397C26.5295 26.533 27.0228 22.3864 25.6495 18.4131C22.2095 18.9731 18.7962 19.3064 15.2895 19.4531C14.8895 19.4531 14.4895 19.4664 14.0895 19.4798H14.2762C13.8762 19.4798 13.4762 19.4798 13.0762 19.4531C9.56956 19.3064 6.15625 18.9731 2.71627 18.4131C1.34294 22.3864 1.83627 26.533 3.2096 30.4397" stroke="#676767" stroke-width="1.06666" stroke-linecap="round" stroke-linejoin="round"/>
<path d="M26.3703 20.7197C22.717 21.2797 19.0903 21.6131 15.3703 21.7597C14.957 21.7597 14.5303 21.7731 14.117 21.7864H14.2503C13.837 21.7864 13.4103 21.7864 12.997 21.7597C9.27703 21.6131 5.65038 21.2797 1.99707 20.7197" stroke="#676767" stroke-width="1.06666" stroke-linejoin="round"/>
<path d="M5.86348 0.533203C7.06347 3.07986 7.4768 6.27984 7.21014 9.07982C7.01014 11.1598 6.25014 13.0798 4.90348 14.6665C4.31682 15.3598 3.83682 16.0798 3.41016 16.8798C7.1168 17.4398 10.7434 17.7998 14.4768 17.8531H13.8901C17.6234 17.7998 21.2501 17.4398 24.9567 16.8798C24.53 16.0798 24.05 15.3598 23.4634 14.6665C22.1167 13.0798 21.3567 11.1598 21.1567 9.07982C20.8901 6.27984 21.3034 3.07986 22.5034 0.533203" stroke="#676767" stroke-width="1.06666" stroke-linecap="round" stroke-linejoin="round"/>
<path d="M0.369998 6.42694C-0.123333 6.92027 -0.123333 7.72027 0.369998 8.2136L0.809995 8.65359L0.369998 9.09359C-0.123333 9.58692 -0.123333 10.3869 0.369998 10.8802C0.863329 11.3736 1.66332 11.3736 2.15666 10.8802L3.50331 9.53359C3.99664 9.04026 3.99664 8.24026 3.50331 7.74693L2.15666 6.40027C1.66332 5.90694 0.863329 5.90694 0.369998 6.40027V6.42694Z" fill="#F05A8C"/>
<path d="M27.9828 6.40027C27.4895 5.90694 26.6895 5.90694 26.1961 6.40027L24.8495 7.74693C24.3562 8.24026 24.3562 9.04026 24.8495 9.53359L26.1961 10.8802C26.6895 11.3736 27.4895 11.3736 27.9828 10.8802C28.4761 10.3869 28.4761 9.58692 27.9828 9.09359L27.5428 8.65359L27.9828 8.2136C28.4761 7.72027 28.4761 6.92027 27.9828 6.42694V6.40027Z" fill="#F05A8C"/>
<path d="M14.1836 29.4127V26.3994" stroke="#676767" stroke-width="1.06666" stroke-linecap="round" stroke-linejoin="round"/>
<path d="M14.1836 14.413C14.5665 14.413 14.8769 14.1026 14.8769 13.7197C14.8769 13.3368 14.5665 13.0264 14.1836 13.0264C13.8006 13.0264 13.4902 13.3368 13.4902 13.7197C13.4902 14.1026 13.8006 14.413 14.1836 14.413Z" fill="#676767"/>
</svg>
