<svg width="20" height="20" viewBox="0 0 20 20" fill="none" xmlns="http://www.w3.org/2000/svg">
<path opacity="0.3" d="M10 20C15.5229 20 20 15.5228 20 9.99998C20 4.47714 15.5229 0 10 0C4.47716 0 0 4.47714 0 9.99998C0 15.5228 4.47716 20 10 20Z" fill="#EE406F"/>
<path opacity="0.3" d="M9.99952 17.5595C14.1759 17.5595 17.5615 14.1739 17.5615 9.99754C17.5615 5.82116 14.1759 2.43555 9.99952 2.43555C5.82314 2.43555 2.4375 5.82116 2.4375 9.99754C2.4375 14.1739 5.82314 17.5595 9.99952 17.5595Z" fill="#EE406F"/>
<path opacity="0.3" d="M9.99963 14.7551C12.626 14.7551 14.7551 12.626 14.7551 9.9996C14.7551 7.37322 12.626 5.24414 9.99963 5.24414C7.37324 5.24414 5.24414 7.37322 5.24414 9.9996C5.24414 12.626 7.37324 14.7551 9.99963 14.7551Z" fill="#EE406F"/>
<path d="M16 8L14.6667 8L14.6667 6.26667L12.6 8.33333L11.6667 7.4L13.7333 5.33333L12 5.33333L12 4L16 4L16 8ZM8.33333 12.6L6.26667 14.6667L8 14.6667L8 16L4 16L4 12L5.33333 12L5.33333 13.7333L7.4 11.6667L8.33333 12.6Z" fill="white"/>
</svg>
