<svg width="12" height="12" viewBox="0 0 12 12" fill="none" xmlns="http://www.w3.org/2000/svg">
<path d="M2.5 10.9976C2.225 10.9976 1.98958 10.8996 1.79375 10.7038C1.59792 10.508 1.5 10.2726 1.5 9.99756V2.99756C1.5 2.72256 1.59792 2.48714 1.79375 2.29131C1.98958 2.09548 2.225 1.99756 2.5 1.99756H3V0.997559H4V1.99756H8V0.997559H9V1.99756H9.5C9.775 1.99756 10.0104 2.09548 10.2063 2.29131C10.4021 2.48714 10.5 2.72256 10.5 2.99756V9.99756C10.5 10.2726 10.4021 10.508 10.2063 10.7038C10.0104 10.8996 9.775 10.9976 9.5 10.9976H2.5ZM2.5 9.99756H9.5V4.99756H2.5V9.99756ZM2.5 3.99756H9.5V2.99756H2.5V3.99756ZM6 6.99756C5.85833 6.99756 5.73958 6.94964 5.64375 6.85381C5.54792 6.75798 5.5 6.63923 5.5 6.49756C5.5 6.35589 5.54792 6.23714 5.64375 6.14131C5.73958 6.04548 5.85833 5.99756 6 5.99756C6.14167 5.99756 6.26042 6.04548 6.35625 6.14131C6.45208 6.23714 6.5 6.35589 6.5 6.49756C6.5 6.63923 6.45208 6.75798 6.35625 6.85381C6.26042 6.94964 6.14167 6.99756 6 6.99756ZM3.64375 6.85381C3.54792 6.75798 3.5 6.63923 3.5 6.49756C3.5 6.35589 3.54792 6.23714 3.64375 6.14131C3.73958 6.04548 3.85833 5.99756 4 5.99756C4.14167 5.99756 4.26042 6.04548 4.35625 6.14131C4.45208 6.23714 4.5 6.35589 4.5 6.49756C4.5 6.63923 4.45208 6.75798 4.35625 6.85381C4.26042 6.94964 4.14167 6.99756 4 6.99756C3.85833 6.99756 3.73958 6.94964 3.64375 6.85381ZM8 6.99756C7.85833 6.99756 7.73958 6.94964 7.64375 6.85381C7.54792 6.75798 7.5 6.63923 7.5 6.49756C7.5 6.35589 7.54792 6.23714 7.64375 6.14131C7.73958 6.04548 7.85833 5.99756 8 5.99756C8.14167 5.99756 8.26042 6.04548 8.35625 6.14131C8.45208 6.23714 8.5 6.35589 8.5 6.49756C8.5 6.63923 8.45208 6.75798 8.35625 6.85381C8.26042 6.94964 8.14167 6.99756 8 6.99756ZM6 8.99756C5.85833 8.99756 5.73958 8.94964 5.64375 8.85381C5.54792 8.75797 5.5 8.63923 5.5 8.49756C5.5 8.35589 5.54792 8.23714 5.64375 8.14131C5.73958 8.04548 5.85833 7.99756 6 7.99756C6.14167 7.99756 6.26042 8.04548 6.35625 8.14131C6.45208 8.23714 6.5 8.35589 6.5 8.49756C6.5 8.63923 6.45208 8.75797 6.35625 8.85381C6.26042 8.94964 6.14167 8.99756 6 8.99756ZM3.64375 8.85381C3.54792 8.75797 3.5 8.63923 3.5 8.49756C3.5 8.35589 3.54792 8.23714 3.64375 8.14131C3.73958 8.04548 3.85833 7.99756 4 7.99756C4.14167 7.99756 4.26042 8.04548 4.35625 8.14131C4.45208 8.23714 4.5 8.35589 4.5 8.49756C4.5 8.63923 4.45208 8.75797 4.35625 8.85381C4.26042 8.94964 4.14167 8.99756 4 8.99756C3.85833 8.99756 3.73958 8.94964 3.64375 8.85381ZM8 8.99756C7.85833 8.99756 7.73958 8.94964 7.64375 8.85381C7.54792 8.75797 7.5 8.63923 7.5 8.49756C7.5 8.35589 7.54792 8.23714 7.64375 8.14131C7.73958 8.04548 7.85833 7.99756 8 7.99756C8.14167 7.99756 8.26042 8.04548 8.35625 8.14131C8.45208 8.23714 8.5 8.35589 8.5 8.49756C8.5 8.63923 8.45208 8.75797 8.35625 8.85381C8.26042 8.94964 8.14167 8.99756 8 8.99756Z" fill="#898686"/>
</svg>
