<svg id="그룹_1429" data-name="그룹 1429" xmlns="http://www.w3.org/2000/svg" width="76" height="20" viewBox="0 0 76 20">
  <text id="도움쿠폰" transform="translate(19 16)" fill="#ff3787" font-size="17" font-family="Pretendard-SemiBold, Pretendard" font-weight="600" letter-spacing="-0.04em"><tspan x="0" y="0">도움쿠폰</tspan></text>
  <path id="coupon-2-fill" d="M9.475,3V14.2H2.627A.623.623,0,0,1,2,13.582V10.158A1.556,1.556,0,0,0,2,7.046V3.622A.622.622,0,0,1,2.627,3ZM10.72,3h3.112a.622.622,0,0,1,.622.622V7.046a1.556,1.556,0,0,0,0,3.112v3.424a.623.623,0,0,1-.622.622H10.72Z" transform="translate(-2.005 1.993)" fill="#ff3787"/>
</svg>
