<svg width="94" height="94" viewBox="0 0 94 94" fill="none" xmlns="http://www.w3.org/2000/svg">
<rect width="93.6" height="93.6" rx="46.8" fill="black"/>
<path d="M56.0942 47.5653C56.0531 43.2555 59.6152 41.1848 59.7754 41.0862C57.7704 38.1568 54.6562 37.7542 53.5469 37.709C50.897 37.4379 48.3744 39.2702 47.0268 39.2702C45.6792 39.2702 43.6044 37.746 41.4064 37.7912C38.514 37.8323 35.8476 39.4716 34.3562 42.0599C31.357 47.2612 33.5921 54.9852 36.5214 59.2128C37.9553 61.2794 39.6562 63.6089 41.8994 63.5226C44.0605 63.4363 44.8739 62.1257 47.4787 62.1257C50.0835 62.1257 50.8189 63.5226 53.0991 63.4815C55.4204 63.4363 56.8912 61.3697 58.3128 59.295C59.9479 56.8915 60.6258 54.5702 60.6669 54.447C60.6135 54.4264 56.1435 52.7132 56.0942 47.5653Z" fill="white"/>
<path d="M51.8076 34.9064C52.9991 33.4643 53.8002 31.4635 53.5825 29.4668C51.8692 29.5366 49.7945 30.609 48.566 32.051C47.465 33.3247 46.4995 35.3625 46.7624 37.3181C48.6646 37.466 50.6203 36.3444 51.8076 34.9064Z" fill="white"/>
</svg>
