<svg width="89" height="85" viewBox="0 0 89 85" fill="none" xmlns="http://www.w3.org/2000/svg">
<path d="M34.6667 34.6667C29.9 34.6667 25.8194 32.9694 22.425 29.575C19.0306 26.1806 17.3333 22.1 17.3333 17.3333C17.3333 12.5667 19.0306 8.48611 22.425 5.09167C25.8194 1.69722 29.9 0 34.6667 0C39.4333 0 43.5139 1.69722 46.9083 5.09167C50.3028 8.48611 52 12.5667 52 17.3333C52 22.1 50.3028 26.1806 46.9083 29.575C43.5139 32.9694 39.4333 34.6667 34.6667 34.6667ZM34.6667 26C37.05 26 39.0903 25.1514 40.7875 23.4542C42.4847 21.7569 43.3333 19.7167 43.3333 17.3333C43.3333 14.95 42.4847 12.9097 40.7875 11.2125C39.0903 9.51528 37.05 8.66667 34.6667 8.66667C32.2833 8.66667 30.2431 9.51528 28.5458 11.2125C26.8486 12.9097 26 14.95 26 17.3333C26 19.7167 26.8486 21.7569 28.5458 23.4542C30.2431 25.1514 32.2833 26 34.6667 26ZM82.7667 84.5L68.9 70.6333C67.3833 71.5 65.7583 72.2222 64.025 72.8C62.2917 73.3778 60.45 73.6667 58.5 73.6667C53.0833 73.6667 48.4792 71.7708 44.6875 67.9792C40.8958 64.1875 39 59.5833 39 54.1667C39 48.75 40.8958 44.1458 44.6875 40.3542C48.4792 36.5625 53.0833 34.6667 58.5 34.6667C63.9167 34.6667 68.5208 36.5625 72.3125 40.3542C76.1042 44.1458 78 48.75 78 54.1667C78 56.1167 77.7111 57.9583 77.1333 59.6917C76.5556 61.425 75.8333 63.05 74.9667 64.5667L88.8333 78.4333L82.7667 84.5ZM58.5 65C61.5333 65 64.0972 63.9528 66.1917 61.8583C68.2861 59.7639 69.3333 57.2 69.3333 54.1667C69.3333 51.1333 68.2861 48.5694 66.1917 46.475C64.0972 44.3806 61.5333 43.3333 58.5 43.3333C55.4667 43.3333 52.9028 44.3806 50.8083 46.475C48.7139 48.5694 47.6667 51.1333 47.6667 54.1667C47.6667 57.2 48.7139 59.7639 50.8083 61.8583C52.9028 63.9528 55.4667 65 58.5 65ZM0 69.3333V57.3083C0 54.8528 0.613889 52.5778 1.84167 50.4833C3.06944 48.3889 4.76667 46.8 6.93333 45.7167C10.6167 43.8389 14.7694 42.25 19.3917 40.95C24.0139 39.65 29.1417 39 34.775 39C33.9083 40.3 33.1681 41.6903 32.5542 43.1708C31.9403 44.6514 31.4528 46.1861 31.0917 47.775C26.7583 48.1361 22.8944 48.8764 19.5 49.9958C16.1056 51.1153 13.2528 52.2889 10.9417 53.5167C10.2194 53.8778 9.65972 54.4014 9.2625 55.0875C8.86528 55.7736 8.66667 56.5139 8.66667 57.3083V60.6667H31.0917C31.4528 62.2556 31.9403 63.7722 32.5542 65.2167C33.1681 66.6611 33.9083 68.0333 34.775 69.3333H0Z" fill="#FF5C8F"/>
</svg>
