<svg width="94" height="94" viewBox="0 0 94 94" fill="none" xmlns="http://www.w3.org/2000/svg">
<rect width="93.6" height="93.6" rx="46.8" fill="white"/>
<rect x="0.866667" y="0.866667" width="91.8667" height="91.8667" rx="45.9333" stroke="#D2D2D2" stroke-opacity="0.5" stroke-width="1.73333"/>
<path d="M64.1326 47.1941C64.1326 45.965 64.0256 44.7832 63.827 43.6486H48.0019V50.3613H57.0449C56.6477 52.5201 55.4562 54.348 53.669 55.5771V59.9419H59.1223C62.2995 56.9165 64.1326 52.4729 64.1326 47.1941Z" fill="#4285F4"/>
<path d="M48.0019 64.1335C52.5387 64.1335 56.3422 62.5892 59.1223 59.9419L53.669 55.5771C52.1721 56.6171 50.2627 57.2474 48.0019 57.2474C43.6332 57.2474 39.9214 54.2062 38.5924 50.1092H33.0017V54.5844C35.7665 60.2413 41.4336 64.1335 48.0019 64.1335Z" fill="#34A853"/>
<path d="M38.5924 50.0935C38.2564 49.0535 38.0578 47.9504 38.0578 46.8001C38.0578 45.6498 38.2564 44.5468 38.5924 43.5068V39.0316H33.0017C31.8561 41.3638 31.1992 43.9953 31.1992 46.8001C31.1992 49.605 31.8561 52.2365 33.0017 54.5686L37.3551 51.0704L38.5924 50.0935Z" fill="#FBBC05"/>
<path d="M48.0019 36.3686C50.4765 36.3686 52.6762 37.251 54.4328 38.9529L59.2445 33.9892C56.3269 31.1844 52.5387 29.4668 48.0019 29.4668C41.4336 29.4668 35.7665 33.3589 33.0017 39.0316L38.5924 43.5068C39.9214 39.4098 43.6332 36.3686 48.0019 36.3686Z" fill="#EA4335"/>
</svg>
