<svg width="29" height="23" viewBox="0 0 29 23" fill="none" xmlns="http://www.w3.org/2000/svg">
<path d="M27.4754 4.07863C27.0151 3.80248 26.3861 3.80247 25.6957 4.17068L22.8268 5.65881V4.20139C22.8268 2.16091 21.1852 0.519287 19.1447 0.519287H4.20164C2.16116 0.519287 0.519531 2.16091 0.519531 4.20139V18.1625C0.519531 20.203 2.16116 21.8446 4.20164 21.8446H19.1447C21.1852 21.8446 22.8268 20.203 22.8268 18.1625V16.705L25.6957 18.1933C26.3861 18.5461 27.0151 18.5615 27.4754 18.2853C27.9356 18.0091 28.2118 17.4415 28.2118 16.6591V5.70488C28.2118 4.92244 27.9356 4.35479 27.4754 4.07863Z" stroke="#666666" stroke-width="1.03846" stroke-linecap="round" stroke-linejoin="round"/>
<path d="M14.9218 9.03807H14.1536V8.26981C14.1536 7.43479 13.4688 6.75012 12.6338 6.75012C11.7988 6.75012 11.1141 7.43479 11.1141 8.26981V9.03807H10.3459C9.51084 9.03807 8.82617 9.72274 8.82617 10.5578C8.82617 11.3928 9.51084 12.0776 10.3459 12.0776H11.1141V12.8457C11.1141 13.6807 11.7988 14.3655 12.6338 14.3655C13.4688 14.3655 14.1536 13.6807 14.1536 12.8457V12.0776H14.9218C15.7568 12.0776 16.4416 11.3928 16.4416 10.5578C16.4416 9.72274 15.7568 9.03807 14.9218 9.03807Z" fill="#FF5A8D"/>
</svg>
