<svg width="29" height="24" viewBox="0 0 29 24" fill="none" xmlns="http://www.w3.org/2000/svg">
<path d="M17.7614 0.519287H10.6797V23.3043H17.7614V0.519287Z" stroke="#666666" stroke-width="1.03846" stroke-linecap="round" stroke-linejoin="round"/>
<path d="M7.84159 14.817H0.759766V23.2932H7.84159V14.817Z" stroke="#666666" stroke-width="1.03846" stroke-linecap="round" stroke-linejoin="round"/>
<path d="M27.6912 8.4375H20.6094V23.3041H27.6912V8.4375Z" stroke="#666666" stroke-width="1.03846" stroke-linecap="round" stroke-linejoin="round"/>
<path d="M6.09561 6.26915H5.32747V5.50089C5.32747 4.66587 4.6427 3.9812 3.80769 3.9812C2.97268 3.9812 2.28792 4.66587 2.28792 5.50089V6.26915H1.51977C0.684765 6.26915 0 6.95392 0 7.78894C0 8.62397 0.684765 9.30864 1.51977 9.30864H2.28792V10.0769C2.28792 10.9119 2.97268 11.5966 3.80769 11.5966C4.6427 11.5966 5.32747 10.9119 5.32747 10.0769V9.30864H6.09561C6.93062 9.30864 7.61538 8.62397 7.61538 7.78894C7.61538 6.95392 6.93062 6.26915 6.09561 6.26915Z" fill="#FF5A8D"/>
</svg>
