<svg width="26" height="31" viewBox="0 0 26 31" fill="none" xmlns="http://www.w3.org/2000/svg">
<path d="M18.1555 4.32153H22.5064C22.6569 4.32153 22.8211 4.33526 22.9579 4.36262C23.1084 4.38998 23.2453 4.431 23.3821 4.4994C23.5189 4.55413 23.6419 4.62258 23.7651 4.70467C23.8882 4.78676 23.9977 4.88246 24.0934 4.97824C24.2029 5.07401 24.2851 5.19722 24.3672 5.30667C24.4493 5.42981 24.5177 5.5529 24.5724 5.68972C24.6272 5.82654 24.6682 5.96336 24.7092 6.11386C24.7366 6.26436 24.7503 6.41488 24.7503 6.56539V27.2524C24.7503 27.4029 24.7366 27.5671 24.7092 27.7039C24.6819 27.8544 24.6408 27.9913 24.5724 28.1281C24.5177 28.2649 24.4493 28.388 24.3672 28.5111C24.2851 28.6343 24.1892 28.7437 24.0934 28.8395C23.9977 28.9489 23.8745 29.031 23.7651 29.1131C23.6419 29.1952 23.5189 29.2637 23.3821 29.3184C23.2453 29.3731 23.1084 29.4141 22.9579 29.4552C22.8074 29.4826 22.6569 29.4963 22.5064 29.4963H2.76338C2.61288 29.4963 2.44876 29.4826 2.31194 29.4552C2.16144 29.4278 2.02454 29.3868 1.88772 29.3184C1.7509 29.2637 1.62789 29.1952 1.50476 29.1131C1.38162 29.031 1.27201 28.9353 1.17624 28.8395C1.08046 28.7437 0.984756 28.6206 0.902665 28.5111C0.820573 28.388 0.75213 28.2649 0.697403 28.1281C0.642675 27.9913 0.601663 27.8544 0.560617 27.7039C0.533253 27.5534 0.519531 27.4029 0.519531 27.2524V6.56539C0.519531 6.41488 0.533253 6.25068 0.560617 6.11386C0.587981 5.96336 0.628993 5.82654 0.697403 5.68972C0.75213 5.5529 0.820573 5.42981 0.902665 5.30667C0.984756 5.18354 1.08046 5.07401 1.17624 4.97824C1.27201 4.88246 1.3953 4.78676 1.50476 4.70467C1.62789 4.62258 1.7509 4.55413 1.88772 4.4994C2.02454 4.44468 2.16144 4.40366 2.31194 4.36262C2.46244 4.33526 2.61288 4.32153 2.76338 4.32153H7.1143" stroke="#666666" stroke-width="1.03846" stroke-linecap="round" stroke-linejoin="round"/>
<path d="M17.648 4.63747V4.69225C17.648 3.70715 16.8407 2.89993 15.8556 2.89993H15.0211C15.0211 2.89993 15.0211 2.85883 15.0211 2.84514C15.0211 1.55905 13.9811 0.519287 12.695 0.519287C11.4089 0.519287 10.3692 1.55905 10.3692 2.84514C10.3692 2.87251 10.3692 2.88624 10.3692 2.89993H9.5346C8.5495 2.89993 7.74219 3.69347 7.74219 4.69225V4.63747C7.74219 4.73324 7.7559 4.4733 7.76958 4.56908C7.7559 4.62381 7.74219 4.69224 7.74219 4.76065V5.95096C7.74219 6.34774 8.0569 6.66245 8.45367 6.66245H16.9229C17.3196 6.66245 17.6343 6.34774 17.6343 5.95096V4.76065C17.6343 4.76065 17.6343 4.63749 17.607 4.56908C17.6206 4.4733 17.6343 4.73324 17.6343 4.63747H17.648Z" stroke="#666666" stroke-width="1.03846" stroke-linecap="round" stroke-linejoin="round"/>
<path d="M10.8379 23.4728H13.9545" stroke="#666666" stroke-width="1.03846" stroke-linecap="round" stroke-linejoin="round"/>
<path d="M14.9219 13.4875H14.1536V12.7194C14.1536 11.8844 13.4688 11.1996 12.6338 11.1996C11.7987 11.1996 11.1142 11.8844 11.1142 12.7194V13.4875H10.3458C9.51075 13.4875 8.82617 14.1723 8.82617 15.0073C8.82617 15.8423 9.51075 16.527 10.3458 16.527H11.1142V17.2953C11.1142 18.1303 11.7987 18.815 12.6338 18.815C13.4688 18.815 14.1536 18.1303 14.1536 17.2953V16.527H14.9219C15.757 16.527 16.4416 15.8423 16.4416 15.0073C16.4416 14.1723 15.757 13.4875 14.9219 13.4875Z" fill="#FF5A8D"/>
</svg>
