<svg width="30" height="30" viewBox="0 0 30 30" fill="none" xmlns="http://www.w3.org/2000/svg">
<path fill-rule="evenodd" clip-rule="evenodd" d="M17.2579 7.06053C17.2811 7.35322 17.4744 7.60248 17.7434 7.72016C18.0088 7.83626 18.2692 7.96811 18.5233 8.11567C18.7688 8.25832 19.0045 8.41391 19.2298 8.58119C19.4671 8.75744 19.7818 8.80102 20.0484 8.67341L21.5885 7.93604C21.8829 7.79512 22.2367 7.85898 22.4475 8.10821C23.2595 9.06862 23.8904 10.1733 24.3079 11.3612C24.4151 11.6662 24.2947 12.0008 24.029 12.1849L22.6152 13.1646C22.3744 13.3315 22.2561 13.6231 22.2892 13.9143C22.3219 14.2021 22.3386 14.4932 22.3386 14.7861C22.3386 15.0791 22.3219 15.3703 22.2891 15.6583C22.256 15.9495 22.3743 16.2411 22.6152 16.408L24.0282 17.3872C24.294 17.5714 24.4144 17.9061 24.3071 18.211C23.8893 19.399 23.2581 20.5035 22.4457 21.4638C22.2349 21.7129 21.8811 21.7767 21.5868 21.6358L20.048 20.8991C19.7814 20.7715 19.4667 20.815 19.2294 20.9912C19.0042 21.1584 18.7687 21.3139 18.5233 21.4564C18.2692 21.604 18.0088 21.7359 17.7434 21.852C17.4744 21.9696 17.2812 22.2189 17.258 22.5116L17.1217 24.233C17.0961 24.5562 16.8662 24.8292 16.5475 24.8886C15.3084 25.1198 14.0364 25.1199 12.7973 24.889C12.4785 24.8296 12.2485 24.5566 12.2229 24.2334L12.0866 22.5118C12.0634 22.219 11.8702 21.9698 11.6011 21.8521C11.3356 21.736 11.0751 21.6041 10.821 21.4564C10.5756 21.3139 10.3401 21.1585 10.1149 20.9913C9.87765 20.8151 9.56295 20.7715 9.2964 20.8992L7.75639 21.6365C7.46212 21.7774 7.10831 21.7136 6.89756 21.4645C6.08516 20.5044 5.45389 19.4 5.03595 18.2122C4.92862 17.9072 5.049 17.5725 5.3148 17.3883L6.72907 16.4082C6.96997 16.2413 7.08829 15.9496 7.05514 15.6585C7.02232 15.3704 7.0056 15.0792 7.0056 14.7861C7.0056 14.4931 7.02232 14.202 7.0551 13.9141C7.08821 13.623 6.9699 13.3314 6.72904 13.1644L5.31401 12.1839C5.04829 11.9997 4.92791 11.6651 5.03512 11.3601C5.45276 10.1723 6.0837 9.06779 6.8958 8.10749C7.10651 7.85831 7.4604 7.79448 7.75474 7.93541L9.29599 8.67329C9.56254 8.80091 9.87724 8.75733 10.1145 8.58112C10.3398 8.41383 10.5755 8.25832 10.821 8.11567C11.0751 7.96803 11.3356 7.83614 11.6012 7.72004C11.8702 7.60237 12.0635 7.35311 12.0866 7.06038L12.2231 5.33651C12.2487 5.01326 12.4787 4.74026 12.7975 4.68086C14.0364 4.45001 15.3084 4.45012 16.5472 4.68127C16.866 4.74071 17.0959 5.01367 17.1215 5.33688L17.2579 7.06053ZM16.5976 11.451C15.407 10.7594 13.937 10.7594 12.7464 11.451C11.5654 12.1371 10.8387 13.4204 10.8387 14.7862C10.8387 16.152 11.5654 17.4353 12.7464 18.1214C13.937 18.813 15.407 18.813 16.5976 18.1214C17.7785 17.4353 18.5053 16.152 18.5053 14.7862C18.5053 13.4204 17.7785 12.1371 16.5976 11.451Z" fill="#D2D2D2" fill-opacity="0.5"/>
<path d="M18.9929 7.30506C18.7079 7.1395 18.4157 6.99153 18.1178 6.86121L17.3664 8.57909C17.5993 8.68098 17.828 8.7967 18.051 8.9263L18.9929 7.30506ZM19.7875 7.82856C19.5342 7.64043 19.2691 7.46549 18.9929 7.30506L18.051 8.9263C18.266 9.05118 18.4723 9.18734 18.6696 9.33385L19.7875 7.82856ZM21.1824 7.09045L19.6423 7.82781L20.452 9.51895L21.9921 8.78163L21.1824 7.09045ZM25.1912 11.0504C24.7361 9.7555 24.0482 8.55096 23.1621 7.50288L21.7303 8.71349C22.4683 9.5863 23.0423 10.591 23.4222 11.6721L25.1912 11.0504ZM23.148 13.9352L24.5618 12.9555L23.4938 11.4144L22.08 12.3941L23.148 13.9352ZM23.2749 14.7861C23.2749 14.4575 23.2562 14.1311 23.2194 13.8083L21.3564 14.0203C21.3852 14.2732 21.3999 14.5288 21.3999 14.7861H23.2749ZM23.2194 15.7643C23.2561 15.4414 23.2749 15.1148 23.2749 14.7861H21.3999C21.3999 15.0435 21.3852 15.2992 21.3564 15.5522L23.2194 15.7643ZM24.561 16.6166L23.1479 15.6374L22.0799 17.1786L23.493 18.1578L24.561 16.6166ZM23.1602 22.0693C24.0467 21.0214 24.7348 19.8169 25.1902 18.5221L23.4215 17.9C23.0412 18.981 22.4669 19.9857 21.7287 20.8584L23.1602 22.0693ZM19.6419 21.7447L21.1807 22.4814L21.9904 20.7903L20.4516 20.0535L19.6419 21.7447ZM18.9929 22.2671C19.269 22.1067 19.5339 21.9319 19.7871 21.7439L18.6693 20.2385C18.4721 20.385 18.2658 20.521 18.051 20.6458L18.9929 22.2671ZM18.1179 22.7109C18.4158 22.5806 18.708 22.4326 18.9929 22.2671L18.051 20.6458C17.828 20.7754 17.5994 20.8912 17.3664 20.9931L18.1179 22.7109ZM18.055 24.307L18.1913 22.5856L16.3221 22.4376L16.1859 24.159L18.055 24.307ZM12.6243 25.8106C13.9769 26.0627 15.3655 26.0626 16.7181 25.8102L16.3742 23.967C15.2488 24.177 14.0933 24.1771 12.9678 23.9674L12.6243 25.8106ZM11.1507 22.5858L11.2871 24.3073L13.1562 24.1594L13.0199 22.4378L11.1507 22.5858ZM10.3488 22.2671C10.6339 22.4327 10.9262 22.5807 11.2242 22.711L11.9756 20.9932C11.7425 20.8912 11.5139 20.7755 11.2907 20.6458L10.3488 22.2671ZM9.55478 21.744C9.80791 21.9319 10.0728 22.1068 10.3488 22.2671L11.2907 20.6458C11.0759 20.5211 10.8697 20.385 10.6725 20.2386L9.55478 21.744ZM8.15997 22.4821L9.69998 21.7447L8.89028 20.0536L7.35027 20.7909L8.15997 22.4821ZM4.15036 18.5234C4.60587 19.818 5.29411 21.0223 6.18061 22.0701L7.61198 20.859C6.87372 19.9864 6.29937 18.9819 5.91905 17.901L4.15036 18.5234ZM6.19385 15.6376L4.77953 16.6177L5.8475 18.1588L7.26181 17.1788L6.19385 15.6376ZM6.06683 14.7861C6.06683 15.1149 6.08562 15.4415 6.12237 15.7645L7.98533 15.5524C7.95653 15.2993 7.94183 15.0435 7.94183 14.7861H6.06683ZM6.12233 13.8081C6.08558 14.131 6.06683 14.4574 6.06683 14.7861H7.94183C7.94183 14.5288 7.95653 14.2731 7.9853 14.0201L6.12233 13.8081ZM4.77875 12.9544L6.19377 13.935L7.26173 12.3939L5.84671 11.4133L4.77875 12.9544ZM6.17866 7.50213C5.2925 8.55003 4.60463 9.75441 4.14942 11.0491L5.9183 11.671C6.29832 10.5901 6.87237 9.58551 7.61037 8.71285L6.17866 7.50213ZM9.69953 7.8277L8.15832 7.08981L7.34862 8.78095L8.88987 9.51888L9.69953 7.8277ZM10.3488 7.30506C10.0727 7.46549 9.80761 7.64039 9.55433 7.82845L10.6722 9.33378C10.8695 9.1873 11.0758 9.05114 11.2907 8.9263L10.3488 7.30506ZM11.2242 6.86106C10.9262 6.99141 10.6339 7.13943 10.3488 7.30506L11.2907 8.9263C11.5139 8.79666 11.7426 8.68086 11.9756 8.57898L11.2242 6.86106ZM11.2873 5.26251L11.1508 6.98639L13.02 7.13436L13.1564 5.41049L11.2873 5.26251ZM16.7179 3.75966C15.3654 3.50734 13.977 3.5072 12.6245 3.75921L12.968 5.60249C14.0933 5.39279 15.2487 5.3929 16.374 5.60286L16.7179 3.75966ZM18.1913 6.98654L18.0548 5.26289L16.1856 5.41086L16.3221 7.13451L18.1913 6.98654ZM13.2161 12.2616C14.1155 11.7391 15.226 11.7391 16.1253 12.2616L17.0672 10.6404C15.5855 9.77958 13.7559 9.77958 12.2742 10.6404L13.2161 12.2616ZM11.775 14.7862C11.775 13.7488 12.3288 12.7771 13.2161 12.2616L12.2742 10.6404C10.7996 11.497 9.89997 13.092 9.89997 14.7862H11.775ZM13.2161 17.3108C12.3288 16.7953 11.775 15.8236 11.775 14.7862H9.89997C9.89997 16.4804 10.7996 18.0753 12.2742 18.932L13.2161 17.3108ZM16.1253 17.3108C15.226 17.8333 14.1155 17.8333 13.2161 17.3108L12.2742 18.932C13.7559 19.7928 15.5855 19.7928 17.0672 18.932L16.1253 17.3108ZM17.5665 14.7862C17.5665 15.8236 17.0127 16.7953 16.1253 17.3108L17.0672 18.932C18.5418 18.0753 19.4415 16.4804 19.4415 14.7862H17.5665ZM16.1253 12.2616C17.0127 12.7771 17.5665 13.7488 17.5665 14.7862H19.4415C19.4415 13.092 18.5418 11.4971 17.0672 10.6404L16.1253 12.2616ZM16.374 5.60286C16.2473 5.5792 16.1911 5.48001 16.1856 5.41086L18.0548 5.26289C17.9982 4.54731 17.4821 3.9022 16.7179 3.75966L16.374 5.60286ZM5.84671 11.4133C5.90375 11.4528 5.96063 11.5506 5.9183 11.671L4.14942 11.0491C3.89262 11.7796 4.1903 12.5466 4.77875 12.9544L5.84671 11.4133ZM7.9853 14.0201C8.05373 13.4188 7.81272 12.7757 7.26173 12.3939L6.19377 13.935C6.12455 13.887 6.12016 13.8271 6.12233 13.8081L7.9853 14.0201ZM7.26181 17.1788C7.81283 16.7969 8.05381 16.1537 7.98533 15.5524L6.12237 15.7645C6.12023 15.7456 6.12458 15.6856 6.19385 15.6376L7.26181 17.1788ZM5.91905 17.901C5.96146 18.0215 5.90453 18.1193 5.8475 18.1588L4.77953 16.6177C4.19093 17.0256 3.8933 17.7928 4.15036 18.5234L5.91905 17.901ZM7.35027 20.7909C7.4132 20.7608 7.52813 20.7599 7.61198 20.859L6.18061 22.0701C6.68596 22.6674 7.50848 22.794 8.15997 22.4821L7.35027 20.7909ZM10.6725 20.2386C10.1837 19.8756 9.5003 19.7615 8.89028 20.0536L9.69998 21.7447C9.62307 21.7816 9.56903 21.7546 9.55478 21.744L10.6725 20.2386ZM13.0199 22.4378C12.9669 21.7681 12.5306 21.2359 11.9756 20.9932L11.2242 22.711C11.2073 22.7036 11.1574 22.67 11.1507 22.5858L13.0199 22.4378ZM12.9678 23.9674C13.0946 23.991 13.1507 24.0902 13.1562 24.1594L11.2871 24.3073C11.3437 25.023 11.8599 25.6682 12.6243 25.8106L12.9678 23.9674ZM20.4516 20.0535C19.8415 19.7614 19.1581 19.8756 18.6693 20.2385L19.7871 21.7439C19.7728 21.7545 19.7188 21.7815 19.6419 21.7447L20.4516 20.0535ZM21.7287 20.8584C21.8126 20.7592 21.9275 20.7601 21.9904 20.7903L21.1807 22.4814C21.8322 22.7934 22.6548 22.6667 23.1602 22.0693L21.7287 20.8584ZM23.493 18.1578C23.436 18.1182 23.3791 18.0205 23.4215 17.9L25.1902 18.5221C25.4472 17.7916 25.1495 17.0245 24.561 16.6166L23.493 18.1578ZM21.3564 15.5522C21.2879 16.1535 21.5289 16.7967 22.0799 17.1786L23.1479 15.6374C23.2172 15.6854 23.2215 15.7454 23.2194 15.7643L21.3564 15.5522ZM13.1564 5.41049C13.151 5.47964 13.0948 5.57886 12.968 5.60249L12.6245 3.75921C11.8601 3.90164 11.3439 4.54683 11.2873 5.26251L13.1564 5.41049ZM22.08 12.3941C21.529 12.7759 21.288 13.419 21.3564 14.0203L23.2194 13.8083C23.2216 13.8273 23.2172 13.8872 23.148 13.9352L22.08 12.3941ZM11.9756 8.57898C12.5306 8.3362 12.9669 7.80404 13.02 7.13436L11.1508 6.98639C11.1575 6.90213 11.2073 6.86849 11.2242 6.86106L11.9756 8.57898ZM23.4222 11.6721C23.3799 11.5516 23.4368 11.4539 23.4938 11.4144L24.5618 12.9555C25.1502 12.5478 25.4478 11.7808 25.1912 11.0504L23.4222 11.6721ZM21.9921 8.78163C21.9291 8.81174 21.8142 8.81268 21.7303 8.71349L23.1621 7.50288C22.6568 6.90524 21.834 6.77845 21.1824 7.09045L21.9921 8.78163ZM16.1859 24.159C16.1913 24.0899 16.2475 23.9907 16.3742 23.967L16.7181 25.8102C17.4824 25.6676 17.9984 25.0225 18.055 24.307L16.1859 24.159ZM8.88987 9.51888C9.49992 9.81096 10.1834 9.69681 10.6722 9.33378L9.55433 7.82845C9.56862 7.81784 9.62266 7.79088 9.69953 7.8277L8.88987 9.51888ZM18.6696 9.33385C19.1585 9.69689 19.8419 9.81104 20.452 9.51895L19.6423 7.82781C19.7192 7.79099 19.7732 7.81795 19.7875 7.82856L18.6696 9.33385ZM17.3664 20.9931C16.8114 21.2358 16.3752 21.768 16.3221 22.4376L18.1913 22.5856C18.1846 22.6698 18.1348 22.7035 18.1179 22.7109L17.3664 20.9931ZM7.61037 8.71285C7.52652 8.812 7.41155 8.8111 7.34862 8.78095L8.15832 7.08981C7.50668 6.77781 6.68397 6.90456 6.17866 7.50213L7.61037 8.71285ZM18.1178 6.86121C18.1348 6.86864 18.1846 6.90228 18.1913 6.98654L16.3221 7.13451C16.3751 7.80419 16.8114 8.33631 17.3664 8.57909L18.1178 6.86121Z" fill="#D2D2D2" fill-opacity="0.5"/>
</svg>
