<svg width="24" height="24" viewBox="0 0 24 24" fill="none" xmlns="http://www.w3.org/2000/svg">
<path d="M12 22C9.68333 21.4167 7.77083 20.0875 6.2625 18.0125C4.75417 15.9375 4 13.6333 4 11.1V5.5L12 2L20 5.5V11.1C20 13.6333 19.2458 15.9375 17.7375 18.0125C16.2292 20.0875 14.3167 21.4167 12 22ZM12 20.9C13.7333 20.35 15.6471 19.15 16.7804 17.5C17.9137 15.85 19 13.1167 19 11.1V6L12 3.125L5 6V11.1C5 13.1167 6.08628 15.85 7.21962 17.5C8.35295 19.15 10.2667 20.35 12 20.9Z" fill="#D2D2D2"/>
<path d="M15.3333 16.7356H8.66667C8.29848 16.7356 8 16.4372 8 16.069V15.8462C8 14.8775 8.60102 14.0104 9.50817 13.6704C11.1148 13.0682 12.8852 13.0682 14.4918 13.6704C15.399 14.0104 16 14.8775 16 15.8462V16.069C16 16.4372 15.7015 16.7356 15.3333 16.7356Z" stroke="#D2D2D2" stroke-linecap="round" stroke-linejoin="round"/>
<path d="M10.9809 11.5471C11.6189 11.8749 12.3758 11.8749 13.0137 11.5471C13.6075 11.2421 14.0329 10.6866 14.1726 10.0339L14.2099 9.85967C14.3527 9.19217 14.2001 8.49552 13.7914 7.9488L13.7315 7.86875C13.3227 7.32197 12.68 7 11.9973 7C11.3146 7 10.6719 7.32197 10.2631 7.86875L10.2033 7.9488C9.79451 8.49552 9.64196 9.19217 9.78478 9.85967L9.82206 10.0339C9.96173 10.6866 10.3871 11.2421 10.9809 11.5471Z" stroke="#D2D2D2" stroke-linecap="round" stroke-linejoin="round"/>
</svg>
