<svg width="20" height="20" viewBox="0 0 20 20" fill="none" xmlns="http://www.w3.org/2000/svg">
<path d="M12.1455 4.82027C12.9931 4.38027 14.0618 4.5159 14.773 5.22703C15.4841 5.93818 15.6197 7.00695 15.1797 7.8545C16.0901 8.14265 16.75 8.9943 16.75 10C16.75 11.0057 16.0901 11.8574 15.1797 12.1455C15.6197 12.9931 15.4841 14.0618 14.773 14.773C14.0618 15.4841 12.9931 15.6197 12.1455 15.1797C11.8574 16.0901 11.0057 16.75 10 16.75C8.9943 16.75 8.14265 16.0901 7.8545 15.1797C7.00695 15.6197 5.93818 15.4841 5.22703 14.773C4.5159 14.0618 4.38027 12.9931 4.82027 12.1455C3.90985 11.8574 3.25 11.0057 3.25 10C3.25 8.9943 3.90985 8.14265 4.82027 7.8545C4.38027 7.00695 4.5159 5.93818 5.22703 5.22703C5.93818 4.5159 7.00695 4.38027 7.8545 4.82027C8.14265 3.90985 8.9943 3.25 10 3.25C11.0057 3.25 11.8574 3.90985 12.1455 4.82027Z" stroke="#FF5A8D" stroke-linecap="round" stroke-linejoin="round"/>
<path d="M12.6734 7.44336L7.19336 12.9234" stroke="#FF5A8D" stroke-linecap="round" stroke-linejoin="round"/>
<path d="M7.62904 9.125C7.28511 8.78108 7.28511 8.22345 7.62904 7.87953C7.97296 7.5356 8.53059 7.5356 8.87451 7.87953C9.21844 8.22345 9.21844 8.78108 8.87451 9.125C8.53059 9.46893 7.97296 9.46893 7.62904 9.125Z" stroke="#FF5A8D" stroke-linecap="round" stroke-linejoin="round"/>
<path d="M11.1163 12.6123C10.7724 12.2684 10.7724 11.7108 11.1163 11.3668C11.4603 11.0229 12.0179 11.0229 12.3618 11.3668C12.7057 11.7108 12.7057 12.2684 12.3618 12.6123C12.0179 12.9562 11.4603 12.9562 11.1163 12.6123Z" stroke="#FF5A8D" stroke-linecap="round" stroke-linejoin="round"/>
</svg>
