<svg width="26" height="21" viewBox="0 0 26 21" fill="none" xmlns="http://www.w3.org/2000/svg">
<path d="M15.6816 0.865479H9.87891V19.5338H15.6816V0.865479Z" stroke="white" stroke-width="1.73077" stroke-linecap="round" stroke-linejoin="round"/>
<path d="M6.66791 12.5774H0.865234V19.5336H6.66791V12.5774Z" stroke="white" stroke-width="1.73077" stroke-linecap="round" stroke-linejoin="round"/>
<path d="M24.6952 7.34619H18.8926V19.5342H24.6952V7.34619Z" stroke="white" stroke-width="1.73077" stroke-linecap="round" stroke-linejoin="round"/>
<path d="M5.12263 7.02485H4.67078V6.57314C4.67078 6.07373 4.26649 5.66943 3.76708 5.66943C3.26767 5.66943 2.86337 6.07373 2.86337 6.57314V7.02485H2.41152C1.91211 7.02485 1.50781 7.42914 1.50781 7.92855C1.50781 8.42796 1.91211 8.83226 2.41152 8.83226H2.86337V9.28396C2.86337 9.78337 3.26767 10.1877 3.76708 10.1877C4.26649 10.1877 4.67078 9.78337 4.67078 9.28396V8.83226H5.12263C5.62204 8.83226 6.02634 8.42796 6.02634 7.92855C6.02634 7.42914 5.62204 7.02485 5.12263 7.02485Z" fill="white"/>
</svg>
