<svg width="28" height="27" viewBox="0 0 28 27" fill="none" xmlns="http://www.w3.org/2000/svg">
<path d="M26.8272 25.7308H0.519531L3.87632 0.519287H23.4562L26.8272 25.7308Z" stroke="#666666" stroke-width="1.03846" stroke-linecap="round" stroke-linejoin="round"/>
<path d="M13.3273 12.2885C11.2353 12.2885 9.51953 10.4536 9.51953 8.18035V5.84215C9.51953 5.19265 10.0011 4.6731 10.6031 4.6731C11.2051 4.6731 11.6867 5.19265 11.6867 5.84215V8.18035C11.6867 9.1546 12.4243 9.95028 13.3273 9.95028C14.2303 9.95028 14.9678 9.1546 14.9678 8.18035V5.84215C14.9678 5.19265 15.4493 4.6731 16.0513 4.6731C16.6533 4.6731 17.1349 5.19265 17.1349 5.84215V8.18035C17.1349 10.4374 15.4344 12.2885 13.3273 12.2885Z" fill="#FF5A8D"/>
</svg>
