<svg width="44" height="44" viewBox="0 0 44 44" fill="none" xmlns="http://www.w3.org/2000/svg">
<path d="M32.4609 21.5598H29.7009L27.6208 30.48H24.4109L21.9609 18.6799L19.5107 30.48H16.3008L14.2209 21.5598H11.4609V18.6899H13.5608L12.3308 13.4199H15.7607L16.7507 18.6899H19.2209L20.2908 13.4199H23.8108L24.9009 18.6899H27.3508L28.3408 13.4199H31.5908L30.3608 18.6899H32.4609V21.5598ZM17.9209 24.9299L18.6008 21.5598H17.2808L17.9209 24.9299ZM26.8108 21.5598H25.4709L26.1709 24.99L26.8108 21.5598Z" fill="#1A1A1A"/>
<path d="M21.9502 43.8999C9.8402 43.8999 0 34.0499 0 21.95C0 9.84995 9.85019 0 21.9502 0C34.0602 0 43.9001 9.84995 43.9001 21.95C43.9001 34.0499 34.0502 43.8999 21.9502 43.8999ZM21.9502 2.51001C11.2302 2.51001 2.51001 11.23 2.51001 21.95C2.51001 32.67 11.2302 41.3899 21.9502 41.3899C32.6702 41.3899 41.3901 32.67 41.3901 21.95C41.3901 11.23 32.6702 2.51001 21.9502 2.51001Z" fill="#1A1A1A"/>
</svg>
