<svg width="49" height="42" viewBox="0 0 49 42" fill="none" xmlns="http://www.w3.org/2000/svg">
<path d="M42.6895 41.8999H6.15942C2.76942 41.8999 0.0195312 39.14 0.0195312 35.76V6.13989C0.0195312 2.74989 2.77942 0 6.15942 0H42.6895C46.0795 0 48.8293 2.75989 48.8293 6.13989V35.76C48.8293 39.14 46.0795 41.8999 42.6895 41.8999ZM6.15942 1.97998C3.86942 1.97998 2.00952 3.83988 2.00952 6.12988V35.75C2.00952 38.04 3.86942 39.8999 6.15942 39.8999H42.6895C44.9795 39.8999 46.8394 38.04 46.8394 35.75V6.12988C46.8394 3.83988 44.9795 1.97998 42.6895 1.97998H6.15942Z" fill="white"/>
<path d="M47.8298 10.5195H1C0.45 10.5195 0 10.0695 0 9.51953C0 8.96953 0.45 8.51953 1 8.51953H47.8298C48.3798 8.51953 48.8298 8.96953 48.8298 9.51953C48.8298 10.0695 48.3898 10.5195 47.8298 10.5195Z" fill="white"/>
<path d="M47.8298 19.2402H1C0.45 19.2402 0 18.7902 0 18.2402C0 17.6902 0.45 17.2402 1 17.2402H47.8298C48.3798 17.2402 48.8298 17.6902 48.8298 18.2402C48.8298 18.7902 48.3898 19.2402 47.8298 19.2402Z" fill="white"/>
<path d="M14.5708 27.5898H8.55078C8.00078 27.5898 7.55078 27.1398 7.55078 26.5898C7.55078 26.0398 8.00078 25.5898 8.55078 25.5898H14.5708C15.1208 25.5898 15.5708 26.0398 15.5708 26.5898C15.5708 27.1398 15.1208 27.5898 14.5708 27.5898Z" fill="white"/>
<path d="M21.5908 33.8691H8.54102C7.99102 33.8691 7.54102 33.4191 7.54102 32.8691C7.54102 32.3191 7.99102 31.8691 8.54102 31.8691H21.5908C22.1408 31.8691 22.5908 32.3191 22.5908 32.8691C22.5908 33.4191 22.1408 33.8691 21.5908 33.8691Z" fill="white"/>
</svg>
