<svg width="23" height="23" viewBox="0 0 23 23" fill="none" xmlns="http://www.w3.org/2000/svg">
<path d="M11.25 22.5C5.05 22.5 0 17.45 0 11.25C0 5.05 5.05 0 11.25 0C17.45 0 22.5 5.05 22.5 11.25C22.5 17.45 17.45 22.5 11.25 22.5ZM11.25 1C5.6 1 1.01001 5.58999 1.01001 11.24C1.01001 16.89 5.6 21.48 11.25 21.48C16.9 21.48 21.49 16.89 21.49 11.24C21.49 5.58999 16.9 1 11.25 1Z" fill="black"/>
<path d="M8.48047 6.59H11.8005C12.5405 6.59 13.1805 6.72998 13.7205 7.00998C14.2505 7.28998 14.6605 7.68998 14.9505 8.19998C15.2305 8.70998 15.3705 9.30999 15.3705 9.98999C15.3705 10.67 15.2305 11.29 14.9505 11.8C14.6705 12.31 14.2605 12.71 13.7205 12.99C13.1905 13.27 12.5505 13.41 11.8005 13.41H10.4105V15.89H8.48047V6.57999V6.59ZM11.7205 11.58C12.2705 11.58 12.6905 11.44 12.9905 11.17C13.2905 10.9 13.4405 10.5 13.4405 9.98999C13.4405 9.47999 13.2905 9.08999 12.9905 8.82999C12.6905 8.55999 12.2705 8.42999 11.7205 8.42999H10.4105V11.58H11.7205Z" fill="black"/>
<path d="M11.25 20.5C6.15 20.5 2 16.35 2 11.25C2 6.15 6.15 2 11.25 2C16.35 2 20.5 6.15 20.5 11.25C20.5 16.35 16.35 20.5 11.25 20.5ZM11.25 2.50998C6.43 2.50998 2.51001 6.43 2.51001 11.25C2.51001 16.07 6.43 19.99 11.25 19.99C16.07 19.99 19.99 16.07 19.99 11.25C19.99 6.43 16.07 2.50998 11.25 2.50998Z" fill="black"/>
</svg>
