<svg width="80" height="80" viewBox="0 0 80 80" fill="none" xmlns="http://www.w3.org/2000/svg">
<path d="M40.0008 73.3342C21.6304 73.3342 6.66748 58.3712 6.66748 40.0008C6.66748 21.6304 21.6304 6.66748 40.0008 6.66748C58.3712 6.66748 73.3342 21.6304 73.3342 40.0008C73.3342 58.3712 58.3712 73.3342 40.0008 73.3342ZM40.0008 9.63044C23.2601 9.63044 9.6601 23.2304 9.6601 39.9712C9.6601 56.7119 23.2601 70.3119 40.0008 70.3119C56.7416 70.3119 70.3416 56.7119 70.3416 39.9712C70.3416 23.2304 56.7416 9.63044 40.0008 9.63044Z" fill="#FF5A8D"/>
<path d="M31.7949 26.1932H41.632C43.8246 26.1932 45.7208 26.608 47.3208 27.4376C48.8912 28.2673 50.106 29.4524 50.9653 30.9636C51.7949 32.4747 52.2098 34.2525 52.2098 36.2673C52.2098 38.2821 51.7949 40.1191 50.9653 41.6302C50.1357 43.1414 48.9208 44.3265 47.3208 45.1562C45.7504 45.9858 43.8542 46.4007 41.632 46.4007H37.5134V53.7488H31.7949V26.1636V26.1932ZM41.3949 40.9784C43.0245 40.9784 44.269 40.5636 45.1579 39.7636C46.0468 38.9636 46.4912 37.7784 46.4912 36.2673C46.4912 34.7562 46.0468 33.6006 45.1579 32.8302C44.269 32.0302 43.0245 31.6451 41.3949 31.6451H37.5134V40.9784H41.3949Z" fill="#FF5A8D"/>
<path d="M39.9992 67.4066C24.8881 67.4066 12.5918 55.1103 12.5918 39.9992C12.5918 24.8881 24.8881 12.5918 39.9992 12.5918C55.1103 12.5918 67.4066 24.8881 67.4066 39.9992C67.4066 55.1103 55.1103 67.4066 39.9992 67.4066ZM39.9992 14.1028C25.7177 14.1028 14.1029 25.7177 14.1029 39.9992C14.1029 54.2807 25.7177 65.8955 39.9992 65.8955C54.2807 65.8955 65.8956 54.2807 65.8956 39.9992C65.8956 25.7177 54.2807 14.1028 39.9992 14.1028Z" fill="#FF5A8D"/>
</svg>
