<svg width="39" height="33" viewBox="0 0 39 33" fill="none" xmlns="http://www.w3.org/2000/svg">
<path d="M19.07 22.77C21.07 22.77 22.85 22.18 24.41 20.99C25.97 19.81 26.97 18.27 27.41 16.39H23.45C23.07 17.21 22.48 17.87 21.69 18.37C20.9 18.87 20.02 19.12 19.07 19.12C18.12 19.12 17.24 18.87 16.45 18.37C15.65 17.87 15.07 17.21 14.69 16.39H10.73C11.17 18.27 12.18 19.81 13.73 20.99C15.29 22.17 17.07 22.77 19.07 22.77ZM13.83 13.66C14.5 13.66 15.06 13.44 15.52 13C15.98 12.56 16.21 12.02 16.21 11.38C16.21 10.74 15.98 10.2 15.52 9.76001C15.06 9.32001 14.49 9.09998 13.83 9.09998C13.17 9.09998 12.6 9.32001 12.14 9.76001C11.68 10.2 11.45 10.74 11.45 11.38C11.45 12.02 11.68 12.56 12.14 13C12.6 13.44 13.17 13.66 13.83 13.66ZM24.32 13.66C24.99 13.66 25.55 13.44 26.01 13C26.47 12.56 26.7 12.02 26.7 11.38C26.7 10.74 26.47 10.2 26.01 9.76001C25.55 9.32001 24.98 9.09998 24.32 9.09998C23.66 9.09998 23.09 9.32001 22.63 9.76001C22.17 10.2 21.94 10.74 21.94 11.38C21.94 12.02 22.17 12.56 22.63 13C23.09 13.44 23.66 13.66 24.32 13.66ZM19.07 32.79L16.31 30.51C13.1 27.84 10.45 25.53 8.35001 23.59C6.25001 21.65 4.58 19.9 3.34 18.35C2.1 16.8 1.23001 15.3699 0.740005 14.0699C0.250005 12.7599 0 11.41 0 10.02C0 7.17002 1 4.77999 3 2.87C5 0.959995 7.5 0 10.48 0C12.13 0 13.71 0.33 15.2 1C16.69 1.67 17.98 2.60995 19.06 3.81995C20.14 2.60995 21.43 1.66 22.92 1C24.41 0.33 25.99 0 27.64 0C30.63 0 33.12 0.959995 35.12 2.87C37.12 4.77999 38.12 7.17002 38.12 10.02C38.12 11.42 37.87 12.7699 37.38 14.0699C36.89 15.3799 36.02 16.8 34.78 18.35C33.54 19.9 31.87 21.65 29.77 23.59C27.67 25.53 25.02 27.84 21.81 30.51L19.04 32.79H19.07ZM19.07 27.87C22.12 25.35 24.63 23.21 26.6 21.45C28.57 19.69 30.13 18.13 31.27 16.78C32.41 15.43 33.21 14.2299 33.65 13.1799C34.1 12.1299 34.32 11.08 34.32 10.01C34.32 8.19001 33.68 6.66995 32.41 5.44995C31.14 4.23995 29.55 3.63 27.64 3.63C26.15 3.63 24.76 4.02997 23.49 4.83997C22.22 5.63997 21.34 6.67003 20.87 7.91003H17.25C16.77 6.67003 15.9 5.63997 14.63 4.83997C13.36 4.02997 11.98 3.63 10.48 3.63C8.57 3.63 6.98001 4.23995 5.71001 5.44995C4.44001 6.65995 3.8 8.18001 3.8 10.01C3.8 11.07 4.02 12.1299 4.47 13.1799C4.91 14.2299 5.71001 15.43 6.85001 16.78C7.99001 18.13 9.55 19.69 11.52 21.45C13.49 23.21 16 25.35 19.05 27.87H19.07Z" fill="#FF5A8D"/>
</svg>
