<svg width="42" height="39" viewBox="0 0 42 39" fill="none" xmlns="http://www.w3.org/2000/svg">
<path d="M20.7169 34.34C20.8469 34.34 20.9669 34.31 21.0969 34.24C21.2269 34.18 21.3169 34.11 21.3869 34.05L37.027 18.41C37.407 18.03 37.6869 17.6 37.8569 17.12C38.0369 16.64 38.1169 16.17 38.1169 15.69C38.1169 15.18 38.0269 14.7 37.8569 14.24C37.6869 13.78 37.407 13.37 37.027 13.02L28.9269 4.91998C28.5769 4.53998 28.1769 4.25997 27.7169 4.08997C27.2569 3.91997 26.7669 3.82996 26.2669 3.82996C25.7869 3.82996 25.3169 3.91997 24.8369 4.08997C24.3569 4.25997 23.9269 4.53998 23.5469 4.91998L23.027 5.44L26.5569 9.01996C27.0369 9.45996 27.3869 9.96999 27.6069 10.55C27.8269 11.12 27.9369 11.73 27.9369 12.36C27.9369 13.69 27.4869 14.82 26.5769 15.72C25.6669 16.63 24.5469 17.08 23.2169 17.08C22.5769 17.08 21.9669 16.97 21.3869 16.75C20.7969 16.53 20.2869 16.19 19.8369 15.75L16.2669 12.22L7.92694 20.56C7.82694 20.66 7.75694 20.76 7.71694 20.87C7.66694 20.98 7.64695 21.1 7.64695 21.23C7.64695 21.48 7.74694 21.72 7.93694 21.92C8.12694 22.13 8.34694 22.23 8.60694 22.23C8.73694 22.23 8.85694 22.2 8.98694 22.13C9.11694 22.07 9.20695 22 9.27695 21.94L15.7569 15.46L18.4269 18.13L11.9869 24.61C11.8869 24.7 11.817 24.81 11.777 24.92C11.727 25.03 11.7069 25.15 11.7069 25.28C11.7069 25.53 11.7969 25.76 11.9969 25.95C12.1869 26.14 12.4069 26.24 12.667 26.24C12.797 26.24 12.9169 26.21 13.0469 26.14C13.1769 26.08 13.2669 26.01 13.3369 25.95L19.8169 19.51L22.4869 22.18L16.0469 28.66C15.9469 28.72 15.8769 28.82 15.8369 28.95C15.7869 29.08 15.7669 29.2 15.7669 29.33C15.7669 29.58 15.8569 29.81 16.0569 30C16.247 30.19 16.4669 30.29 16.7269 30.29C16.8569 30.29 16.9769 30.27 17.0869 30.22C17.1969 30.17 17.2969 30.1 17.3969 30.01L23.8769 23.57L26.5469 26.24L20.0669 32.72C19.9669 32.82 19.8969 32.92 19.8569 33.03C19.8069 33.14 19.7869 33.26 19.7869 33.39C19.7869 33.64 19.8869 33.87 20.0969 34.06C20.3069 34.25 20.5369 34.35 20.7869 34.35L20.7169 34.34ZM20.6769 38.16C19.4969 38.16 18.4569 37.77 17.5569 36.99C16.6469 36.21 16.1169 35.24 15.9569 34.06C14.8769 33.9 13.9669 33.46 13.2369 32.72C12.5069 31.98 12.0569 31.08 11.8969 30C10.8169 29.84 9.91694 29.39 9.20694 28.64C8.48694 27.89 8.05695 27 7.89695 25.95C6.68695 25.79 5.70694 25.27 4.93694 24.38C4.17694 23.49 3.79694 22.44 3.79694 21.23C3.79694 20.59 3.91694 19.98 4.15694 19.39C4.39694 18.8 4.73694 18.29 5.18694 17.84L16.2469 6.82996L22.4969 13.08C22.5569 13.18 22.6569 13.25 22.7869 13.29C22.9169 13.34 23.037 13.36 23.167 13.36C23.457 13.36 23.6869 13.27 23.8869 13.1C24.0769 12.93 24.1769 12.69 24.1769 12.41C24.1769 12.28 24.1569 12.16 24.1069 12.03C24.0569 11.9 23.9869 11.81 23.8969 11.74L17.0769 4.91998C16.7269 4.53998 16.3269 4.25997 15.8669 4.08997C15.4069 3.91997 14.917 3.82996 14.417 3.82996C13.937 3.82996 13.4669 3.91997 12.9869 4.08997C12.5069 4.25997 12.0769 4.53998 11.6969 4.91998L4.97695 11.69C4.68695 11.98 4.45695 12.31 4.25695 12.69C4.06695 13.07 3.93694 13.45 3.87694 13.83C3.81694 14.21 3.81694 14.6 3.87694 15C3.93694 15.4 4.06695 15.77 4.25695 16.12L1.49694 18.88C0.956936 18.15 0.556949 17.35 0.306949 16.47C0.0569493 15.6 -0.0430593 14.71 0.0169407 13.82C0.0769407 12.93 0.306939 12.06 0.686939 11.22C1.06694 10.38 1.59695 9.61996 2.25695 8.95996L8.97695 2.23999C9.73695 1.50999 10.587 0.950007 11.527 0.570007C12.467 0.190007 13.4269 0 14.4069 0C15.3869 0 16.3569 0.190007 17.2869 0.570007C18.2269 0.950007 19.0569 1.50999 19.7869 2.23999L20.3169 2.76001L20.8369 2.23999C21.5969 1.50999 22.4469 0.950007 23.3869 0.570007C24.3269 0.190007 25.2869 0 26.2669 0C27.2469 0 28.2169 0.190007 29.1469 0.570007C30.0869 0.950007 30.9169 1.50999 31.6469 2.23999L39.7069 10.3C40.4369 11.03 40.9969 11.87 41.3769 12.83C41.7569 13.78 41.9469 14.75 41.9469 15.74C41.9469 16.73 41.7569 17.69 41.3769 18.62C40.9969 19.56 40.4369 20.39 39.7069 21.12L24.0669 36.71C23.6169 37.15 23.1069 37.51 22.5169 37.76C21.9269 38.01 21.3169 38.14 20.6769 38.14V38.16Z" fill="#FF5A8D"/>
</svg>
