<svg width="31" height="41" viewBox="0 0 31 41" fill="none" xmlns="http://www.w3.org/2000/svg">
<path d="M10.82 22.31L12.49 16.88L8.09999 13.35H13.53L15.25 8.01001L16.97 13.35H22.4L17.97 16.88L19.64 22.31L15.25 18.93L10.82 22.31ZM3.81 40.04V25.31C2.6 23.97 1.67 22.45 1 20.73C0.33 19.01 0 17.19 0 15.25C0 10.99 1.47999 7.37999 4.42999 4.42999C7.38999 1.46999 10.99 0 15.25 0C19.51 0 23.12 1.47999 26.07 4.42999C29.02 7.37999 30.5 10.99 30.5 15.25C30.5 17.19 30.17 19.02 29.5 20.73C28.83 22.45 27.9 23.97 26.69 25.31V40.04L15.25 36.23L3.81 40.04ZM15.25 26.69C18.43 26.69 21.13 25.58 23.35 23.35C25.58 21.13 26.69 18.42 26.69 15.25C26.69 12.08 25.58 9.37002 23.35 7.15002C21.13 4.93002 18.42 3.81 15.25 3.81C12.08 3.81 9.36999 4.92002 7.14999 7.15002C4.92999 9.38002 3.81 12.08 3.81 15.25C3.81 18.42 4.91999 21.13 7.14999 23.35C9.37999 25.58 12.08 26.69 15.25 26.69ZM7.62 34.37L15.25 32.42L22.88 34.37V28.46C21.77 29.1 20.57 29.6 19.28 29.96C17.99 30.32 16.65 30.51 15.25 30.51C13.85 30.51 12.51 30.33 11.22 29.96C9.93 29.59 8.72999 29.09 7.62 28.46V34.37Z" fill="#FF5A8D"/>
</svg>
