<svg width="28" height="28" viewBox="0 0 28 28" fill="none" xmlns="http://www.w3.org/2000/svg">
<path d="M13.751 15.7505C16.5124 15.7505 18.751 13.5119 18.751 10.7505C18.751 7.98906 16.5124 5.75049 13.751 5.75049C10.9896 5.75049 8.75098 7.98906 8.75098 10.7505C8.75098 13.5119 10.9896 15.7505 13.751 15.7505Z" stroke="#FF3787" stroke-width="1.5" stroke-linecap="round" stroke-linejoin="round"/>
<path d="M5.21094 23.5492C6.10342 22.0843 7.35775 20.8735 8.85335 20.0334C10.3489 19.1932 12.0355 18.752 13.7509 18.752C15.4664 18.752 17.1529 19.1932 18.6485 20.0334C20.1441 20.8735 21.3985 22.0843 22.2909 23.5492" stroke="#FF3787" stroke-width="1.5" stroke-linecap="round" stroke-linejoin="round"/>
<path d="M13.75 26.75C20.9297 26.75 26.75 20.9297 26.75 13.75C26.75 6.5703 20.9297 0.75 13.75 0.75C6.5703 0.75 0.75 6.5703 0.75 13.75C0.75 20.9297 6.5703 26.75 13.75 26.75Z" stroke="#FF3787" stroke-width="1.5" stroke-linecap="round" stroke-linejoin="round"/>
</svg>
