<svg width="26" height="26" viewBox="0 0 26 26" fill="none" xmlns="http://www.w3.org/2000/svg">
<path d="M6.50033 20.583C6.50033 20.583 9.75033 22.208 13.0003 22.208C16.2503 22.208 19.5003 20.583 19.5003 20.583C20.179 17.3005 20.5837 10.833 20.5837 10.833C20.5837 10.833 17.5503 9.20801 13.0003 9.20801C8.45033 9.20801 5.41699 10.833 5.41699 10.833C5.41699 10.833 5.82162 17.3005 6.50033 20.583Z" stroke="#FF3787" stroke-width="1.5" stroke-linecap="round" stroke-linejoin="round"/>
<path d="M17.3337 17.8896C16.1312 18.0202 14.5657 18.1459 13.0003 18.1459C11.4349 18.1459 9.86949 18.0202 8.66699 17.8896" stroke="#FF3787" stroke-width="1.5" stroke-linecap="round" stroke-linejoin="round"/>
<path d="M17.3337 13.6026C15.8999 13.3805 14.4512 13.2695 13.0003 13.2705C11.325 13.2705 9.85541 13.4168 8.66699 13.6026" stroke="#FF3787" stroke-width="1.5" stroke-linecap="round" stroke-linejoin="round"/>
<path d="M20.5833 10.8332C20.5833 9.479 21.125 7.0415 22.4792 7.0415C24.1042 7.0415 24.375 9.20817 24.375 10.8332C24.375 16.2498 19.5 20.5832 19.5 20.5832" stroke="#FF3787" stroke-width="1.5" stroke-linecap="round"/>
<path d="M5.41667 10.8332C5.41667 9.479 4.875 7.0415 3.52083 7.0415C1.89583 7.0415 1.625 9.20817 1.625 10.8332C1.625 16.2498 6.5 20.5832 6.5 20.5832" stroke="#FF3787" stroke-width="1.5" stroke-linecap="round"/>
</svg>
