<svg width="26" height="26" viewBox="0 0 26 26" fill="none" xmlns="http://www.w3.org/2000/svg">
<path d="M13.0003 23.8332C11.5017 23.8332 10.0934 23.5488 8.77533 22.98C7.45727 22.4113 6.31074 21.6394 5.33574 20.6644C4.36074 19.6894 3.58887 18.5429 3.02012 17.2248C2.45137 15.9068 2.16699 14.4984 2.16699 12.9998H4.33366V4.33317L23.8337 2.1665V3.7915L11.3753 5.19984V7.0415H23.8337V8.6665H11.3753V12.9998H23.8337C23.8337 14.4984 23.5493 15.9068 22.9805 17.2248C22.4118 18.5429 21.6399 19.6894 20.6649 20.6644C19.6899 21.6394 18.5434 22.4113 17.2253 22.98C15.9073 23.5488 14.4989 23.8332 13.0003 23.8332ZM5.95866 12.9998H7.04199V8.6665H5.95866V12.9998ZM5.95866 7.0415H7.04199V5.68734L5.95866 5.79567V7.0415ZM8.66699 12.9998H9.75033V8.6665H8.66699V12.9998ZM8.66699 7.0415H9.75033V5.36234L8.66699 5.49775V7.0415ZM5.01074 16.2498H20.9899C21.0621 16.0693 21.1253 15.8932 21.1795 15.7217C21.2337 15.5502 21.2878 15.3651 21.342 15.1665H4.63158C4.68574 15.3651 4.74442 15.5502 4.80762 15.7217C4.87081 15.8932 4.93852 16.0693 5.01074 16.2498ZM13.0003 21.6665C14.3545 21.6665 15.6094 21.3731 16.7649 20.7863C17.9205 20.1995 18.9045 19.4096 19.717 18.4165H6.28366C7.09616 19.4096 8.08019 20.1995 9.23574 20.7863C10.3913 21.3731 11.6462 21.6665 13.0003 21.6665Z" fill="#FF3787"/>
</svg>
