<svg width="21" height="23" viewBox="0 0 21 23" fill="none" xmlns="http://www.w3.org/2000/svg">
<g clip-path="url(#clip0_574_7290)">
<path d="M2.74902 1.78857C4.607 -0.0666143 7.63083 -0.066638 9.48926 1.78857L19.0088 11.2935L19.0527 11.3374V11.3394C20.8665 13.198 20.8523 16.1833 19.0088 18.0239C17.3869 19.6427 14.878 19.8494 13.0303 18.6431V18.6421C12.822 18.5056 12.7379 18.2448 12.8193 18.0132V18.0122C12.9351 17.6864 13.3277 17.5471 13.6211 17.7388C15.0611 18.6791 17.0209 18.5086 18.2734 17.23C19.6887 15.7852 19.646 13.4559 18.2109 12.0229L13.8662 7.68506L11.2822 10.2651C11.1162 10.4309 10.8662 10.468 10.6621 10.3677L10.5771 10.3159C10.3132 10.1187 10.2859 9.73377 10.5186 9.50146L13.1016 6.92139L8.72461 2.55225C7.28828 1.11772 4.94957 1.11768 3.5127 2.55225C2.07622 3.98667 2.07611 6.32102 3.5127 7.75537L4.24609 8.48779C4.5072 8.74848 4.43583 9.18744 4.10547 9.35205C3.89772 9.45599 3.64699 9.41576 3.48242 9.25146L2.74902 8.51904C0.890414 6.66336 0.890382 3.64424 2.74902 1.78857Z" fill="#FF3787" stroke="#FF3787" stroke-width="0.3"/>
<path d="M6.50879 9.29395C7.60164 9.29395 8.63182 9.56963 9.53223 10.0547L9.91016 10.2754L10.2451 10.5029C10.3545 10.5819 10.4614 10.6643 10.5654 10.75C11.986 11.9203 12.8945 13.6911 12.8945 15.6699C12.8945 16.1496 12.8406 16.6174 12.7393 17.0674C12.6718 17.3642 12.5847 17.6542 12.4775 17.9346C11.561 20.3347 9.23146 22.0449 6.50879 22.0449C2.98817 22.0449 0.123244 19.1854 0.123047 15.6699C0.123047 12.9512 1.83608 10.625 4.24023 9.70996C4.52103 9.60299 4.81135 9.51514 5.10938 9.44824C5.55958 9.34707 6.02838 9.29397 6.50879 9.29395ZM6.50879 10.29C6.25495 10.29 6.00482 10.3078 5.76074 10.3418C5.46057 10.3838 5.16815 10.4506 4.88574 10.54C2.70451 11.2294 1.11921 13.2686 1.11914 15.6699C1.11914 18.6362 3.53718 21.0498 6.50879 21.0498C8.9063 21.0497 10.9435 19.4781 11.6406 17.3125L11.6475 17.29C11.7371 17.008 11.8042 16.7167 11.8457 16.417V16.416C11.8797 16.1725 11.8975 15.9232 11.8975 15.6699C11.8974 13.9771 11.1101 12.464 9.88086 11.4766C9.68107 11.3161 9.46909 11.1697 9.24707 11.0381C8.44402 10.5631 7.50757 10.2901 6.50879 10.29Z" fill="#FF3787" stroke="#FF3787" stroke-width="0.3"/>
<path d="M9.66211 15.0981C9.96524 15.0982 10.225 15.3277 10.2451 15.6313L10.2705 16.0298L10.1758 15.9351C10.1524 15.979 10.1258 16.0217 10.0908 16.0591C9.9829 16.1745 9.83099 16.2397 9.67383 16.2397H3.34961C3.08673 16.2397 2.84802 16.0614 2.78809 15.8042C2.74751 15.6317 2.78735 15.4526 2.89648 15.3149V15.314C3.00575 15.1772 3.16971 15.0982 3.34473 15.0981H9.66211Z" fill="#FF3787" stroke="#FF3787" stroke-width="0.3"/>
<path d="M5.63262 8.7844C5.54501 8.7844 5.46411 8.75507 5.39918 8.70671C5.39918 8.70671 5.36826 8.68304 5.35435 8.66915L4.12225 7.43903C2.88243 6.20118 2.88243 4.18751 4.12225 2.94966C4.27478 2.79738 4.52162 2.79738 4.67466 2.94966C4.82719 3.10195 4.82719 3.3489 4.67466 3.50119C3.73938 4.43497 3.73938 5.95423 4.67466 6.88853L5.9047 8.1166C5.97736 8.1876 6.0227 8.28586 6.0227 8.39545C6.0227 8.6105 5.84801 8.78491 5.63262 8.78491V8.7844Z" fill="#FF3787" stroke="#FF3787" stroke-width="0.3"/>
</g>
<defs>
<clipPath id="clip0_574_7290">
<rect width="20.8" height="22.4421" fill="white"/>
</clipPath>
</defs>
</svg>
