<svg width="26" height="26" viewBox="0 0 26 26" fill="none" xmlns="http://www.w3.org/2000/svg">
<g clip-path="url(#clip0_500_28567)">
<path d="M25.6875 12.5117H24.875V9.26172C24.875 8.83074 24.7038 8.41742 24.399 8.11267C24.0943 7.80792 23.681 7.63672 23.25 7.63672H21.625V6.82422C21.625 6.39324 21.4538 5.97992 21.149 5.67517C20.8443 5.37042 20.431 5.19922 20 5.19922H17.5625C17.1315 5.19922 16.7182 5.37042 16.4135 5.67517C16.1087 5.97992 15.9375 6.39324 15.9375 6.82422V12.5117H11.0625V6.82422C11.0625 6.39324 10.8913 5.97992 10.5865 5.67517C10.2818 5.37042 9.86848 5.19922 9.4375 5.19922H7C6.56902 5.19922 6.1557 5.37042 5.85095 5.67517C5.5462 5.97992 5.375 6.39324 5.375 6.82422V7.63672H3.75C3.31902 7.63672 2.9057 7.80792 2.60095 8.11267C2.2962 8.41742 2.125 8.83074 2.125 9.26172V12.5117H1.3125C1.09701 12.5117 0.890349 12.5973 0.737976 12.7497C0.585602 12.9021 0.5 13.1087 0.5 13.3242C0.5 13.5397 0.585602 13.7464 0.737976 13.8987C0.890349 14.0511 1.09701 14.1367 1.3125 14.1367H2.125V17.3867C2.125 17.8177 2.2962 18.231 2.60095 18.5358C2.9057 18.8405 3.31902 19.0117 3.75 19.0117H5.375V19.8242C5.375 20.2552 5.5462 20.6685 5.85095 20.9733C6.1557 21.278 6.56902 21.4492 7 21.4492H9.4375C9.86848 21.4492 10.2818 21.278 10.5865 20.9733C10.8913 20.6685 11.0625 20.2552 11.0625 19.8242V14.1367H15.9375V19.8242C15.9375 20.2552 16.1087 20.6685 16.4135 20.9733C16.7182 21.278 17.1315 21.4492 17.5625 21.4492H20C20.431 21.4492 20.8443 21.278 21.149 20.9733C21.4538 20.6685 21.625 20.2552 21.625 19.8242V19.0117H23.25C23.681 19.0117 24.0943 18.8405 24.399 18.5358C24.7038 18.231 24.875 17.8177 24.875 17.3867V14.1367H25.6875C25.903 14.1367 26.1097 14.0511 26.262 13.8987C26.4144 13.7464 26.5 13.5397 26.5 13.3242C26.5 13.1087 26.4144 12.9021 26.262 12.7497C26.1097 12.5973 25.903 12.5117 25.6875 12.5117ZM3.75 17.3867V9.26172H5.375V17.3867H3.75ZM9.4375 19.8242H7V6.82422H9.4375V19.8242ZM20 19.8242H17.5625V6.82422H20V18.1809C20 18.187 20 18.1931 20 18.1992C20 18.2053 20 18.2114 20 18.2175V19.8242ZM23.25 17.3867H21.625V9.26172H23.25V17.3867Z" fill="#FF3787"/>
</g>
<defs>
<clipPath id="clip0_500_28567">
<rect width="26" height="26" fill="white"/>
</clipPath>
</defs>
</svg>
