<svg width="21" height="20" viewBox="0 0 21 20" fill="none" xmlns="http://www.w3.org/2000/svg">
<path d="M5.23857 18.4136C4.72789 18.7217 4.09787 18.2646 4.23227 17.6835L5.42654 12.5206C5.48289 12.277 5.39998 12.0223 5.21107 11.8585L1.20486 8.3852C0.754276 7.99456 0.994543 7.25429 1.58865 7.20272L6.88492 6.74298C7.13411 6.72134 7.35092 6.56368 7.44829 6.33328L9.50325 1.4711C9.73555 0.921475 10.5145 0.921474 10.7468 1.4711L12.8017 6.33328C12.8991 6.56368 13.1159 6.72134 13.3651 6.74298L18.6613 7.20272C19.2555 7.25429 19.4957 7.99456 19.0451 8.3852L15.0389 11.8585C14.85 12.0223 14.7671 12.277 14.8235 12.5206L16.0177 17.6835C16.1521 18.2646 15.5221 18.7217 15.0114 18.4136L10.4737 15.6763C10.2592 15.5469 9.99078 15.5469 9.77634 15.6763L5.23857 18.4136Z" stroke="#FF5A8D" stroke-width="1.5" stroke-linejoin="bevel"/>
</svg>
