<svg width="34" height="31" viewBox="0 0 34 31" fill="none" xmlns="http://www.w3.org/2000/svg">
<path d="M3.08182 30.8182C2.23432 30.8182 1.50881 30.5164 0.905284 29.9129C0.301762 29.3094 0 28.5839 0 27.7364V9.24545C0 8.39795 0.301762 7.67244 0.905284 7.06892C1.50881 6.4654 2.23432 6.16364 3.08182 6.16364H7.93568L10.7864 3.08182H20.0318V6.16364H12.1347L9.3225 9.24545H3.08182V27.7364H27.7364V13.8682H30.8182V27.7364C30.8182 28.5839 30.5164 29.3094 29.9129 29.9129C29.3094 30.5164 28.5839 30.8182 27.7364 30.8182H3.08182ZM27.7364 9.24545V6.16364H24.6545V3.08182H27.7364V0H30.8182V3.08182H33.9V6.16364H30.8182V9.24545H27.7364ZM15.4091 25.425C17.3352 25.425 18.9724 24.7509 20.3207 23.4026C21.669 22.0543 22.3432 20.417 22.3432 18.4909C22.3432 16.5648 21.669 14.9276 20.3207 13.5793C18.9724 12.231 17.3352 11.5568 15.4091 11.5568C13.483 11.5568 11.8457 12.231 10.4974 13.5793C9.14915 14.9276 8.475 16.5648 8.475 18.4909C8.475 20.417 9.14915 22.0543 10.4974 23.4026C11.8457 24.7509 13.483 25.425 15.4091 25.425ZM15.4091 22.3432C14.3305 22.3432 13.4187 21.9708 12.674 21.226C11.9292 20.4812 11.5568 19.5695 11.5568 18.4909C11.5568 17.4123 11.9292 16.5006 12.674 15.7558C13.4187 15.011 14.3305 14.6386 15.4091 14.6386C16.4877 14.6386 17.3994 15.011 18.1442 15.7558C18.889 16.5006 19.2614 17.4123 19.2614 18.4909C19.2614 19.5695 18.889 20.4812 18.1442 21.226C17.3994 21.9708 16.4877 22.3432 15.4091 22.3432Z" fill="white"/>
</svg>
