<svg width="19" height="21" viewBox="0 0 19 21" fill="none" xmlns="http://www.w3.org/2000/svg">
<path d="M14.56 3.71002L3.70996 10.47L14.56 17.23" stroke="#1A1A1E" stroke-width="1.05" stroke-miterlimit="10"/>
<path d="M3.71005 13.65C1.96005 13.65 0.530029 12.22 0.530029 10.47C0.530029 8.72 1.96005 7.29001 3.71005 7.29001C5.46005 7.29001 6.89005 8.72 6.89005 10.47C6.89005 12.22 5.46005 13.65 3.71005 13.65Z" fill="white"/>
<path d="M3.71002 7.82001C5.18002 7.82001 6.36002 9.01 6.36002 10.47C6.36002 11.93 5.17002 13.12 3.71002 13.12C2.25002 13.12 1.06003 11.93 1.06003 10.47C1.06003 9.01 2.25002 7.82001 3.71002 7.82001ZM3.71002 6.76001C1.67002 6.76001 0 8.42 0 10.47C0 12.52 1.66002 14.18 3.71002 14.18C5.76002 14.18 7.42001 12.52 7.42001 10.47C7.42001 8.42 5.76002 6.76001 3.71002 6.76001Z" fill="#1A1A1E"/>
<path d="M14.56 6.89001C12.81 6.89001 11.38 5.46002 11.38 3.71002C11.38 1.96002 12.81 0.529999 14.56 0.529999C16.31 0.529999 17.74 1.96002 17.74 3.71002C17.74 5.46002 16.31 6.89001 14.56 6.89001Z" fill="white"/>
<path d="M14.56 1.05002C16.03 1.05002 17.21 2.24001 17.21 3.70001C17.21 5.16001 16.02 6.35001 14.56 6.35001C13.1 6.35001 11.91 5.16001 11.91 3.70001C11.91 2.24001 13.1 1.05002 14.56 1.05002ZM14.56 0C12.52 0 10.85 1.66002 10.85 3.71002C10.85 5.76002 12.51 7.42001 14.56 7.42001C16.61 7.42001 18.27 5.76002 18.27 3.71002C18.27 1.66002 16.61 0 14.56 0Z" fill="#1A1A1E"/>
<path d="M14.56 20.41C12.81 20.41 11.38 18.98 11.38 17.23C11.38 15.48 12.81 14.05 14.56 14.05C16.31 14.05 17.74 15.48 17.74 17.23C17.74 18.98 16.31 20.41 14.56 20.41Z" fill="white"/>
<path d="M14.56 14.58C16.03 14.58 17.21 15.77 17.21 17.23C17.21 18.69 16.02 19.88 14.56 19.88C13.1 19.88 11.91 18.69 11.91 17.23C11.91 15.77 13.1 14.58 14.56 14.58ZM14.56 13.52C12.52 13.52 10.85 15.18 10.85 17.23C10.85 19.28 12.51 20.94 14.56 20.94C16.61 20.94 18.27 19.28 18.27 17.23C18.27 15.18 16.61 13.52 14.56 13.52Z" fill="#1A1A1E"/>
</svg>
