<svg width="16" height="16" viewBox="0 0 16 16" fill="none" xmlns="http://www.w3.org/2000/svg">
<path d="M11.7717 11.1045L8.94299 13.9331C8.69316 14.1832 8.35416 14.3237 8.00066 14.3237C7.64716 14.3237 7.30816 14.1832 7.05833 13.9331L4.22899 11.1045C2.14627 9.02165 2.14633 5.64482 4.22912 3.56206C6.31191 1.47931 9.68874 1.47931 11.7715 3.56206C13.8543 5.64482 13.8544 9.02165 11.7717 11.1045V11.1045" stroke="#FF5C8D" stroke-width="1.33333" stroke-linecap="round" stroke-linejoin="round"/>
<path d="M10 7.3335C10 8.43733 9.10383 9.3335 8 9.3335C6.89617 9.3335 6 8.43733 6 7.3335C6 6.22967 6.89617 5.3335 8 5.3335C9.10383 5.3335 10 6.22967 10 7.3335V7.3335" stroke="#FF5C8D" stroke-width="1.33333" stroke-linecap="round" stroke-linejoin="round"/>
</svg>
