<svg width="48" height="49" viewBox="0 0 48 49" fill="none" xmlns="http://www.w3.org/2000/svg">
<rect width="47.0833" height="48.3333" rx="5" fill="#D9D9D9"/>
<path d="M23.8854 32.9037C28.9179 32.9037 32.9974 28.8241 32.9974 23.7917C32.9974 18.7593 28.9179 14.6797 23.8854 14.6797C18.853 14.6797 14.7734 18.7593 14.7734 23.7917C14.7734 28.8241 18.853 32.9037 23.8854 32.9037Z" fill="white"/>
<path d="M23.8875 36.2693C18.9813 36.2693 14.7381 33.4339 12.7051 29.3125V31.5502C15.1607 35.0899 19.2528 37.4086 23.8875 37.4086C28.5221 37.4086 32.6143 35.0902 35.0699 31.5502V29.3125C33.0372 33.4339 28.7937 36.2693 23.8875 36.2693Z" fill="white"/>
<path d="M33.1009 15.4128V13.7994C30.6773 11.5648 27.4403 10.1992 23.8837 10.1992C20.746 10.1992 17.8571 11.2622 15.5556 13.0472C15.5556 13.0727 15.5563 13.0978 15.5563 13.1232C15.5563 13.6547 15.5067 14.1696 15.4141 14.6596C17.6374 12.5986 20.6128 11.3382 23.8834 11.3382C27.5358 11.3382 30.8211 12.9094 33.1006 15.4128H33.1009Z" fill="white"/>
<path d="M14.6311 14.6572C14.7234 14.1671 14.7733 13.6526 14.7733 13.1208C14.7733 13.0953 14.773 13.0699 14.7727 13.0448C14.7441 9.82034 12.9044 7.21875 10.6388 7.21875C8.37308 7.21875 6.50391 9.86115 6.50391 13.1208C6.50391 15.447 7.44697 17.4587 8.81699 18.42C9.1573 18.6589 9.35884 19.0491 9.35884 19.4651V38.0971C9.35884 38.8038 9.93178 39.3767 10.6384 39.3767C11.3451 39.3767 11.9181 38.8038 11.9181 38.0971V19.4651C11.9181 19.0491 12.1196 18.6589 12.4599 18.42C13.5169 17.6782 14.3193 16.3113 14.6308 14.6568L14.6311 14.6572Z" fill="white"/>
<path d="M39.9473 7.21906H39.7391C39.5024 7.21906 39.3106 7.44227 39.3106 7.71759V14.8961C39.3106 15.1714 39.1188 15.3946 38.8821 15.3946H38.8576C38.6209 15.3946 38.4291 15.1714 38.4291 14.8961V7.71759C38.4291 7.44227 38.2372 7.21906 38.0005 7.21906C37.7638 7.21906 37.572 7.44227 37.572 7.71759V14.8961C37.572 15.1714 37.3802 15.3946 37.1435 15.3946H37.119C36.8823 15.3946 36.6905 15.1714 36.6905 14.8961V7.71759C36.6905 7.44227 36.4987 7.21906 36.262 7.21906C36.0252 7.21906 35.8334 7.44227 35.8334 7.71759V14.8961C35.8334 15.1714 35.6416 15.3946 35.4049 15.3946H35.3804C35.3748 15.3946 35.3691 15.394 35.3635 15.3937C35.1346 15.3833 34.9519 15.1648 34.9519 14.8961V7.71759C34.9519 7.44227 34.7601 7.21906 34.5234 7.21906H34.3152C34.0785 7.21906 33.8867 7.44227 33.8867 7.71759V17.405C33.8867 17.5601 33.9482 17.7064 34.0544 17.8006C34.2914 18.0113 34.664 18.3032 35.1556 18.549C35.5861 18.7641 35.852 19.2102 35.852 19.6911V38.0974C35.852 38.8041 36.4249 39.377 37.1316 39.377C37.8382 39.377 38.4112 38.8041 38.4112 38.0974V19.6927C38.4112 19.2058 38.6802 18.7543 39.1153 18.5358C39.6117 18.2866 39.9837 17.9959 40.2053 17.8019C40.313 17.7074 40.3764 17.5601 40.3764 17.4032V7.71728C40.3764 7.44196 40.1846 7.21875 39.9479 7.21875L39.9473 7.21906Z" fill="white"/>
</svg>
