<svg xmlns="http://www.w3.org/2000/svg" xmlns:xlink="http://www.w3.org/1999/xlink" width="20.372" height="19.5" viewBox="0 0 20.372 19.5">
  <defs>
    <linearGradient id="linear-gradient" x1="0.5" x2="0.5" y2="1" gradientUnits="objectBoundingBox">
      <stop offset="0" stop-color="#ffec05"/>
      <stop offset="1" stop-color="#ffd800"/>
    </linearGradient>
  </defs>
  <path id="패스_303" data-name="패스 303" d="M11.334.713,13.49,5.082a1.279,1.279,0,0,0,.964.7l4.822.7a1.279,1.279,0,0,1,.709,2.182l-3.489,3.4a1.28,1.28,0,0,0-.368,1.132l.823,4.8a1.279,1.279,0,0,1-1.857,1.349l-4.312-2.267a1.28,1.28,0,0,0-1.191,0L5.278,19.35A1.279,1.279,0,0,1,3.422,18l.823-4.8a1.28,1.28,0,0,0-.368-1.132L.388,8.665A1.279,1.279,0,0,1,1.1,6.483l4.822-.7a1.279,1.279,0,0,0,.964-.7L9.039.713a1.279,1.279,0,0,1,2.295,0" transform="translate(0 0)" fill="url(#linear-gradient)"/>
</svg>
