<svg xmlns="http://www.w3.org/2000/svg" xmlns:xlink="http://www.w3.org/1999/xlink" width="20" height="20" viewBox="0 0 20 20">
  <defs>
    <clipPath id="clip-path">
      <rect id="사각형_87" data-name="사각형 87" width="19.748" height="17.103" fill="none"/>
    </clipPath>
  </defs>
  <g id="btn-home" transform="translate(-402 -464)">
    <g id="그룹_199" data-name="그룹 199" transform="translate(402 464.949)">
      <g id="그룹_198" data-name="그룹 198" transform="translate(0 0)" clip-path="url(#clip-path)">
        <path id="패스_48" data-name="패스 48" d="M14.526,6.271,8.485.5,2.446,6.271v9.764h4.3v-4.39a1.736,1.736,0,1,1,3.473,0v4.39h4.3Z" transform="translate(1.389 0.284)" fill="#fff"/>
        <path id="패스_49" data-name="패스 49" d="M14.526,6.271,8.485.5,2.446,6.271v9.764h4.3v-4.39a1.736,1.736,0,1,1,3.473,0v4.39h4.3Z" transform="translate(1.389 0.284)" fill="none" stroke="#1d1d1b" stroke-linejoin="round" stroke-width="1"/>
        <path id="패스_50" data-name="패스 50" d="M6.927,6.5h0A1.737,1.737,0,0,0,5.19,8.238v4.39H8.664V8.238A1.737,1.737,0,0,0,6.927,6.5" transform="translate(2.947 3.691)" fill="#fff"/>
        <path id="패스_51" data-name="패스 51" d="M6.927,6.5h0A1.737,1.737,0,0,0,5.19,8.238v4.39H8.664V8.238A1.737,1.737,0,0,0,6.927,6.5Z" transform="translate(2.947 3.691)" fill="none" stroke="#1d1d1b" stroke-linejoin="round" stroke-width="1"/>
        <path id="패스_52" data-name="패스 52" d="M.345,9.416,9.678.5l9.333,8.916" transform="translate(0.196 0.284)" fill="none" stroke="#1d1d1b" stroke-linejoin="round" stroke-width="1"/>
      </g>
      <rect id="사각형_703" data-name="사각형 703" width="20" height="20" transform="translate(0 -0.949)" fill="#fff" opacity="0"/>
    </g>
  </g>
</svg>
