<svg id="그룹_74" data-name="그룹 74" xmlns="http://www.w3.org/2000/svg" width="71.73" height="22.481" viewBox="0 0 71.73 22.481">
  <g id="그룹_73" data-name="그룹 73" transform="translate(0 3.039)">
    <path id="패스_3" data-name="패스 3" d="M17.569,0,11.354,7.8V0h-3.5V16.4h3.5V7.97L17.445,16.4h4.969L15.64,7.882,22.168,0Z" transform="translate(-7.852 0)" fill="#00094f"/>
    <path id="패스_4" data-name="패스 4" d="M130.127,6.417c1.016,0,5.339.652,5.339,4.95A4.957,4.957,0,0,1,131.1,16.4H120.9V13.745l8.206.005a2.232,2.232,0,0,0,2.356-2.27c0-2.489-2.812-2.387-2.812-2.387h-3.142c-1.443,0-5.161-.521-5.161-4.363C120.352.114,124.96,0,124.96,0H134.3V2.623l-7.666.007c-2.477,0-2.437,1.923-2.437,1.923a1.958,1.958,0,0,0,2.167,1.874Z" transform="translate(-90.738 0)" fill="#00094f"/>
    <path id="패스_5" data-name="패스 5" d="M74.21,16.405a4.573,4.573,0,0,0,4.709-4.582,4.374,4.374,0,0,0-2.342-4.156s1.86-.639,1.685-3.481C78.009.068,73.358,0,73.358,0H64.337V16.4s7.8.007,9.873.007M67.651,2.664h4.516s2.455-.11,2.455,1.928a1.874,1.874,0,0,1-2.043,1.9H67.651Zm4.115,11.071H67.651V9.123l5.077,0s2.565.095,2.565,2.277-1.923,2.334-3.527,2.334" transform="translate(-49.468 -0.001)" fill="#00094f"/>
  </g>
  <path id="패스_6" data-name="패스 6" d="M22.406,98.758a10.567,10.567,0,0,0-.125-1.308s0-.01,0-.014a11.077,11.077,0,0,0-.323-1.419A11.966,11.966,0,0,0,20.762,93.3a10.868,10.868,0,0,0-5.988-4.917h0S9.534,86.639,6.7,89.516q-.076.081-.149.167a10.262,10.262,0,0,0-4.531,3.126A8.46,8.46,0,0,0,.257,96.471c-.024.114-.086.448-.09.479a12.144,12.144,0,0,0-.16,2.328h0c0,.039,0,.077,0,.117a10.837,10.837,0,0,0,.451,2.789A11.987,11.987,0,0,0,1.651,104.9a10.87,10.87,0,0,0,5.988,4.917h0s5.242,1.746,8.072-1.131c.052-.054.1-.111.149-.167a10.267,10.267,0,0,0,4.531-3.125,8.732,8.732,0,0,0,1.275-2.093,10.4,10.4,0,0,0,.741-4.542M5.883,90.692a13.162,13.162,0,0,1,3.057-.975,14.891,14.891,0,0,1,4.869-.194c3.348.443,6.07,2.122,7.357,4.682l.032.064a.05.05,0,0,1-.015.064c-.021.014-.057.005-.083-.027s-.025-.043-.039-.063a9.2,9.2,0,0,0-4.793-3.63,14.005,14.005,0,0,0-7.137-.46,12.854,12.854,0,0,0-3.486,1.113,4.637,4.637,0,0,1,.238-.573M5.406,92.6a19.06,19.06,0,0,1,3.348-1.16,13.153,13.153,0,0,1,9.689.927,7.66,7.66,0,0,1,3.548,4.144c.008.024.017.047.025.071a.024.024,0,0,0,0,.007c.026.085-.006.118-.037.122a.055.055,0,0,1-.049-.027c-.008-.019-.016-.039-.023-.059a7.532,7.532,0,0,0-2.656-3.256c-2.51-1.775-6.276-2.428-10.507-1.326a20.237,20.237,0,0,0-3.3,1.217c-.005-.043-.012-.087-.017-.13a4.449,4.449,0,0,1-.02-.531M16.53,107.509a13.111,13.111,0,0,1-3.056.975,14.879,14.879,0,0,1-4.869.195c-3.348-.443-6.07-2.122-7.357-4.681l-.033-.065a.05.05,0,0,1,.015-.064.066.066,0,0,1,.083.027l.039.064a9.206,9.206,0,0,0,4.793,3.63,14,14,0,0,0,7.138.459,12.838,12.838,0,0,0,3.486-1.112,4.6,4.6,0,0,1-.239.573m.478-1.91a19.089,19.089,0,0,1-3.349,1.161,13.148,13.148,0,0,1-9.689-.928,7.659,7.659,0,0,1-3.548-4.143c-.008-.024-.017-.047-.025-.071,0,0,0,0,0-.007-.026-.085.006-.118.037-.122a.057.057,0,0,1,.049.027c.008.02.015.04.024.059a7.537,7.537,0,0,0,2.656,3.256c2.509,1.775,6.276,2.428,10.507,1.325a20.214,20.214,0,0,0,3.3-1.217c.006.044.012.087.017.13a4.45,4.45,0,0,1,.02.531m5.24-6.613c-.017,0-.033-.013-.045-.034s-.008-.035-.013-.053a6.421,6.421,0,0,0-1.739-3.008c-2.414-2.4-6.786-3.357-11.4-2.238-.351.087-.694.186-1.032.293a15.8,15.8,0,0,0-2.086.831,4.4,4.4,0,0,0,.5.733,15.375,15.375,0,0,1,4.535-1.332,14.131,14.131,0,0,1,3.155-.068,10.056,10.056,0,0,1,6.566,2.936,5.58,5.58,0,0,1,1.5,3.71c0,.039,0,.078,0,.117s0,.07,0,.1a.06.06,0,0,1-.072.057.054.054,0,0,1-.047-.033c0-.035-.009-.068-.013-.1a6,6,0,0,0-1.3-2.988A8.139,8.139,0,0,0,16.9,95.387,13.445,13.445,0,0,0,10.2,95.1a16.11,16.11,0,0,0-3.23.961,4.837,4.837,0,0,0,.876.595,12.617,12.617,0,0,1,3.827-1,11.662,11.662,0,0,1,7.254,1.468,6.771,6.771,0,0,1,1.8,1.595,4.75,4.75,0,0,1,1.026,2.852,4.873,4.873,0,0,1-.286,1.717c-.007.019-.015.038-.022.057s-.034.036-.05.031-.029-.03-.029-.062.009-.039.014-.058a4.56,4.56,0,0,0,.091-1.357,4.72,4.72,0,0,0-.859-2.336q-.157-.223-.337-.433c-1.795-2.088-5.354-3.183-9.1-2.484a13.453,13.453,0,0,0-2.024.486,5.333,5.333,0,0,0,1.835.076s1.019-.135,1.441-.224c.084-.013.215-.034.274-.036l.03,0a10.642,10.642,0,0,1,4.408.539,6.437,6.437,0,0,1,3.139,2.4.63.63,0,0,1-.1.731,9.366,9.366,0,0,1-.954,1.053c-.337.307-.921.721-.921.721h0a14.931,14.931,0,0,1-1.694.982l0-.008-.133.064.005.009c.022.041.044.082.065.124a4.558,4.558,0,0,1,.191.445,16.764,16.764,0,0,1-3.24,1.154c-4.473,1.118-8.7.337-11.183-1.848A6.441,6.441,0,0,1,.141,99.345c0-.026-.007-.053-.011-.079s.018-.048.036-.051.032.013.044.035.01.035.014.052a6.433,6.433,0,0,0,1.74,3.009c2.414,2.4,6.786,3.357,11.4,2.238.35-.087.694-.186,1.031-.293a15.965,15.965,0,0,0,2.086-.831,4.44,4.44,0,0,0-.5-.733,15.359,15.359,0,0,1-4.535,1.333,14.092,14.092,0,0,1-3.154.068,10.05,10.05,0,0,1-6.566-2.936,5.579,5.579,0,0,1-1.5-3.71c0-.039,0-.078,0-.117s0-.07,0-.1A.06.06,0,0,1,.3,97.167a.054.054,0,0,1,.048.033c0,.035.009.069.014.1a5.991,5.991,0,0,0,1.3,2.988,8.139,8.139,0,0,0,3.854,2.524,13.436,13.436,0,0,0,6.694.29,16.176,16.176,0,0,0,3.23-.96,4.844,4.844,0,0,0-.876-.6,12.61,12.61,0,0,1-3.826,1,11.659,11.659,0,0,1-7.254-1.467,6.775,6.775,0,0,1-1.8-1.6A4.746,4.746,0,0,1,.659,96.63a4.875,4.875,0,0,1,.286-1.716c.007-.02.014-.038.022-.057s.033-.036.05-.031.029.03.028.062-.009.039-.013.057A4.6,4.6,0,0,0,.94,96.3a4.715,4.715,0,0,0,.86,2.336,5.346,5.346,0,0,0,.337.433c1.795,2.088,5.354,3.182,9.095,2.484a13.443,13.443,0,0,0,2.025-.486,5.347,5.347,0,0,0-1.836-.076s-1.019.135-1.44.223c-.085.014-.215.034-.275.036l-.029,0a10.64,10.64,0,0,1-4.408-.539,6.434,6.434,0,0,1-3.139-2.4.629.629,0,0,1,.1-.73,9.459,9.459,0,0,1,.955-1.053c.336-.307.92-.721.92-.721h0A15.035,15.035,0,0,1,5.8,94.832l0,.008.133-.064-.005-.01c-.021-.041-.045-.082-.065-.124a4.373,4.373,0,0,1-.191-.445,16.784,16.784,0,0,1,3.24-1.154c4.472-1.118,8.7-.338,11.183,1.848a6.438,6.438,0,0,1,2.177,3.966c0,.026.007.053.01.079s-.017.048-.035.051" transform="translate(49.312 -87.86)" fill="#0080cc"/>
</svg>
