<svg id="그룹_72" data-name="그룹 72" xmlns="http://www.w3.org/2000/svg" xmlns:xlink="http://www.w3.org/1999/xlink" width="63.988" height="22.481" viewBox="0 0 63.988 22.481">
  <defs>
    <clipPath id="clip-path">
      <rect id="사각형_57" data-name="사각형 57" width="63.988" height="22.481" fill="none"/>
    </clipPath>
  </defs>
  <g id="그룹_71" data-name="그룹 71" clip-path="url(#clip-path)">
    <path id="패스_7" data-name="패스 7" d="M175.331,25.522l-4.04-3.71a1.335,1.335,0,0,1-.458-1,1.447,1.447,0,0,1,1.482-1.4h4.469V17.476h-6.835a3.661,3.661,0,0,0-3.883,3.665,3.542,3.542,0,0,0,1.021,2.477l4.761,4.491a1.455,1.455,0,0,1,.522,1.536c-.276.956-1.492.956-1.948.956h-4.355v3.918h6.609a4.71,4.71,0,0,0,4.842-4.566v-.038a5.609,5.609,0,0,0-2.188-4.393" transform="translate(-140.223 -14.756)" fill="#00447e"/>
    <path id="패스_8" data-name="패스 8" d="M346.829,25.522l-4.04-3.71a1.329,1.329,0,0,1-.459-1,1.448,1.448,0,0,1,1.482-1.4h4.47V17.476h-6.836a3.661,3.661,0,0,0-3.883,3.665,3.542,3.542,0,0,0,1.021,2.477l4.761,4.491a1.456,1.456,0,0,1,.523,1.536c-.278.956-1.493.956-1.949.956h-4.355v3.918h6.61a4.709,4.709,0,0,0,4.842-4.566v-.038a5.605,5.605,0,0,0-2.187-4.393" transform="translate(-285.031 -14.756)" fill="#00447e"/>
    <path id="패스_9" data-name="패스 9" d="M261.022,29.672a4.95,4.95,0,0,0-3.432-4.8,3.492,3.492,0,0,0,2.631-3.6,3.5,3.5,0,0,0-1.461-2.861,6.139,6.139,0,0,0-3.207-.815l0,0h-7.543l0,17.022h8.025a5.706,5.706,0,0,0,3.265-1.162,5.05,5.05,0,0,0,1.722-3.783m-8.934-10.13H253.9c.277,0,2.17,0,2.324,1.842.114,1.32-.786,2.146-2.237,2.146h-1.9ZM254.266,30.7h-2.178V26.168h2.093a2.332,2.332,0,0,1,2.54,2.1,2.247,2.247,0,0,1-2.455,2.437" transform="translate(-209.412 -14.857)" fill="#00447e"/>
    <path id="패스_10" data-name="패스 10" d="M22.33,12.88c.273-2.688.2-3.307-1.2-5.206-.356-.48-.629-.911-.147-.783.446.117.116-.885.531-.633-.654-2.993-4.247-4.772-6.984-5.763-.648-.14-1.3-.283-1.945-.424C12.226.071,11.724,0,11.362,0c-2.3.291-4.468.3-6.408,1.659-.575.429-1.147,1.207-1.794,1.777-.361.358-.5.643-.864,1A10.835,10.835,0,0,0,0,10.426c-.064,4.419,1.438,7.844,5.61,10.129a21.678,21.678,0,0,0,5.079,1.88,11.576,11.576,0,0,0,5.15-.846c.574-.428,1.185-.394,1.617-.894.358-.356,1.2-.905,1.413-1.334,1.008-1.641,3.752-4.557,3.46-6.481" transform="translate(0)" fill="#007cc7"/>
    <path id="패스_11" data-name="패스 11" d="M44.021,34.981c.165-1.614.123-1.984-.719-3.124-.214-.287-.376-.546-.088-.471.267.071.35-.275.318-.379-.393-1.794-2.547-2.861-4.191-3.457q-.583-.129-1.166-.255c-.217,0-.521-.042-.735-.042a7.9,7.9,0,0,0-3.846,1c-.345.257-.688.723-1.077,1.066-.215.215-.3.385-.518.6a6.5,6.5,0,0,0-1.376,3.6,6.194,6.194,0,0,0,3.365,6.077,13.117,13.117,0,0,0,3.048,1.127,6.938,6.938,0,0,0,3.088-.508c.347-.258.713-.237.972-.537.215-.215.72-.544.849-.8.6-.986,2.25-2.733,2.074-3.888" transform="translate(-25.858 -23.012)" fill="#fc9213"/>
    <path id="패스_12" data-name="패스 12" d="M41.027,43.451a4.945,4.945,0,0,1,6.6-2.189,4.848,4.848,0,0,1,2.214,6.531,4.946,4.946,0,0,1-6.6,2.19,4.848,4.848,0,0,1-2.213-6.532" transform="translate(-34.206 -34.409)" fill="#fff"/>
  </g>
</svg>
